<svg width="104" height="124" viewBox="0 0 104 124" fill="none" xmlns="http://www.w3.org/2000/svg">
<path d="M39.9716 21.8063C39.5558 21.8911 38.9108 22.042 38.9108 22.042L38.4394 22.1599L36.6714 22.6314L35.9642 22.8671L35.3749 23.1028L34.3141 23.5743L33.4891 24.0457L32.1926 24.8708L30.8961 26.0494L29.7174 27.4638L28.7745 28.996L28.0674 30.4104L27.3602 32.1783L26.7708 34.0641C26.7708 34.0641 26.44 35.204 26.2994 35.95C26.1703 36.6344 26.1566 37.0276 26.0637 37.7179C25.9274 38.7308 25.8181 39.2946 25.7101 40.3109C25.5589 41.7328 25.5471 42.5367 25.4743 43.9647C25.4158 45.1148 25.4025 45.7606 25.3565 46.9113C25.3105 48.062 25.2699 48.7067 25.2386 49.8579C25.1724 52.2965 25.2386 53.6651 25.2386 56.1047V61.2907V66.0052V72.1955V74.9629L25.4743 79.6774L25.5922 81.799C25.5922 81.799 25.8027 85.4105 26.1815 87.6921C26.3737 88.8498 26.4482 89.5105 26.7708 90.6387C27.1234 91.8715 27.3863 92.5513 27.9495 93.7032C28.3206 94.4623 28.535 94.8903 29.0103 95.589C29.2691 95.9696 29.4276 96.1744 29.7174 96.5319C30.0665 96.9625 30.2594 97.21 30.6604 97.5927C31.0868 97.9997 31.354 98.2006 31.839 98.5356C32.3652 98.899 33.2534 99.3607 33.2534 99.3607L34.9034 100.186L37.025 101.011L39.5001 101.718L41.8574 102.189L43.8611 102.425L47.6327 102.779L53.0545 103.132C53.0545 103.132 57.939 103.23 61.0692 103.25C63.5547 103.266 64.9488 103.301 67.4338 103.25C70.4742 103.188 72.1759 103.053 75.2129 102.897C78.3899 102.733 80.1728 102.66 83.3455 102.425C87.6801 102.105 90.1 101.799 94.4246 101.364C96.2201 101.184 99.0213 100.893 99.0213 100.893V120.34V120.458C99.0213 120.458 98.1595 120.603 97.607 120.694C96.4571 120.883 95.8135 120.997 94.6604 121.165C93.2516 121.371 92.4521 121.466 91.051 121.632L91.0066 121.637C89.26 121.844 88.2756 121.913 86.5278 122.108C84.9618 122.283 84.0867 122.408 82.5204 122.58C81.1865 122.727 80.4384 122.807 79.1024 122.933C77.4469 123.09 76.5176 123.166 74.8593 123.287C73.4332 123.391 72.6329 123.439 71.2055 123.523C69.4111 123.628 68.4046 123.68 66.6088 123.758C65.4123 123.811 64.7419 123.864 63.5443 123.876C63.1301 123.88 62.4836 123.876 62.4836 123.876C62.4836 123.876 59.898 123.975 58.2405 123.994C57.0898 124.007 56.4446 123.994 55.2939 123.994C54.6955 123.994 54.36 123.997 53.7616 123.994C51.7819 123.983 50.6733 123.879 48.6935 123.876C48.5554 123.876 48.478 123.877 48.3399 123.876C47.2803 123.871 47.148 123.851 45.629 123.758L41.7395 123.523C40.2206 123.431 40.1587 123.384 39.1465 123.287C38.2256 123.199 37.7085 123.156 36.7893 123.051C35.7285 122.93 35.1349 122.851 34.0784 122.698C33.2022 122.57 32.7128 122.487 31.839 122.344C31.2863 122.254 30.9749 122.212 30.4246 122.108C29.777 121.986 29.4161 121.905 28.7745 121.755C27.8941 121.548 27.4056 121.411 26.5351 121.165C25.4699 120.866 24.8745 120.689 23.8243 120.34C23.0367 120.079 22.5947 119.932 21.8206 119.633C20.264 119.033 19.4027 118.651 17.9311 117.865C17.2764 117.516 16.281 116.922 16.281 116.922C16.281 116.922 14.9581 116.103 14.1594 115.508C13.2424 114.825 12.7607 114.397 11.92 113.622C11.1542 112.916 10.7273 112.514 10.0342 111.736C9.19437 110.794 8.77947 110.206 8.06113 109.187L8.03052 109.143C7.39792 108.246 7.05267 107.734 6.49829 106.786C5.94732 105.844 5.66138 105.301 5.20178 104.311C4.68094 103.189 4.44444 102.533 4.02595 101.372L4.02315 101.364C3.4999 99.9126 3.23916 99.0845 2.84451 97.5927C2.45892 96.1351 2.2991 95.3026 2.01946 93.8211C1.81175 92.7206 1.71606 92.0996 1.54801 90.9923C1.33897 89.615 1.22261 88.8418 1.07655 87.4564C0.960334 86.354 0.932883 85.7324 0.840826 84.6277C0.70274 82.9707 0.600647 82.0435 0.487235 80.3846C0.367771 78.6372 0.319001 77.656 0.251507 75.9058C0.166352 73.6976 0.173789 72.4578 0.133644 70.2483C0.075105 67.0265 0.0316957 65.2201 0.0157799 61.9978C0.00736815 60.2948 -0.0150736 59.3397 0.0157799 57.6369C0.0558408 55.426 0.158462 54.1888 0.251507 51.9794C0.342618 49.816 0.357439 48.6012 0.487235 46.4398C0.597909 44.5968 0.682473 43.5648 0.840826 41.7253C1.0392 39.4209 1.13676 38.1263 1.43014 35.8321C1.63079 34.2631 1.73961 33.3816 2.01946 31.8247C2.32773 30.1098 2.50871 29.1461 2.96237 27.4638C3.25049 26.3953 3.44277 25.8045 3.78742 24.7529C4.21364 23.4524 4.44796 22.7194 4.96606 21.4527C5.3093 20.6135 5.51218 20.1464 5.90897 19.3312C6.29644 18.5351 6.60151 17.9719 6.96974 17.3275L7.91265 15.6774C8.28088 15.033 8.68675 14.5878 9.20915 13.9094C9.78813 13.1576 10.1051 12.7276 10.7414 12.0236C11.3524 11.3475 12.3915 10.3735 12.3915 10.3735L12.9808 9.78421C12.9808 9.78421 13.7556 9.11818 14.2773 8.72344C14.8576 8.28429 15.2043 8.06689 15.8095 7.66266C16.4466 7.23717 16.7991 6.98988 17.4596 6.60189C18.1343 6.20559 18.5274 6.00842 19.2276 5.65898C19.9093 5.31873 20.2956 5.13504 20.9955 4.83393C21.8121 4.48261 22.2808 4.31045 23.1171 4.00889C23.9386 3.71262 24.3641 3.53185 25.2386 3.30171L27.478 2.71239C28.3526 2.48224 28.9095 2.33113 29.8353 2.12307C30.7513 1.91722 31.2686 1.8177 32.1926 1.65161C33.3843 1.4374 34.0592 1.35715 35.257 1.18016C36.223 1.03743 36.763 0.945297 37.7322 0.826567C39.2461 0.641105 40.1011 0.591866 41.6217 0.472976C43.0014 0.365099 43.7757 0.312446 45.1576 0.237248C46.1698 0.182169 46.7377 0.159282 47.7506 0.119385C49.2691 0.0595727 51.6401 0.00152094 51.6401 0.00152094H55.0581C55.5184 0.00152094 55.7765 -0.00190117 56.2368 0.00152094C57.7104 0.012477 58.5359 0.0628948 60.0084 0.119385C61.0673 0.160005 61.6616 0.172795 62.7193 0.237248C63.8716 0.307464 64.5161 0.369502 65.6659 0.472976C67.4176 0.630621 68.4015 0.710907 70.1447 0.944431C71.3448 1.1052 72.018 1.19836 73.2092 1.41589C74.5058 1.65268 75.2241 1.83066 76.5094 2.12307C77.8483 2.4277 78.607 2.57096 79.9274 2.94811C80.8092 3.20001 81.3009 3.35305 82.1668 3.6553C83.2401 4.02995 83.8355 4.26192 84.8777 4.71607C85.6705 5.06155 86.1162 5.25603 86.8814 5.65898C87.8313 6.15921 88.3476 6.47446 89.2386 7.07335C89.9492 7.55096 90.3469 7.8241 91.0066 8.36985C91.5338 8.80601 91.7968 9.0882 92.3031 9.54848C92.8094 10.0088 93.1254 10.2338 93.5996 10.7271C94.0978 11.2455 94.3286 11.5805 94.7782 12.1415C95.2504 12.7305 95.5184 13.0592 95.9569 13.6737C96.3424 14.2141 96.5582 14.5189 96.8998 15.0881C97.1966 15.5826 97.3404 15.8731 97.607 16.3846C97.8448 16.8409 97.9773 17.0975 98.1963 17.5632C98.3892 17.9735 98.6677 18.624 98.6677 18.624L98.7856 18.8597C98.7856 18.8597 99.0099 19.359 99.1392 19.6848C99.4077 20.3612 99.7285 21.4527 99.7285 21.4527L100.436 23.5743C100.436 23.5743 100.74 24.5752 100.907 25.2244C101.06 25.8192 101.261 26.7566 101.261 26.7566C101.261 26.7566 101.473 27.7629 101.614 28.4067C101.705 28.8212 101.765 29.0518 101.85 29.4675C102.085 30.609 102.322 32.4141 102.322 32.4141L102.911 37.6001L103.382 44.9076C103.382 44.9076 103.602 48.8569 103.618 51.3901C103.622 51.9424 103.618 52.8045 103.618 52.8045L103.736 57.0476V61.0549V64.2373V70.2483H85.9385H80.6346H79.6917V68.9518V67.1839V64.1194V61.0549V58.8155V55.8689V53.2759C79.6917 53.2759 79.711 51.4799 79.6917 50.3293C79.67 49.0399 79.5738 47.0292 79.5738 47.0292L79.4559 44.0826L79.2202 41.6074C79.2202 41.6074 79.0474 39.8056 78.8666 38.6608C78.7131 37.6889 78.589 37.1504 78.3952 36.1857C78.2191 35.3095 78.1336 34.815 77.9237 33.9463C77.7559 33.2517 77.6749 32.8573 77.4523 32.1783C77.2526 31.5691 77.0976 31.2427 76.8629 30.6461C76.6815 30.1847 76.3915 29.4675 76.3915 29.4675C76.3915 29.4675 75.9204 28.5856 75.5664 28.0531C75.1486 27.4244 74.3878 26.5209 74.3878 26.5209L72.8556 24.9886C72.8556 24.9886 72.4353 24.616 72.1484 24.3993C71.6695 24.0376 71.3753 23.8679 70.8519 23.5743C70.4031 23.3225 70.1448 23.191 69.6733 22.985C69.0462 22.711 68.6776 22.5956 68.0232 22.3956C67.2972 22.1738 66.1373 21.9242 66.1373 21.9242L63.6622 21.4527L61.0692 21.0991L58.2405 20.8634C58.2405 20.8634 56.3016 20.7686 55.0581 20.7455C53.8156 20.7225 53.1185 20.7269 51.8758 20.7455C50.4484 20.767 49.6477 20.789 48.222 20.8634L48.2048 20.8643C47.4751 20.9024 46.8386 20.9356 46.3362 20.9813C46.3362 20.9813 45.5458 21.0507 45.0397 21.0991C44.5793 21.1432 44.3207 21.1647 43.8611 21.217C43.8611 21.217 43.286 21.2854 42.9182 21.3349C42.5956 21.3782 42.4153 21.4067 42.0931 21.4527C41.7709 21.4988 41.5896 21.5198 41.2681 21.5706C40.7598 21.6508 40.4758 21.7035 39.9716 21.8063Z" fill="#74AA9C"/>
<g opacity="0.9" filter="url(#filter0_b_6776_322)">
<path d="M14.2133 71.6762L13.2071 71.9115L11.4183 72.3823C11.4183 72.3823 10.3863 72.7344 10.1884 73.3238C10.0721 73.6705 10.1884 74.2653 10.1884 74.2653L10.412 75.2068L10.7475 76.8544L11.0829 78.3844L11.3065 79.3259L11.6419 80.8558L11.9773 82.3858L12.3127 83.9157L12.6481 85.4456L12.8717 86.5048L13.2071 88.0348L13.6543 90.0355L13.8779 90.977C13.8779 90.977 14.0158 91.4555 14.2133 91.6831C14.5033 92.0173 14.7953 92.2282 15.2195 92.1539C15.8903 92.0362 16.7847 91.8008 16.7847 91.8008L18.7972 91.33L20.3624 90.977L22.9338 90.3885L24.9462 89.9178L26.9587 89.447L29.5301 88.8586L31.9897 88.2702L33.5549 87.9171L35.1201 87.564L36.6854 87.211L39.145 86.6225L41.7164 86.0341L43.7289 85.5633L45.8531 85.0926L47.7537 84.6218L50.3251 84.0334L52.3376 83.5626L55.468 82.8565L57.9276 82.2681L60.6109 81.6796L62.6233 81.2089L64.6357 80.7381L66.0891 80.3851L67.6543 80.032L69.2196 79.6789L70.673 79.3259L72.2382 78.9728L73.6916 78.6197L75.2568 78.2667L76.8221 77.9136L78.3873 77.5606L80.3997 77.0898L81.9649 76.7367L83.9773 76.266L85.4308 75.9129L87.4432 75.4422L89.0084 75.0891L90.5736 74.736L92.586 74.2653L94.5985 73.7945L97.1699 73.2061L99.1823 72.7353C99.1823 72.7353 99.6295 72.6177 99.9649 72.5C100.379 72.3546 100.544 72.0079 100.636 71.5585C100.681 71.3338 100.636 70.97 100.636 70.97L100.189 68.6163L99.7413 66.2625L99.1823 63.2026L98.7351 60.8489L98.2879 58.3774L97.8407 56.0237L97.3935 53.6699L97.1699 52.7285C97.0651 52.2871 96.7973 52.0485 96.3873 51.9046C96.0973 51.8029 95.6047 51.9046 95.6047 51.9046L95.0457 52.0223L93.2569 52.493L90.35 53.1992L87.2196 53.9053L83.9773 54.7291L82.5239 55.0822L81.5177 55.3175L80.0643 55.6706L78.6109 56.0237L77.1575 56.3767L76.1513 56.6121L74.6978 56.9652L73.2444 57.3182L71.791 57.6713L70.3376 58.0244L68.8842 58.3774L67.4307 58.7305L65.9773 59.0836L64.0767 59.5543L62.1761 60.0251L60.1636 60.4958L58.7102 60.8489L56.8096 61.3196L54.909 61.7904L52.8966 62.2611L50.5487 62.8496L49.5425 63.0849L48.0891 63.438L46.6357 63.7911L45.1823 64.1441L43.7289 64.4972L42.2754 64.8503L40.822 65.2033L39.3686 65.5564L37.468 66.0271L36.0146 66.3802L34.5611 66.7333L33.5549 66.9686L32.1015 67.3217L29.7537 67.9101L27.7413 68.3809L24.8344 69.087L22.9338 69.5578L20.4742 70.1462L18.5735 70.617L17.1201 70.97L15.6667 71.3231L14.2133 71.6762Z" fill="white" fill-opacity="0.8"/>
</g>
<defs>
<filter id="filter0_b_6776_322" x="2.13672" y="43.8594" width="106.52" height="56.3086" filterUnits="userSpaceOnUse" color-interpolation-filters="sRGB">
<feFlood flood-opacity="0" result="BackgroundImageFix"/>
<feGaussianBlur in="BackgroundImageFix" stdDeviation="4"/>
<feComposite in2="SourceAlpha" operator="in" result="effect1_backgroundBlur_6776_322"/>
<feBlend mode="normal" in="SourceGraphic" in2="effect1_backgroundBlur_6776_322" result="shape"/>
</filter>
</defs>
</svg>
