<svg width="669" height="208" viewBox="0 0 669 208" fill="none" xmlns="http://www.w3.org/2000/svg">
<path d="M269.36 159V47H340.88V62.52H288.56V95.32H331.28V110.52H288.56V159H269.36ZM356.689 159V78.36H373.809L375.569 93.4C377.489 89.88 379.889 86.8933 382.769 84.44C385.649 81.88 389.009 79.9067 392.849 78.52C396.795 77.1333 401.115 76.44 405.809 76.44V96.76H399.089C395.889 96.76 392.849 97.1867 389.969 98.04C387.089 98.7867 384.582 100.067 382.449 101.88C380.422 103.587 378.822 105.987 377.649 109.08C376.475 112.067 375.889 115.853 375.889 120.44V159H356.689ZM456.164 160.92C448.484 160.92 441.55 159.16 435.364 155.64C429.284 152.013 424.484 147.053 420.964 140.76C417.55 134.36 415.844 127.053 415.844 118.84C415.844 110.413 417.604 103.053 421.124 96.76C424.644 90.36 429.444 85.4 435.524 81.88C441.71 78.2533 448.644 76.44 456.324 76.44C464.004 76.44 470.884 78.2533 476.964 81.88C483.15 85.4 487.95 90.3067 491.364 96.6C494.884 102.893 496.644 110.253 496.644 118.68C496.644 127.107 494.884 134.467 491.364 140.76C487.844 147.053 482.99 152.013 476.804 155.64C470.724 159.16 463.844 160.92 456.164 160.92ZM456.164 144.44C460.004 144.44 463.47 143.48 466.564 141.56C469.764 139.64 472.324 136.76 474.244 132.92C476.164 129.08 477.124 124.333 477.124 118.68C477.124 113.027 476.164 108.333 474.244 104.6C472.43 100.76 469.924 97.88 466.724 95.96C463.63 94.04 460.164 93.08 456.324 93.08C452.59 93.08 449.124 94.04 445.924 95.96C442.724 97.88 440.164 100.76 438.244 104.6C436.324 108.333 435.364 113.027 435.364 118.68C435.364 124.333 436.324 129.08 438.244 132.92C440.164 136.76 442.67 139.64 445.764 141.56C448.964 143.48 452.43 144.44 456.164 144.44ZM515.439 159V78.36H532.399L533.839 91.8C536.292 87.1067 539.812 83.3733 544.399 80.6C548.985 77.8267 554.425 76.44 560.719 76.44C567.225 76.44 572.772 77.8267 577.359 80.6C581.945 83.2667 585.465 87.2133 587.919 92.44C590.479 97.6667 591.759 104.173 591.759 111.96V159H572.559V113.72C572.559 107 571.065 101.827 568.079 98.2C565.092 94.5733 560.665 92.76 554.799 92.76C550.959 92.76 547.492 93.6667 544.399 95.48C541.412 97.2933 539.012 99.96 537.199 103.48C535.492 106.893 534.639 111.053 534.639 115.96V159H515.439ZM647.041 159C641.601 159 636.855 158.147 632.801 156.44C628.855 154.733 625.761 151.907 623.521 147.96C621.281 144.013 620.161 138.68 620.161 131.96V94.52H606.401V78.36H620.161L622.401 57.08H639.361V78.36H661.281V94.52H639.361V131.96C639.361 136.013 640.215 138.84 641.921 140.44C643.735 141.933 646.721 142.68 650.881 142.68H660.801V159H647.041Z" fill="white"/>
<path d="M86.0645 24H182.563V24.034C206.193 24.034 218 36.0264 218 60.0281V102.299C218 106.296 217.715 107.164 215.471 109.443L138.953 181.431C136.708 183.711 135.871 184 131.935 184H35.4374C11.8069 184 0 171.991 0 148.006V105.718C0 101.721 0.284704 100.853 2.52885 98.5737L79.0306 26.5686C81.2748 24.2892 82.1289 24 86.0645 24Z" fill="#7A5CFF"/>
<path d="M99.8625 72.8823C99.5408 72.9479 99.0419 73.0648 99.0419 73.0648L98.6772 73.1561L97.3096 73.5211L96.7626 73.7036L96.3067 73.8861L95.4861 74.251L94.8479 74.616L93.845 75.2548L92.8421 76.1673L91.9304 77.2623L91.201 78.4485L90.654 79.5435L90.1069 80.9123L89.6511 82.3722C89.6511 82.3722 89.3952 83.2547 89.2864 83.8322C89.1865 84.3622 89.1759 84.6665 89.104 85.201C88.9986 85.9851 88.9141 86.4217 88.8305 87.2085C88.7136 88.3092 88.7044 88.9316 88.6481 90.0372C88.6028 90.9276 88.5926 91.4275 88.557 92.3184C88.5214 93.2093 88.49 93.7084 88.4658 94.5997C88.4146 96.4876 88.4658 97.5472 88.4658 99.4359V103.451V107.101V111.893V114.036L88.6481 117.686L88.7393 119.328C88.7393 119.328 88.9022 122.124 89.1952 123.891C89.3439 124.787 89.4015 125.298 89.6511 126.172C89.9237 127.126 90.1271 127.653 90.5628 128.544C90.8499 129.132 91.0157 129.463 91.3833 130.004C91.5836 130.299 91.7062 130.458 91.9304 130.734C92.2004 131.068 92.3496 131.259 92.6598 131.556C92.9896 131.871 93.1963 132.026 93.5715 132.286C93.9785 132.567 94.6656 132.924 94.6656 132.924L95.942 133.563L97.5831 134.202L99.4978 134.749L101.321 135.114L102.871 135.297L105.789 135.571L109.983 135.844C109.983 135.844 113.761 135.92 116.182 135.936C118.105 135.948 119.184 135.975 121.106 135.936C123.458 135.888 124.774 135.783 127.123 135.662C129.581 135.535 130.96 135.478 133.414 135.297C136.767 135.049 138.639 134.812 141.985 134.476C143.373 134.336 145.54 134.111 145.54 134.111V149.167V149.258C145.54 149.258 144.874 149.37 144.446 149.441C143.557 149.587 143.059 149.675 142.167 149.806C141.077 149.965 140.459 150.038 139.375 150.166L139.341 150.171C137.989 150.331 137.228 150.384 135.876 150.536C134.665 150.671 133.988 150.767 132.776 150.901C131.744 151.014 131.165 151.077 130.132 151.174C128.851 151.295 128.133 151.354 126.85 151.448C125.747 151.529 125.128 151.566 124.023 151.631C122.635 151.712 121.857 151.752 120.468 151.813C119.542 151.853 119.024 151.895 118.097 151.904C117.777 151.907 117.277 151.904 117.277 151.904C117.277 151.904 115.277 151.981 113.994 151.995C113.104 152.006 112.605 151.995 111.715 151.995C111.252 151.995 110.993 151.998 110.53 151.995C108.998 151.987 108.141 151.907 106.609 151.904C106.502 151.904 106.443 151.905 106.336 151.904C105.516 151.9 105.414 151.884 104.239 151.813L101.23 151.631C100.055 151.559 100.007 151.523 99.2242 151.448C98.5118 151.38 98.1118 151.347 97.4008 151.266C96.5802 151.172 96.1211 151.111 95.3038 150.992C94.626 150.893 94.2474 150.828 93.5715 150.718C93.144 150.648 92.9031 150.616 92.4774 150.536C91.9764 150.441 91.6973 150.378 91.201 150.262C90.52 150.102 90.1421 149.995 89.4687 149.806C88.6447 149.573 88.1841 149.437 87.3717 149.167C86.7625 148.964 86.4206 148.851 85.8218 148.619C84.6177 148.154 83.9514 147.859 82.8131 147.251C82.3067 146.98 81.5366 146.521 81.5366 146.521C81.5366 146.521 80.5133 145.886 79.8955 145.426C79.1862 144.897 78.8136 144.565 78.1632 143.966C77.5708 143.419 77.2406 143.107 76.7044 142.506C76.0548 141.776 75.7339 141.321 75.1782 140.532L75.1545 140.498C74.6652 139.803 74.3981 139.407 73.9692 138.673C73.543 137.944 73.3219 137.523 72.9663 136.757C72.5634 135.889 72.3805 135.381 72.0568 134.482L72.0546 134.476C71.6498 133.352 71.4481 132.711 71.1429 131.556C70.8446 130.427 70.721 129.783 70.5047 128.636C70.344 127.784 70.27 127.303 70.14 126.446C69.9783 125.379 69.8883 124.781 69.7753 123.708C69.6854 122.855 69.6641 122.373 69.5929 121.518C69.4861 120.235 69.4071 119.518 69.3194 118.233C69.227 116.88 69.1893 116.121 69.1371 114.766C69.0712 113.056 69.0769 112.096 69.0459 110.386C69.0006 107.891 68.967 106.493 68.9547 103.998C68.9482 102.68 68.9308 101.94 68.9547 100.622C68.9857 98.9104 69.0651 97.9526 69.1371 96.2421C69.2075 94.5673 69.219 93.6268 69.3194 91.9534C69.405 90.5266 69.4704 89.7276 69.5929 88.3034C69.7464 86.5194 69.8218 85.5172 70.0488 83.741C70.204 82.5262 70.2882 81.8438 70.5047 80.6385C70.7431 79.3108 70.8831 78.5647 71.234 77.2623C71.4569 76.4351 71.6057 75.9777 71.8723 75.1635C72.202 74.1567 72.3832 73.5892 72.784 72.6086C73.0495 71.9589 73.2064 71.5972 73.5134 70.9661C73.8131 70.3497 74.0491 69.9137 74.3339 69.4148L75.0633 68.1373C75.3482 67.6385 75.6621 67.2938 76.0662 66.7686C76.5141 66.1866 76.7593 65.8536 77.2515 65.3086C77.7242 64.7852 78.5279 64.0311 78.5279 64.0311L78.9838 63.5749C78.9838 63.5749 79.5831 63.0592 79.9867 62.7536C80.4356 62.4136 80.7038 62.2453 81.1719 61.9324C81.6647 61.603 81.9374 61.4115 82.4484 61.1111C82.9703 60.8043 83.2744 60.6517 83.816 60.3811C84.3433 60.1177 84.6422 59.9755 85.1836 59.7424C85.8152 59.4704 86.1778 59.3371 86.8247 59.1037C87.4602 58.8743 87.7893 58.7343 88.4658 58.5562L90.1981 58.0999C90.8746 57.9217 91.3054 57.8047 92.0216 57.6437C92.7301 57.4843 93.1303 57.4073 93.845 57.2787C94.7669 57.1128 95.289 57.0507 96.2155 56.9137C96.9627 56.8032 97.3805 56.7318 98.1302 56.6399C99.3012 56.4963 99.9627 56.4582 101.139 56.3662C102.206 56.2827 102.805 56.2419 103.874 56.1837C104.657 56.141 105.096 56.1233 105.88 56.0924C107.055 56.0461 108.889 56.0012 108.889 56.0012H111.533C111.889 56.0012 112.088 55.9985 112.444 56.0012C113.584 56.0097 114.223 56.0487 115.362 56.0924C116.181 56.1239 116.641 56.1338 117.459 56.1837C118.35 56.238 118.849 56.2861 119.738 56.3662C121.093 56.4882 121.854 56.5504 123.203 56.7312C124.131 56.8556 124.652 56.9278 125.573 57.0962C126.576 57.2795 127.132 57.4173 128.126 57.6437C129.162 57.8795 129.749 57.9904 130.77 58.2824C131.452 58.4774 131.833 58.5959 132.503 58.8299C133.333 59.12 133.793 59.2996 134.599 59.6512C135.213 59.9186 135.558 60.0692 136.149 60.3811C136.884 60.7684 137.284 61.0125 137.973 61.4761C138.523 61.8459 138.83 62.0574 139.341 62.4799C139.748 62.8176 139.952 63.036 140.343 63.3924C140.735 63.7487 140.98 63.9229 141.346 64.3049C141.732 64.7062 141.91 64.9655 142.258 65.3999C142.623 65.8559 142.831 66.1103 143.17 66.5861C143.468 67.0045 143.635 67.2404 143.899 67.6811C144.129 68.0639 144.24 68.2889 144.446 68.6848C144.63 69.0381 144.733 69.2368 144.902 69.5973C145.051 69.9149 145.267 70.4186 145.267 70.4186L145.358 70.6011C145.358 70.6011 145.531 70.9876 145.631 71.2398C145.839 71.7635 146.087 72.6086 146.087 72.6086L146.634 74.251C146.634 74.251 146.87 75.026 146.999 75.5285C147.117 75.989 147.273 76.7148 147.273 76.7148C147.273 76.7148 147.437 77.4939 147.546 77.9923C147.616 78.3132 147.662 78.4917 147.728 78.8135C147.91 79.6973 148.093 81.0947 148.093 81.0947L148.549 85.1097L148.914 90.7672C148.914 90.7672 149.083 93.8247 149.096 95.7859C149.099 96.2135 149.096 96.8809 149.096 96.8809L149.187 100.166V103.268V105.732V110.386H135.42H131.317H130.588V109.382V108.013V105.641V103.268V101.535V99.2534V97.2459C130.588 97.2459 130.603 95.8554 130.588 94.9647C130.571 93.9664 130.497 92.4097 130.497 92.4097L130.406 90.1284L130.223 88.2122C130.223 88.2122 130.09 86.8172 129.95 85.931C129.831 85.1785 129.735 84.7616 129.585 84.0147C129.449 83.3364 129.383 82.9536 129.22 82.281C129.09 81.7433 129.028 81.4379 128.856 80.9123C128.701 80.4406 128.581 80.1879 128.4 79.726C128.259 79.3688 128.035 78.8135 128.035 78.8135C128.035 78.8135 127.671 78.1308 127.397 77.7185C127.074 77.2318 126.485 76.5323 126.485 76.5323L125.3 75.346C125.3 75.346 124.975 75.0575 124.753 74.8898C124.382 74.6098 124.155 74.4784 123.75 74.251C123.403 74.0561 123.203 73.9543 122.838 73.7948C122.353 73.5827 122.068 73.4934 121.562 73.3386C121 73.1668 120.103 72.9736 120.103 72.9736L118.188 72.6086L116.182 72.3348L113.994 72.1523C113.994 72.1523 112.494 72.0789 111.533 72.0611C110.571 72.0433 110.032 72.0466 109.071 72.0611C107.967 72.0777 107.347 72.0947 106.245 72.1523L106.231 72.153C105.667 72.1825 105.174 72.2082 104.786 72.2436C104.786 72.2436 104.174 72.2973 103.783 72.3348C103.427 72.3689 103.227 72.3855 102.871 72.4261C102.871 72.4261 102.426 72.479 102.142 72.5173C101.892 72.5509 101.753 72.5729 101.504 72.6086C101.254 72.6442 101.114 72.6605 100.865 72.6998C100.472 72.7619 100.253 72.8027 99.8625 72.8823Z" fill="white"/>
<g opacity="0.9" filter="url(#filter0_b_1937_85)">
<path d="M79.9368 111.492L79.1585 111.674L77.7748 112.039C77.7748 112.039 76.9765 112.311 76.8234 112.768C76.7334 113.036 76.8234 113.496 76.8234 113.496L76.9964 114.225L77.2558 115.501L77.5153 116.685L77.6883 117.414L77.9477 118.599L78.2072 119.783L78.4666 120.968L78.7261 122.152L78.899 122.972L79.1585 124.157L79.5044 125.706L79.6774 126.434C79.6774 126.434 79.7841 126.805 79.9368 126.981C80.1612 127.24 80.3871 127.403 80.7152 127.346C81.2341 127.255 81.926 127.072 81.926 127.072L83.4827 126.708L84.6935 126.434L86.6826 125.979L88.2393 125.614L89.796 125.25L91.7851 124.794L93.6878 124.339L94.8985 124.066L96.1093 123.792L97.3201 123.519L99.2227 123.063L101.212 122.608L102.769 122.243L104.412 121.879L105.882 121.514L107.871 121.059L109.428 120.694L111.849 120.148L113.752 119.692L115.828 119.237L117.384 118.872L118.941 118.508L120.065 118.234L121.276 117.961L122.487 117.688L123.611 117.414L124.822 117.141L125.946 116.868L127.157 116.594L128.368 116.321L129.579 116.048L131.135 115.683L132.346 115.41L133.903 115.045L135.027 114.772L136.584 114.408L137.794 114.134L139.005 113.861L140.562 113.496L142.119 113.132L144.108 112.676L145.665 112.312C145.665 112.312 146.01 112.221 146.27 112.13C146.59 112.017 146.718 111.749 146.789 111.401C146.824 111.227 146.789 110.945 146.789 110.945L146.443 109.123L146.097 107.301L145.665 104.932L145.319 103.11L144.973 101.196L144.627 99.3739L144.281 97.5516L144.108 96.8228C144.027 96.481 143.82 96.2963 143.502 96.1849C143.278 96.1061 142.897 96.1849 142.897 96.1849L142.465 96.276L141.081 96.6405L138.832 97.1872L136.411 97.7338L133.903 98.3716L132.778 98.645L132 98.8272L130.876 99.1005L129.751 99.3739L128.627 99.6472L127.849 99.8294L126.725 100.103L125.6 100.376L124.476 100.649L123.352 100.923L122.227 101.196L121.103 101.469L119.979 101.743L118.509 102.107L117.038 102.472L115.482 102.836L114.357 103.11L112.887 103.474L111.417 103.838L109.86 104.203L108.044 104.658L107.266 104.841L106.141 105.114L105.017 105.387L103.893 105.661L102.769 105.934L101.644 106.207L100.52 106.481L99.3957 106.754L97.9255 107.118L96.8012 107.392L95.6769 107.665L94.8985 107.847L93.7742 108.121L91.9581 108.576L90.4014 108.941L88.1528 109.487L86.6826 109.852L84.7799 110.307L83.3097 110.672L82.1854 110.945L81.0611 111.219L79.9368 111.492Z" fill="white" fill-opacity="0.8"/>
</g>
<defs>
<filter id="filter0_b_1937_85" x="68.7834" y="88.1499" width="86.0211" height="47.2075" filterUnits="userSpaceOnUse" color-interpolation-filters="sRGB">
<feFlood flood-opacity="0" result="BackgroundImageFix"/>
<feGaussianBlur in="BackgroundImageFix" stdDeviation="4"/>
<feComposite in2="SourceAlpha" operator="in" result="effect1_backgroundBlur_1937_85"/>
<feBlend mode="normal" in="SourceGraphic" in2="effect1_backgroundBlur_1937_85" result="shape"/>
</filter>
</defs>
</svg>
