<svg width="666" height="631" viewBox="0 0 666 631" fill="none" xmlns="http://www.w3.org/2000/svg">
<g clip-path="url(#clip0_10011_145)">
<g filter="url(#filter0_f_10011_145)">
<path d="M333.144 427.969C426.465 427.969 502.116 369.053 502.116 296.375C502.116 223.698 426.465 164.781 333.144 164.781C239.823 164.781 164.172 223.698 164.172 296.375C164.172 369.053 239.823 427.969 333.144 427.969Z" fill="#0F39C2"/>
</g>
<path d="M573.291 401.855H93V415.168H573.291V401.855Z" fill="url(#paint0_linear_10011_145)"/>
<path d="M147.735 393.113H519.416L573.291 401.818H93L147.735 393.113Z" fill="url(#paint1_linear_10011_145)"/>
<g filter="url(#filter1_i_10011_145)">
<path d="M514.406 393.241C514.406 396.628 506.153 397.758 495.972 397.758C485.792 397.758 477.539 396.628 477.539 393.241C477.539 384.99 485.792 378.301 495.972 378.301C506.153 378.301 514.406 384.99 514.406 393.241Z" fill="url(#paint2_radial_10011_145)"/>
</g>
<path d="M475.237 219.572H190.539C189.975 219.572 189.518 220.029 189.518 220.593V369.602C189.518 370.166 189.975 370.623 190.539 370.623H475.237C475.801 370.623 476.259 370.166 476.259 369.602V220.593C476.259 220.029 475.801 219.572 475.237 219.572Z" fill="black" stroke="black" stroke-width="0.512037"/>
<path d="M466.532 228.02H199.242C198.537 228.02 197.965 228.591 197.965 229.297V360.896C197.965 361.602 198.537 362.174 199.242 362.174H466.532C467.237 362.174 467.809 361.602 467.809 360.896V229.297C467.809 228.591 467.237 228.02 466.532 228.02Z" fill="#1336A5"/>
<g filter="url(#filter2_f_10011_145)">
<path d="M466.532 228.02H199.242C198.537 228.02 197.965 228.591 197.965 229.297V360.896C197.965 361.602 198.537 362.174 199.242 362.174H466.532C467.237 362.174 467.809 361.602 467.809 360.896V229.297C467.809 228.591 467.237 228.02 466.532 228.02Z" fill="#1336A5"/>
</g>
<g filter="url(#filter3_d_10011_145)">
<path d="M471.011 367.292C471.648 367.292 472.164 366.777 472.164 366.14C472.164 365.504 471.648 364.988 471.011 364.988C470.375 364.988 469.859 365.504 469.859 366.14C469.859 366.777 470.375 367.292 471.011 367.292Z" fill="#234FDE"/>
</g>
<g filter="url(#filter4_d_10011_145)">
<mask id="mask0_10011_145" style="mask-type:luminance" maskUnits="userSpaceOnUse" x="226" y="249" width="215" height="91">
<path d="M438.883 249.781H227.406C226.701 249.781 226.129 250.353 226.129 251.058V338.623C226.129 339.328 226.701 339.9 227.406 339.9H438.883C439.588 339.9 440.16 339.328 440.16 338.623V251.058C440.16 250.353 439.588 249.781 438.883 249.781Z" fill="white"/>
</mask>
<g mask="url(#mask0_10011_145)">
<path d="M440.16 249.781H226.129V258.998H440.16V249.781Z" fill="#272727"/>
<path d="M440.16 249.781H226.129V258.998H440.16V249.781Z" fill="#091848"/>
<path d="M440.16 258.996H226.129V339.898H440.16V258.996Z" fill="white"/>
<path d="M410.974 258.996H255.315V339.898H410.974V258.996Z" fill="#C0C0C0"/>
<path d="M244.564 249.781H235.348V258.998H244.564V249.781Z" fill="#2467B6"/>
<path d="M434.528 251.828H428.896C427.765 251.828 426.848 252.745 426.848 253.876V254.9C426.848 256.032 427.765 256.948 428.896 256.948H434.528C435.659 256.948 436.576 256.032 436.576 254.9V253.876C436.576 252.745 435.659 251.828 434.528 251.828Z" fill="#2467B6"/>
<path d="M421.728 256.948C423.142 256.948 424.288 255.802 424.288 254.388C424.288 252.974 423.142 251.828 421.728 251.828C420.314 251.828 419.168 252.974 419.168 254.388C419.168 255.802 420.314 256.948 421.728 256.948Z" fill="#D9D9D9"/>
</g>
</g>
<g filter="url(#filter5_d_10011_145)">
<path d="M366.173 273.336H296.023V296.378H366.173V273.336Z" fill="#00071F"/>
</g>
<g filter="url(#filter6_i_10011_145)">
<path d="M247.415 513.909C251.5 521.767 268.851 532.921 282.005 532.921H364.101H400.988C411.826 532.921 411.741 541.54 419.351 529.119C426.961 516.697 431.437 503.426 429.131 493.793C427.747 484.667 436.511 479.179 447.811 440.14C451.731 387.665 413.369 329.971 396.996 304.621C389.429 292.906 371.847 291.566 366.491 291.566C354.404 290.023 340.709 287.047 328.534 287.47L327.83 287.495C317.55 287.852 307.694 288.194 299.762 289.307C267.247 293.87 247.415 334.937 237.96 353.696C228.505 372.455 218.358 388.426 217.897 397.805C217.436 407.185 232.656 485.517 247.415 513.909Z" fill="url(#paint3_linear_10011_145)"/>
</g>
<mask id="mask1_10011_145" style="mask-type:alpha" maskUnits="userSpaceOnUse" x="217" y="287" width="232" height="249">
<path d="M247.415 513.909C251.5 521.767 268.851 532.921 282.005 532.921H364.101H400.988C411.826 532.921 411.741 541.54 419.351 529.119C426.961 516.697 431.437 503.426 429.131 493.793C427.747 484.667 436.511 479.179 447.811 440.14C451.731 387.665 413.369 329.971 396.996 304.621C389.429 292.906 371.847 291.566 366.491 291.566C354.404 290.023 340.709 287.047 328.534 287.47L327.83 287.495C317.55 287.852 307.694 288.194 299.762 289.307C267.247 293.87 247.415 334.937 237.96 353.696C228.505 372.455 218.358 388.426 217.897 397.805C217.436 407.185 232.656 485.517 247.415 513.909Z" fill="url(#paint4_linear_10011_145)"/>
</mask>
<g mask="url(#mask1_10011_145)">
<g filter="url(#filter7_f_10011_145)">
<path d="M384.963 292.38L359.71 286.12L384.963 278.681L411.784 299.544L445.695 374.596L409.296 321.754L384.963 292.38Z" fill="white"/>
</g>
<g filter="url(#filter8_f_10011_145)">
<path d="M285.416 290.144L299.944 286.632L277.988 278.68L251.167 299.542L219.484 375.393L253.655 321.753L285.416 290.144Z" fill="white"/>
</g>
<g opacity="0.21" filter="url(#filter9_f_10011_145)">
<path d="M248.533 439.818C247.014 449.188 256.944 465.781 262.1 472.907C263.484 478.221 282.046 473.486 291.155 470.454L324.037 333.215C313.388 333.074 291.18 333.359 287.547 335.625C283.006 338.457 271.188 349.454 268.457 359.238C265.727 369.022 268.437 376.895 270.027 381.1C271.617 385.305 267.054 393.752 267.099 398.359C267.144 402.967 254.515 410.215 252.431 414.882C250.347 419.549 250.431 428.106 248.533 439.818Z" fill="url(#paint5_linear_10011_145)"/>
</g>
<g opacity="0.21" filter="url(#filter10_f_10011_145)">
<path d="M361.695 303.407C356.833 295.254 338.558 288.931 330.028 286.788C325.551 283.608 314.379 299.17 309.353 307.349L372.411 433.601C380.658 426.861 397.483 412.364 398.808 408.292C400.465 403.203 402.446 387.182 398.246 377.933C394.046 368.683 386.909 364.397 382.987 362.198C379.066 360 377.129 350.597 374.132 347.097C371.135 343.597 376.147 329.925 374.742 325.011C373.337 320.097 367.771 313.598 361.695 303.407Z" fill="url(#paint6_linear_10011_145)"/>
</g>
<g opacity="0.21" filter="url(#filter11_f_10011_145)">
<path d="M374.588 364.137C368.982 356.476 350.194 351.897 341.5 350.564C336.745 347.818 327.083 364.361 322.847 372.975L397.48 492.749C405.057 485.265 420.447 469.252 421.384 465.075C422.556 459.852 423.024 443.716 417.974 434.902C412.924 426.088 405.416 422.49 401.305 420.67C397.195 418.849 394.384 409.669 391.072 406.466C387.759 403.263 391.466 389.181 389.606 384.421C387.746 379.66 381.594 373.712 374.588 364.137Z" fill="url(#paint7_linear_10011_145)"/>
</g>
</g>
<g filter="url(#filter12_f_10011_145)">
<path d="M430.497 420.227C413.234 373.289 387.508 339.288 371.124 319.117C370.017 312.553 383.369 313.209 396.567 329.885C402.147 336.935 403.612 348.52 408.969 362.876C425.786 390.426 432.106 424.602 430.497 420.227Z" fill="url(#paint8_linear_10011_145)" fill-opacity="0.5"/>
</g>
<g filter="url(#filter13_f_10011_145)">
<path d="M349.107 358.038C243.516 382.718 260.691 328.004 245.704 317.047C245.001 313.152 320.774 287.588 332.821 296.673C347.88 308.029 355.95 356.439 349.107 358.038Z" fill="url(#paint9_linear_10011_145)"/>
</g>
<g filter="url(#filter14_f_10011_145)">
<path d="M240.556 436.692C228.192 390.128 266.793 334.406 272.961 319.039C272.13 315.07 232.865 375.74 227.999 388.359C221.917 404.133 241.658 440.841 240.556 436.692Z" fill="url(#paint10_linear_10011_145)"/>
</g>
<g filter="url(#filter15_i_10011_145)">
<path d="M390.063 280.948C380.416 284.506 273.966 288.055 270.536 283.783C267.647 280.778 270.878 276.604 273.638 274.234C276.399 271.864 284.717 256.301 288.406 249.043C291.147 243.651 323.463 178.379 336.464 136.242C337.1 134.178 338.852 124.661 341.431 129.722C342.552 133.793 368.653 231.262 372.753 242.177C376.854 253.092 389.638 263.032 393.08 267.816C397.313 273.698 398.936 277.153 390.063 280.948Z" fill="url(#paint11_linear_10011_145)"/>
</g>
<mask id="mask2_10011_145" style="mask-type:alpha" maskUnits="userSpaceOnUse" x="269" y="128" width="128" height="158">
<path d="M390.063 280.948C380.416 284.506 273.966 288.055 270.536 283.783C267.647 280.778 270.878 276.604 273.638 274.234C276.399 271.864 284.717 256.301 288.406 249.043C291.147 243.651 323.463 178.379 336.464 136.242C337.1 134.178 338.852 124.661 341.431 129.722C342.552 133.793 368.653 231.262 372.753 242.177C376.854 253.092 389.638 263.032 393.08 267.816C397.313 273.698 398.936 277.153 390.063 280.948Z" fill="url(#paint12_linear_10011_145)"/>
</mask>
<g mask="url(#mask2_10011_145)">
<g style="mix-blend-mode:overlay">
<path d="M381.707 238.322C382.342 237.078 381.947 235.592 380.741 234.759C370.086 227.165 369.283 224.774 373.683 213.042C374.18 211.685 373.613 210.154 372.37 209.52C371.111 208.877 369.582 209.316 368.739 210.497C361.579 220.733 359.536 221.411 347.003 217.54C345.612 217.112 344.194 217.63 343.569 218.857C342.925 220.118 343.328 221.586 344.517 222.454C355.172 230.004 355.975 232.395 351.584 244.11C351.086 245.511 351.628 247.007 352.905 247.658C354.148 248.293 355.659 247.888 356.519 246.672C363.723 236.437 365.739 235.768 378.255 239.673C379.681 240.075 381.09 239.531 381.707 238.322Z" fill="white" fill-opacity="0.4"/>
<path d="M319.266 166.392C319.9 165.148 319.506 163.663 318.3 162.829C307.645 155.236 306.842 152.845 311.242 141.113C311.739 139.755 311.171 138.224 309.929 137.59C308.669 136.947 307.14 137.386 306.298 138.567C299.138 148.804 297.095 149.481 284.562 145.61C283.17 145.183 281.753 145.701 281.127 146.927C280.484 148.188 280.887 149.656 282.075 150.524C292.731 158.075 293.533 160.465 289.142 172.18C288.645 173.581 289.187 175.077 290.464 175.729C291.706 176.363 293.218 175.959 294.078 174.743C301.281 164.507 303.298 163.838 315.813 167.744C317.24 168.145 318.648 167.601 319.266 166.392Z" fill="white" fill-opacity="0.4"/>
<path d="M273.648 183.169C274.283 181.926 273.889 180.44 272.682 179.607C262.027 172.013 261.225 169.622 265.625 157.89C266.122 156.532 265.554 155.002 264.312 154.368C263.052 153.725 261.523 154.163 260.681 155.345C253.52 165.581 251.478 166.259 238.945 162.387C237.553 161.96 236.136 162.478 235.51 163.704C234.866 164.965 235.27 166.434 236.458 167.302C247.114 174.852 247.916 177.243 243.525 188.958C243.028 190.359 243.57 191.854 244.847 192.506C246.089 193.14 247.601 192.736 248.46 191.52C255.664 181.284 257.681 180.615 270.196 184.521C271.623 184.922 273.031 184.379 273.648 183.169Z" fill="white" fill-opacity="0.4"/>
<path d="M373.297 193.97C373.932 192.727 373.537 191.241 372.331 190.407C361.676 182.814 360.873 180.423 365.273 168.691C365.77 167.333 365.203 165.803 363.96 165.168C362.7 164.525 361.171 164.964 360.329 166.146C353.169 176.382 351.126 177.059 338.593 173.188C337.201 172.761 335.784 173.279 335.158 174.505C334.515 175.766 334.918 177.235 336.107 178.102C346.762 185.653 347.565 188.044 343.174 199.759C342.676 201.159 343.218 202.655 344.495 203.307C345.737 203.941 347.249 203.537 348.109 202.321C355.313 192.085 357.329 191.416 369.845 195.322C371.271 195.723 372.68 195.179 373.297 193.97Z" fill="white" fill-opacity="0.4"/>
<path d="M413.336 176.345C413.971 175.102 413.576 173.616 412.37 172.782C401.715 165.189 400.912 162.798 405.312 151.066C405.809 149.708 405.242 148.178 403.999 147.543C402.74 146.9 401.21 147.339 400.368 148.521C393.208 158.757 391.165 159.434 378.632 155.563C377.241 155.136 375.823 155.654 375.197 156.88C374.554 158.141 374.957 159.61 376.146 160.477C386.801 168.028 387.604 170.419 383.213 182.134C382.715 183.534 383.257 185.03 384.534 185.682C385.777 186.316 387.288 185.912 388.148 184.696C395.352 174.46 397.368 173.791 409.884 177.697C411.31 178.098 412.719 177.554 413.336 176.345Z" fill="white" fill-opacity="0.4"/>
<path d="M348.047 304.271C348.682 303.027 348.287 301.541 347.081 300.708C336.426 293.115 335.623 290.724 340.023 278.992C340.52 277.634 339.953 276.103 338.71 275.469C337.45 274.826 335.921 275.265 335.079 276.446C327.919 286.683 325.876 287.36 313.343 283.489C311.951 283.062 310.534 283.579 309.908 284.806C309.265 286.067 309.668 287.535 310.857 288.403C321.512 295.954 322.315 298.344 317.924 310.059C317.426 311.46 317.968 312.956 319.245 313.608C320.487 314.242 321.999 313.838 322.859 312.622C330.063 302.386 332.079 301.717 344.595 305.622C346.021 306.024 347.43 305.48 348.047 304.271Z" fill="white" fill-opacity="0.4"/>
<path d="M285.609 232.337C286.244 231.094 285.85 229.608 284.643 228.775C273.988 221.181 273.186 218.79 277.586 207.058C278.083 205.7 277.515 204.17 276.273 203.536C275.013 202.893 273.484 203.331 272.642 204.513C265.481 214.749 263.439 215.426 250.906 211.555C249.514 211.128 248.097 211.646 247.471 212.872C246.827 214.133 247.231 215.602 248.419 216.47C259.075 224.02 259.877 226.411 255.486 238.126C254.989 239.527 255.53 241.022 256.807 241.674C258.05 242.308 259.561 241.904 260.421 240.688C267.625 230.452 269.641 229.783 282.157 233.689C283.583 234.09 284.992 233.547 285.609 232.337Z" fill="white" fill-opacity="0.4"/>
<path d="M305.277 121.193C305.912 119.949 305.517 118.463 304.311 117.63C293.656 110.036 292.854 107.646 297.254 95.9133C297.751 94.5558 297.183 93.0252 295.941 92.391C294.681 91.748 293.152 92.1868 292.31 93.3682C285.149 103.604 283.107 104.282 270.574 100.411C269.182 99.9835 267.765 100.501 267.139 101.728C266.495 102.989 266.899 104.457 268.087 105.325C278.743 112.875 279.545 115.266 275.154 126.981C274.657 128.382 275.198 129.878 276.475 130.529C277.718 131.164 279.229 130.759 280.089 129.544C287.293 119.308 289.309 118.639 301.825 122.544C303.251 122.946 304.66 122.402 305.277 121.193Z" fill="white" fill-opacity="0.4"/>
<path d="M404.926 131.994C405.56 130.75 405.166 129.264 403.96 128.431C393.305 120.837 392.502 118.446 396.902 106.714C397.399 105.357 396.832 103.826 395.589 103.192C394.329 102.549 392.8 102.988 391.958 104.169C384.798 114.405 382.755 115.083 370.222 111.212C368.83 110.784 367.413 111.302 366.787 112.528C366.144 113.789 366.547 115.258 367.736 116.126C378.391 123.676 379.194 126.067 374.803 137.782C374.305 139.183 374.847 140.679 376.124 141.33C377.366 141.964 378.878 141.56 379.738 140.344C386.941 130.109 388.958 129.439 401.473 133.345C402.9 133.747 404.309 133.203 404.926 131.994Z" fill="white" fill-opacity="0.4"/>
<path d="M339.637 259.916C340.271 258.672 339.877 257.186 338.671 256.353C328.016 248.759 327.213 246.368 331.613 234.636C332.11 233.279 331.543 231.748 330.3 231.114C329.04 230.471 327.511 230.91 326.669 232.091C319.509 242.327 317.466 243.005 304.933 239.133C303.541 238.706 302.124 239.224 301.498 240.45C300.855 241.711 301.258 243.18 302.447 244.048C313.102 251.598 313.905 253.989 309.513 265.704C309.016 267.105 309.558 268.6 310.835 269.252C312.077 269.886 313.589 269.482 314.449 268.266C321.652 258.03 323.669 257.361 336.184 261.267C337.611 261.668 339.02 261.125 339.637 259.916Z" fill="white" fill-opacity="0.4"/>
<path d="M424.148 219.919C424.783 218.676 424.389 217.19 423.182 216.357C412.527 208.763 411.725 206.372 416.125 194.64C416.622 193.282 416.054 191.752 414.812 191.118C413.552 190.475 412.023 190.913 411.181 192.095C404.02 202.331 401.978 203.009 389.445 199.137C388.053 198.71 386.636 199.228 386.01 200.454C385.366 201.715 385.77 203.184 386.958 204.052C397.614 211.602 398.416 213.993 394.025 225.708C393.528 227.109 394.07 228.604 395.347 229.256C396.589 229.89 398.101 229.486 398.96 228.27C406.164 218.034 408.181 217.365 420.696 221.271C422.123 221.672 423.531 221.129 424.148 219.919Z" fill="white" fill-opacity="0.4"/>
<path d="M361.707 147.994C362.342 146.75 361.947 145.264 360.741 144.431C350.086 136.837 349.283 134.446 353.683 122.714C354.18 121.357 353.613 119.826 352.37 119.192C351.111 118.549 349.582 118.988 348.739 120.169C341.579 130.405 339.536 131.083 327.003 127.212C325.612 126.784 324.194 127.302 323.569 128.528C322.925 129.789 323.328 131.258 324.517 132.126C335.172 139.676 335.975 142.067 331.584 153.782C331.086 155.183 331.628 156.679 332.905 157.33C334.148 157.964 335.659 157.56 336.519 156.344C343.723 146.109 345.739 145.439 358.255 149.345C359.681 149.747 361.09 149.203 361.707 147.994Z" fill="white" fill-opacity="0.4"/>
<path d="M296.418 275.916C297.053 274.672 296.658 273.186 295.452 272.353C284.797 264.759 283.994 262.368 288.394 250.636C288.891 249.279 288.324 247.748 287.081 247.114C285.822 246.471 284.292 246.91 283.45 248.091C276.29 258.327 274.247 259.005 261.714 255.133C260.323 254.706 258.905 255.224 258.279 256.45C257.636 257.711 258.039 259.18 259.228 260.048C269.883 267.598 270.686 269.989 266.295 281.704C265.797 283.105 266.339 284.6 267.616 285.252C268.859 285.886 270.37 285.482 271.23 284.266C278.434 274.03 280.45 273.361 292.966 277.267C294.392 277.668 295.801 277.125 296.418 275.916Z" fill="white" fill-opacity="0.4"/>
<path d="M391.301 284.279C391.935 283.035 391.541 281.549 390.335 280.716C379.68 273.122 378.877 270.731 383.277 258.999C383.774 257.642 383.207 256.111 381.964 255.477C380.704 254.834 379.175 255.273 378.333 256.454C371.173 266.69 369.13 267.368 356.597 263.497C355.205 263.07 353.788 263.587 353.162 264.814C352.519 266.075 352.922 267.543 354.111 268.411C364.766 275.961 365.569 278.352 361.178 290.067C360.68 291.468 361.222 292.964 362.499 293.615C363.741 294.25 365.253 293.845 366.113 292.629C373.316 282.394 375.333 281.725 387.848 285.63C389.275 286.032 390.684 285.488 391.301 284.279Z" fill="white" fill-opacity="0.4"/>
<path d="M328.859 212.353C329.494 211.109 329.1 209.623 327.893 208.79C317.238 201.197 316.436 198.806 320.836 187.074C321.333 185.716 320.765 184.185 319.523 183.551C318.263 182.908 316.734 183.347 315.892 184.528C308.731 194.765 306.689 195.442 294.156 191.571C292.764 191.144 291.347 191.661 290.721 192.888C290.077 194.149 290.481 195.617 291.669 196.485C302.325 204.036 303.127 206.426 298.736 218.141C298.239 219.542 298.78 221.038 300.057 221.69C301.3 222.324 302.811 221.92 303.671 220.704C310.875 210.468 312.891 209.799 325.407 213.704C326.833 214.106 328.242 213.562 328.859 212.353Z" fill="white" fill-opacity="0.4"/>
</g>
</g>
<g filter="url(#filter16_f_10011_145)">
<path d="M347.301 148.736C366.767 194.804 375.073 258.288 387.564 281.076C387.473 287.732 374.192 283.486 366.362 263.714C356.121 237.856 342.552 137.496 347.301 148.736Z" fill="url(#paint13_linear_10011_145)" fill-opacity="0.6"/>
</g>
<path d="M353.851 282.509C326.17 281.996 301.912 275.424 286.294 269.239C276.566 284.6 265.21 279.465 296.713 282.244C308.359 283.272 336.621 282.857 353.851 282.509C358.386 282.593 363.012 282.514 367.708 282.244C369.367 282.149 363.251 282.319 353.851 282.509Z" fill="url(#paint14_linear_10011_145)"/>
<g filter="url(#filter17_i_10011_145)">
<path d="M274.992 385.412C276.32 371.771 287.787 361.367 301.492 361.367H364.799C378.505 361.367 389.971 371.771 391.3 385.412L403.115 506.718C403.76 513.339 398.557 519.075 391.904 519.075H274.388C267.735 519.075 262.531 513.339 263.176 506.718L274.992 385.412Z" fill="url(#paint15_linear_10011_145)"/>
</g>
<g opacity="0.27" filter="url(#filter18_df_10011_145)">
<path d="M379.614 413.123C393.4 413.123 404.576 401.947 404.576 388.161C404.576 374.375 393.4 363.199 379.614 363.199C365.828 363.199 354.652 374.375 354.652 388.161C354.652 401.947 365.828 413.123 379.614 413.123Z" fill="url(#paint16_radial_10011_145)"/>
</g>
<g filter="url(#filter19_i_10011_145)">
<path d="M177.231 395.967C183.311 395.967 188.24 395.165 188.24 394.175C188.24 393.185 183.311 392.383 177.231 392.383C171.151 392.383 166.223 393.185 166.223 394.175C166.223 395.165 171.151 395.967 177.231 395.967Z" fill="#192A64"/>
<path d="M188.24 390.849H166.223V394.433H188.24V390.849Z" fill="#192A64"/>
<path d="M177.231 392.898C183.311 392.898 188.24 392.095 188.24 391.106C188.24 390.116 183.311 389.313 177.231 389.313C171.151 389.313 166.223 390.116 166.223 391.106C166.223 392.095 171.151 392.898 177.231 392.898Z" fill="url(#paint17_linear_10011_145)"/>
<g filter="url(#filter20_di_10011_145)">
<path d="M177.23 384.702C185.572 384.702 192.335 377.94 192.335 369.597C192.335 361.255 185.572 354.492 177.23 354.492C168.888 354.492 162.125 361.255 162.125 369.597C162.125 377.94 168.888 384.702 177.23 384.702Z" fill="#B6C7FE"/>
</g>
</g>
<path d="M177.613 380.096C177.613 380.803 178.188 381.383 178.89 381.306C181.51 381.017 183.969 379.845 185.85 377.964C188.034 375.779 189.262 372.816 189.262 369.727C189.262 366.638 188.034 363.675 185.85 361.49C183.969 359.609 181.51 358.437 178.89 358.148C178.188 358.071 177.613 358.651 177.613 359.358V369.727V380.096Z" fill="url(#paint18_linear_10011_145)"/>
<path d="M494.438 379.328C494.694 369.855 498.533 346.66 511.846 329.66" stroke="url(#paint19_linear_10011_145)" stroke-width="1.02407"/>
<g filter="url(#filter21_d_10011_145)">
<path d="M145.741 279.737C146.731 279.737 147.533 278.934 147.533 277.944C147.533 276.955 146.731 276.152 145.741 276.152C144.752 276.152 143.949 276.955 143.949 277.944C143.949 278.934 144.752 279.737 145.741 279.737Z" fill="url(#paint20_radial_10011_145)"/>
</g>
<g filter="url(#filter22_d_10011_145)">
<path d="M514.702 344.863C515.711 344.719 516.431 343.859 516.42 342.789C516.467 333.245 517.555 331.762 526.399 329.452C527.417 329.178 528.091 328.196 527.946 327.189C527.8 326.167 526.895 325.44 525.837 325.435C516.725 325.47 515.462 324.537 512.501 315.439C512.17 314.429 511.266 313.802 510.272 313.945C509.249 314.091 508.544 314.949 508.526 316.022C508.505 325.549 507.417 327.032 498.588 329.34C497.543 329.632 496.88 330.584 497.028 331.619C497.172 332.627 498.049 333.358 499.135 333.359C508.265 333.35 509.512 334.271 512.445 343.373C512.806 344.393 513.722 345.004 514.702 344.863Z" fill="url(#paint21_radial_10011_145)"/>
</g>
<g filter="url(#filter23_d_10011_145)">
<path d="M495.718 296.377C496.708 296.377 497.51 295.575 497.51 294.585C497.51 293.595 496.708 292.793 495.718 292.793C494.728 292.793 493.926 293.595 493.926 294.585C493.926 295.575 494.728 296.377 495.718 296.377Z" fill="url(#paint22_radial_10011_145)"/>
</g>
<g opacity="0.5" filter="url(#filter24_df_10011_145)">
<path d="M180.045 284.598C188.811 284.598 195.918 277.491 195.918 268.725C195.918 259.958 188.811 252.852 180.045 252.852C171.278 252.852 164.172 259.958 164.172 268.725C164.172 277.491 171.278 284.598 180.045 284.598Z" fill="url(#paint23_radial_10011_145)"/>
</g>
<g filter="url(#filter25_d_10011_145)">
<path d="M171.597 258.998C172.587 258.998 173.389 258.196 173.389 257.206C173.389 256.216 172.587 255.414 171.597 255.414C170.607 255.414 169.805 256.216 169.805 257.206C169.805 258.196 170.607 258.998 171.597 258.998Z" fill="url(#paint24_radial_10011_145)"/>
</g>
<path d="M323.35 252.787C220.831 274.066 140.659 305.457 144.28 322.901C147.901 340.345 233.943 337.236 336.461 315.957C438.98 294.678 519.152 263.287 515.531 245.843C511.91 228.399 425.868 231.508 323.35 252.787Z" stroke="url(#paint25_linear_10011_145)" stroke-width="1.59642"/>
<g style="mix-blend-mode:screen" filter="url(#filter26_f_10011_145)">
<path d="M323.35 252.787C220.831 274.066 140.659 305.457 144.28 322.901C147.901 340.345 233.943 337.236 336.461 315.957C438.98 294.678 519.152 263.287 515.531 245.843C511.91 228.399 425.868 231.508 323.35 252.787Z" stroke="url(#paint26_linear_10011_145)" stroke-width="1.59642"/>
</g>
<g filter="url(#filter27_d_10011_145)">
<path d="M446.819 198.834C447.809 198.834 448.612 198.032 448.612 197.042C448.612 196.052 447.809 195.25 446.819 195.25C445.83 195.25 445.027 196.052 445.027 197.042C445.027 198.032 445.83 198.834 446.819 198.834Z" fill="url(#paint27_radial_10011_145)"/>
</g>
<g filter="url(#filter28_d_10011_145)">
<path d="M213.839 178.096C214.829 178.096 215.631 177.294 215.631 176.304C215.631 175.314 214.829 174.512 213.839 174.512C212.849 174.512 212.047 175.314 212.047 176.304C212.047 177.294 212.849 178.096 213.839 178.096Z" fill="url(#paint28_radial_10011_145)"/>
</g>
<g filter="url(#filter29_df_10011_145)">
<path d="M296.024 211.892C301.821 211.892 306.521 207.192 306.521 201.395C306.521 195.598 301.821 190.898 296.024 190.898C290.227 190.898 285.527 195.598 285.527 201.395C285.527 207.192 290.227 211.892 296.024 211.892Z" fill="url(#paint29_radial_10011_145)"/>
</g>
<g filter="url(#filter30_d_10011_145)">
<path d="M286.804 196.019C288.36 196.019 289.621 194.758 289.621 193.203C289.621 191.648 288.36 190.387 286.804 190.387C285.249 190.387 283.988 191.648 283.988 193.203C283.988 194.758 285.249 196.019 286.804 196.019Z" fill="url(#paint30_radial_10011_145)"/>
</g>
<g filter="url(#filter31_d_10011_145)">
<path d="M434.527 181.937C436.083 181.937 437.343 180.676 437.343 179.121C437.343 177.566 436.083 176.305 434.527 176.305C432.972 176.305 431.711 177.566 431.711 179.121C431.711 180.676 432.972 181.937 434.527 181.937Z" fill="url(#paint31_radial_10011_145)"/>
</g>
<g opacity="0.27" filter="url(#filter32_df_10011_145)">
<path d="M429.282 187.568C443.068 187.568 454.244 176.392 454.244 162.606C454.244 148.82 443.068 137.645 429.282 137.645C415.496 137.645 404.32 148.82 404.32 162.606C404.32 176.392 415.496 187.568 429.282 187.568Z" fill="url(#paint32_radial_10011_145)"/>
</g>
<rect y="138" width="666" height="493" fill="url(#paint33_linear_10011_145)"/>
</g>
<defs>
<filter id="filter0_f_10011_145" x="0.350677" y="0.960052" width="665.587" height="590.83" filterUnits="userSpaceOnUse" color-interpolation-filters="sRGB">
<feFlood flood-opacity="0" result="BackgroundImageFix"/>
<feBlend mode="normal" in="SourceGraphic" in2="BackgroundImageFix" result="shape"/>
<feGaussianBlur stdDeviation="81.9106" result="effect1_foregroundBlur_10011_145"/>
</filter>
<filter id="filter1_i_10011_145" x="477.539" y="376.704" width="36.8672" height="21.0535" filterUnits="userSpaceOnUse" color-interpolation-filters="sRGB">
<feFlood flood-opacity="0" result="BackgroundImageFix"/>
<feBlend mode="normal" in="SourceGraphic" in2="BackgroundImageFix" result="shape"/>
<feColorMatrix in="SourceAlpha" type="matrix" values="0 0 0 0 0 0 0 0 0 0 0 0 0 0 0 0 0 0 127 0" result="hardAlpha"/>
<feOffset dy="-1.59642"/>
<feGaussianBlur stdDeviation="2.55427"/>
<feComposite in2="hardAlpha" operator="arithmetic" k2="-1" k3="1"/>
<feColorMatrix type="matrix" values="0 0 0 0 0 0 0 0 0 0 0 0 0 0 0 0 0 0 0.25 0"/>
<feBlend mode="normal" in2="shape" result="effect1_innerShadow_10011_145"/>
</filter>
<filter id="filter2_f_10011_145" x="164.759" y="194.814" width="336.255" height="200.565" filterUnits="userSpaceOnUse" color-interpolation-filters="sRGB">
<feFlood flood-opacity="0" result="BackgroundImageFix"/>
<feBlend mode="normal" in="SourceGraphic" in2="BackgroundImageFix" result="shape"/>
<feGaussianBlur stdDeviation="16.6028" result="effect1_foregroundBlur_10011_145"/>
</filter>
<filter id="filter3_d_10011_145" x="467.305" y="362.434" width="7.41227" height="7.41227" filterUnits="userSpaceOnUse" color-interpolation-filters="sRGB">
<feFlood flood-opacity="0" result="BackgroundImageFix"/>
<feColorMatrix in="SourceAlpha" type="matrix" values="0 0 0 0 0 0 0 0 0 0 0 0 0 0 0 0 0 0 127 0" result="hardAlpha"/>
<feOffset/>
<feGaussianBlur stdDeviation="1.27714"/>
<feComposite in2="hardAlpha" operator="out"/>
<feColorMatrix type="matrix" values="0 0 0 0 0.687151 0 0 0 0 0.333333 0 0 0 0 1 0 0 0 1 0"/>
<feBlend mode="normal" in2="BackgroundImageFix" result="effect1_dropShadow_10011_145"/>
<feBlend mode="normal" in="SourceGraphic" in2="effect1_dropShadow_10011_145" result="shape"/>
</filter>
<filter id="filter4_d_10011_145" x="208.888" y="240.203" width="248.514" height="124.6" filterUnits="userSpaceOnUse" color-interpolation-filters="sRGB">
<feFlood flood-opacity="0" result="BackgroundImageFix"/>
<feColorMatrix in="SourceAlpha" type="matrix" values="0 0 0 0 0 0 0 0 0 0 0 0 0 0 0 0 0 0 127 0" result="hardAlpha"/>
<feOffset dy="7.66282"/>
<feGaussianBlur stdDeviation="8.62067"/>
<feComposite in2="hardAlpha" operator="out"/>
<feColorMatrix type="matrix" values="0 0 0 0 0 0 0 0 0 0 0 0 0 0 0 0 0 0 0.25 0"/>
<feBlend mode="normal" in2="BackgroundImageFix" result="effect1_dropShadow_10011_145"/>
<feBlend mode="normal" in="SourceGraphic" in2="effect1_dropShadow_10011_145" result="shape"/>
</filter>
<filter id="filter5_d_10011_145" x="286.156" y="263.469" width="89.8842" height="42.7768" filterUnits="userSpaceOnUse" color-interpolation-filters="sRGB">
<feFlood flood-opacity="0" result="BackgroundImageFix"/>
<feColorMatrix in="SourceAlpha" type="matrix" values="0 0 0 0 0 0 0 0 0 0 0 0 0 0 0 0 0 0 127 0" result="hardAlpha"/>
<feOffset/>
<feGaussianBlur stdDeviation="4.9337"/>
<feComposite in2="hardAlpha" operator="out"/>
<feColorMatrix type="matrix" values="0 0 0 0 1 0 0 0 0 1 0 0 0 0 1 0 0 0 1 0"/>
<feBlend mode="normal" in2="BackgroundImageFix" result="effect1_dropShadow_10011_145"/>
<feBlend mode="normal" in="SourceGraphic" in2="effect1_dropShadow_10011_145" result="shape"/>
</filter>
<filter id="filter6_i_10011_145" x="215.351" y="287.43" width="232.738" height="253.212" filterUnits="userSpaceOnUse" color-interpolation-filters="sRGB">
<feFlood flood-opacity="0" result="BackgroundImageFix"/>
<feBlend mode="normal" in="SourceGraphic" in2="BackgroundImageFix" result="shape"/>
<feColorMatrix in="SourceAlpha" type="matrix" values="0 0 0 0 0 0 0 0 0 0 0 0 0 0 0 0 0 0 127 0" result="hardAlpha"/>
<feOffset dx="-2.53536" dy="4.80842"/>
<feGaussianBlur stdDeviation="10.3943"/>
<feComposite in2="hardAlpha" operator="arithmetic" k2="-1" k3="1"/>
<feColorMatrix type="matrix" values="0 0 0 0 0.471303 0 0 0 0 0.15375 0 0 0 0 0.9 0 0 0 0.23 0"/>
<feBlend mode="normal" in2="shape" result="effect1_innerShadow_10011_145"/>
</filter>
<filter id="filter7_f_10011_145" x="348.854" y="267.825" width="107.697" height="117.626" filterUnits="userSpaceOnUse" color-interpolation-filters="sRGB">
<feFlood flood-opacity="0" result="BackgroundImageFix"/>
<feBlend mode="normal" in="SourceGraphic" in2="BackgroundImageFix" result="shape"/>
<feGaussianBlur stdDeviation="5.42783" result="effect1_foregroundBlur_10011_145"/>
</filter>
<filter id="filter8_f_10011_145" x="208.629" y="267.824" width="102.171" height="118.424" filterUnits="userSpaceOnUse" color-interpolation-filters="sRGB">
<feFlood flood-opacity="0" result="BackgroundImageFix"/>
<feBlend mode="normal" in="SourceGraphic" in2="BackgroundImageFix" result="shape"/>
<feGaussianBlur stdDeviation="5.42783" result="effect1_foregroundBlur_10011_145"/>
</filter>
<filter id="filter9_f_10011_145" x="243.907" y="328.715" width="84.6001" height="151.062" filterUnits="userSpaceOnUse" color-interpolation-filters="sRGB">
<feFlood flood-opacity="0" result="BackgroundImageFix"/>
<feBlend mode="normal" in="SourceGraphic" in2="BackgroundImageFix" result="shape"/>
<feGaussianBlur stdDeviation="2.23499" result="effect1_foregroundBlur_10011_145"/>
</filter>
<filter id="filter10_f_10011_145" x="304.883" y="281.896" width="100.341" height="156.175" filterUnits="userSpaceOnUse" color-interpolation-filters="sRGB">
<feFlood flood-opacity="0" result="BackgroundImageFix"/>
<feBlend mode="normal" in="SourceGraphic" in2="BackgroundImageFix" result="shape"/>
<feGaussianBlur stdDeviation="2.23499" result="effect1_foregroundBlur_10011_145"/>
</filter>
<filter id="filter11_f_10011_145" x="318.377" y="345.79" width="108.245" height="151.429" filterUnits="userSpaceOnUse" color-interpolation-filters="sRGB">
<feFlood flood-opacity="0" result="BackgroundImageFix"/>
<feBlend mode="normal" in="SourceGraphic" in2="BackgroundImageFix" result="shape"/>
<feGaussianBlur stdDeviation="2.23499" result="effect1_foregroundBlur_10011_145"/>
</filter>
<filter id="filter12_f_10011_145" x="369.011" y="313.194" width="63.776" height="109.462" filterUnits="userSpaceOnUse" color-interpolation-filters="sRGB">
<feFlood flood-opacity="0" result="BackgroundImageFix"/>
<feBlend mode="normal" in="SourceGraphic" in2="BackgroundImageFix" result="shape"/>
<feGaussianBlur stdDeviation="1.02407" result="effect1_foregroundBlur_10011_145"/>
</filter>
<filter id="filter13_f_10011_145" x="241.229" y="290.263" width="114.808" height="78.5728" filterUnits="userSpaceOnUse" color-interpolation-filters="sRGB">
<feFlood flood-opacity="0" result="BackgroundImageFix"/>
<feBlend mode="normal" in="SourceGraphic" in2="BackgroundImageFix" result="shape"/>
<feGaussianBlur stdDeviation="2.23499" result="effect1_foregroundBlur_10011_145"/>
</filter>
<filter id="filter14_f_10011_145" x="222.363" y="314.383" width="55.0679" height="127.104" filterUnits="userSpaceOnUse" color-interpolation-filters="sRGB">
<feFlood flood-opacity="0" result="BackgroundImageFix"/>
<feBlend mode="normal" in="SourceGraphic" in2="BackgroundImageFix" result="shape"/>
<feGaussianBlur stdDeviation="2.23499" result="effect1_foregroundBlur_10011_145"/>
</filter>
<filter id="filter15_i_10011_145" x="266.844" y="128.258" width="129.657" height="162.089" filterUnits="userSpaceOnUse" color-interpolation-filters="sRGB">
<feFlood flood-opacity="0" result="BackgroundImageFix"/>
<feBlend mode="normal" in="SourceGraphic" in2="BackgroundImageFix" result="shape"/>
<feColorMatrix in="SourceAlpha" type="matrix" values="0 0 0 0 0 0 0 0 0 0 0 0 0 0 0 0 0 0 127 0" result="hardAlpha"/>
<feOffset dx="-2.56019" dy="4.60833"/>
<feGaussianBlur stdDeviation="4.0963"/>
<feComposite in2="hardAlpha" operator="arithmetic" k2="-1" k3="1"/>
<feColorMatrix type="matrix" values="0 0 0 0 0.471303 0 0 0 0 0.15375 0 0 0 0 0.9 0 0 0 0.53 0"/>
<feBlend mode="normal" in2="shape" result="effect1_innerShadow_10011_145"/>
</filter>
<filter id="filter16_f_10011_145" x="344.276" y="145.813" width="45.3365" height="140.238" filterUnits="userSpaceOnUse" color-interpolation-filters="sRGB">
<feFlood flood-opacity="0" result="BackgroundImageFix"/>
<feBlend mode="normal" in="SourceGraphic" in2="BackgroundImageFix" result="shape"/>
<feGaussianBlur stdDeviation="1.02407" result="effect1_foregroundBlur_10011_145"/>
</filter>
<filter id="filter17_i_10011_145" x="263.122" y="361.367" width="140.047" height="163.34" filterUnits="userSpaceOnUse" color-interpolation-filters="sRGB">
<feFlood flood-opacity="0" result="BackgroundImageFix"/>
<feBlend mode="normal" in="SourceGraphic" in2="BackgroundImageFix" result="shape"/>
<feColorMatrix in="SourceAlpha" type="matrix" values="0 0 0 0 0 0 0 0 0 0 0 0 0 0 0 0 0 0 127 0" result="hardAlpha"/>
<feOffset dy="6.14445"/>
<feGaussianBlur stdDeviation="2.8162"/>
<feComposite in2="hardAlpha" operator="arithmetic" k2="-1" k3="1"/>
<feColorMatrix type="matrix" values="0 0 0 0 0.219608 0 0 0 0 0.4 0 0 0 0 0.984314 0 0 0 0.2 0"/>
<feBlend mode="normal" in2="shape" result="effect1_innerShadow_10011_145"/>
</filter>
<filter id="filter18_df_10011_145" x="291.897" y="300.443" width="175.435" height="175.435" filterUnits="userSpaceOnUse" color-interpolation-filters="sRGB">
<feFlood flood-opacity="0" result="BackgroundImageFix"/>
<feColorMatrix in="SourceAlpha" type="matrix" values="0 0 0 0 0 0 0 0 0 0 0 0 0 0 0 0 0 0 127 0" result="hardAlpha"/>
<feOffset/>
<feGaussianBlur stdDeviation="27.183"/>
<feComposite in2="hardAlpha" operator="out"/>
<feColorMatrix type="matrix" values="0 0 0 0 0.592157 0 0 0 0 0.392157 0 0 0 0 1 0 0 0 1 0"/>
<feBlend mode="normal" in2="BackgroundImageFix" result="effect1_dropShadow_10011_145"/>
<feBlend mode="normal" in="SourceGraphic" in2="effect1_dropShadow_10011_145" result="shape"/>
<feGaussianBlur stdDeviation="31.3779" result="effect2_foregroundBlur_10011_145"/>
</filter>
<filter id="filter19_i_10011_145" x="161.806" y="354.173" width="30.5292" height="41.7939" filterUnits="userSpaceOnUse" color-interpolation-filters="sRGB">
<feFlood flood-opacity="0" result="BackgroundImageFix"/>
<feBlend mode="normal" in="SourceGraphic" in2="BackgroundImageFix" result="shape"/>
<feColorMatrix in="SourceAlpha" type="matrix" values="0 0 0 0 0 0 0 0 0 0 0 0 0 0 0 0 0 0 127 0" result="hardAlpha"/>
<feOffset dx="-0.319284" dy="-0.319284"/>
<feGaussianBlur stdDeviation="1.9157"/>
<feComposite in2="hardAlpha" operator="arithmetic" k2="-1" k3="1"/>
<feColorMatrix type="matrix" values="0 0 0 0 0 0 0 0 0 0 0 0 0 0 0 0 0 0 0.44 0"/>
<feBlend mode="normal" in2="shape" result="effect1_innerShadow_10011_145"/>
</filter>
<filter id="filter20_di_10011_145" x="155.42" y="347.787" width="43.6199" height="43.6199" filterUnits="userSpaceOnUse" color-interpolation-filters="sRGB">
<feFlood flood-opacity="0" result="BackgroundImageFix"/>
<feColorMatrix in="SourceAlpha" type="matrix" values="0 0 0 0 0 0 0 0 0 0 0 0 0 0 0 0 0 0 127 0" result="hardAlpha"/>
<feOffset/>
<feGaussianBlur stdDeviation="3.35248"/>
<feComposite in2="hardAlpha" operator="out"/>
<feColorMatrix type="matrix" values="0 0 0 0 1 0 0 0 0 1 0 0 0 0 1 0 0 0 0.25 0"/>
<feBlend mode="normal" in2="BackgroundImageFix" result="effect1_dropShadow_10011_145"/>
<feBlend mode="normal" in="SourceGraphic" in2="effect1_dropShadow_10011_145" result="shape"/>
<feColorMatrix in="SourceAlpha" type="matrix" values="0 0 0 0 0 0 0 0 0 0 0 0 0 0 0 0 0 0 127 0" result="hardAlpha"/>
<feOffset dy="0.319284"/>
<feGaussianBlur stdDeviation="11.5341"/>
<feComposite in2="hardAlpha" operator="arithmetic" k2="-1" k3="1"/>
<feColorMatrix type="matrix" values="0 0 0 0 0.592157 0 0 0 0 0.392157 0 0 0 0 1 0 0 0 0.82 0"/>
<feBlend mode="normal" in2="shape" result="effect2_innerShadow_10011_145"/>
</filter>
<filter id="filter21_d_10011_145" x="140.039" y="272.242" width="11.4042" height="11.4042" filterUnits="userSpaceOnUse" color-interpolation-filters="sRGB">
<feFlood flood-opacity="0" result="BackgroundImageFix"/>
<feColorMatrix in="SourceAlpha" type="matrix" values="0 0 0 0 0 0 0 0 0 0 0 0 0 0 0 0 0 0 127 0" result="hardAlpha"/>
<feOffset/>
<feGaussianBlur stdDeviation="1.95505"/>
<feComposite in2="hardAlpha" operator="out"/>
<feColorMatrix type="matrix" values="0 0 0 0 0.592157 0 0 0 0 0.392157 0 0 0 0 1 0 0 0 1 0"/>
<feBlend mode="normal" in2="BackgroundImageFix" result="effect1_dropShadow_10011_145"/>
<feBlend mode="normal" in="SourceGraphic" in2="effect1_dropShadow_10011_145" result="shape"/>
</filter>
<filter id="filter22_d_10011_145" x="483.518" y="303.947" width="57.9375" height="57.9375" filterUnits="userSpaceOnUse" color-interpolation-filters="sRGB">
<feFlood flood-opacity="0" result="BackgroundImageFix"/>
<feColorMatrix in="SourceAlpha" type="matrix" values="0 0 0 0 0 0 0 0 0 0 0 0 0 0 0 0 0 0 127 0" result="hardAlpha"/>
<feOffset dy="3.51213"/>
<feGaussianBlur stdDeviation="6.74488"/>
<feComposite in2="hardAlpha" operator="out"/>
<feColorMatrix type="matrix" values="0 0 0 0 0.219608 0 0 0 0 0.4 0 0 0 0 0.984314 0 0 0 0.6 0"/>
<feBlend mode="normal" in2="BackgroundImageFix" result="effect1_dropShadow_10011_145"/>
<feBlend mode="normal" in="SourceGraphic" in2="effect1_dropShadow_10011_145" result="shape"/>
</filter>
<filter id="filter23_d_10011_145" x="490.016" y="288.883" width="11.4042" height="11.4042" filterUnits="userSpaceOnUse" color-interpolation-filters="sRGB">
<feFlood flood-opacity="0" result="BackgroundImageFix"/>
<feColorMatrix in="SourceAlpha" type="matrix" values="0 0 0 0 0 0 0 0 0 0 0 0 0 0 0 0 0 0 127 0" result="hardAlpha"/>
<feOffset/>
<feGaussianBlur stdDeviation="1.95505"/>
<feComposite in2="hardAlpha" operator="out"/>
<feColorMatrix type="matrix" values="0 0 0 0 0.592157 0 0 0 0 0.392157 0 0 0 0 1 0 0 0 1 0"/>
<feBlend mode="normal" in2="BackgroundImageFix" result="effect1_dropShadow_10011_145"/>
<feBlend mode="normal" in="SourceGraphic" in2="effect1_dropShadow_10011_145" result="shape"/>
</filter>
<filter id="filter24_df_10011_145" x="124.195" y="212.875" width="111.7" height="111.7" filterUnits="userSpaceOnUse" color-interpolation-filters="sRGB">
<feFlood flood-opacity="0" result="BackgroundImageFix"/>
<feColorMatrix in="SourceAlpha" type="matrix" values="0 0 0 0 0 0 0 0 0 0 0 0 0 0 0 0 0 0 127 0" result="hardAlpha"/>
<feOffset/>
<feGaussianBlur stdDeviation="17.3162"/>
<feComposite in2="hardAlpha" operator="out"/>
<feColorMatrix type="matrix" values="0 0 0 0 0.592157 0 0 0 0 0.392157 0 0 0 0 1 0 0 0 1 0"/>
<feBlend mode="normal" in2="BackgroundImageFix" result="effect1_dropShadow_10011_145"/>
<feBlend mode="normal" in="SourceGraphic" in2="effect1_dropShadow_10011_145" result="shape"/>
<feGaussianBlur stdDeviation="19.9884" result="effect2_foregroundBlur_10011_145"/>
</filter>
<filter id="filter25_d_10011_145" x="165.895" y="251.504" width="11.4042" height="11.4042" filterUnits="userSpaceOnUse" color-interpolation-filters="sRGB">
<feFlood flood-opacity="0" result="BackgroundImageFix"/>
<feColorMatrix in="SourceAlpha" type="matrix" values="0 0 0 0 0 0 0 0 0 0 0 0 0 0 0 0 0 0 127 0" result="hardAlpha"/>
<feOffset/>
<feGaussianBlur stdDeviation="1.95505"/>
<feComposite in2="hardAlpha" operator="out"/>
<feColorMatrix type="matrix" values="0 0 0 0 0.592157 0 0 0 0 0.392157 0 0 0 0 1 0 0 0 1 0"/>
<feBlend mode="normal" in2="BackgroundImageFix" result="effect1_dropShadow_10011_145"/>
<feBlend mode="normal" in="SourceGraphic" in2="effect1_dropShadow_10011_145" result="shape"/>
</filter>
<filter id="filter26_f_10011_145" x="139.851" y="230.239" width="380.108" height="108.265" filterUnits="userSpaceOnUse" color-interpolation-filters="sRGB">
<feFlood flood-opacity="0" result="BackgroundImageFix"/>
<feBlend mode="normal" in="SourceGraphic" in2="BackgroundImageFix" result="shape"/>
<feGaussianBlur stdDeviation="1.75606" result="effect1_foregroundBlur_10011_145"/>
</filter>
<filter id="filter27_d_10011_145" x="441.117" y="191.34" width="11.4042" height="11.4042" filterUnits="userSpaceOnUse" color-interpolation-filters="sRGB">
<feFlood flood-opacity="0" result="BackgroundImageFix"/>
<feColorMatrix in="SourceAlpha" type="matrix" values="0 0 0 0 0 0 0 0 0 0 0 0 0 0 0 0 0 0 127 0" result="hardAlpha"/>
<feOffset/>
<feGaussianBlur stdDeviation="1.95505"/>
<feComposite in2="hardAlpha" operator="out"/>
<feColorMatrix type="matrix" values="0 0 0 0 0.592157 0 0 0 0 0.392157 0 0 0 0 1 0 0 0 1 0"/>
<feBlend mode="normal" in2="BackgroundImageFix" result="effect1_dropShadow_10011_145"/>
<feBlend mode="normal" in="SourceGraphic" in2="effect1_dropShadow_10011_145" result="shape"/>
</filter>
<filter id="filter28_d_10011_145" x="208.137" y="170.602" width="11.4042" height="11.4042" filterUnits="userSpaceOnUse" color-interpolation-filters="sRGB">
<feFlood flood-opacity="0" result="BackgroundImageFix"/>
<feColorMatrix in="SourceAlpha" type="matrix" values="0 0 0 0 0 0 0 0 0 0 0 0 0 0 0 0 0 0 127 0" result="hardAlpha"/>
<feOffset/>
<feGaussianBlur stdDeviation="1.95505"/>
<feComposite in2="hardAlpha" operator="out"/>
<feColorMatrix type="matrix" values="0 0 0 0 0.592157 0 0 0 0 0.392157 0 0 0 0 1 0 0 0 1 0"/>
<feBlend mode="normal" in2="BackgroundImageFix" result="effect1_dropShadow_10011_145"/>
<feBlend mode="normal" in="SourceGraphic" in2="effect1_dropShadow_10011_145" result="shape"/>
</filter>
<filter id="filter29_df_10011_145" x="259.091" y="164.462" width="73.8656" height="73.8656" filterUnits="userSpaceOnUse" color-interpolation-filters="sRGB">
<feFlood flood-opacity="0" result="BackgroundImageFix"/>
<feColorMatrix in="SourceAlpha" type="matrix" values="0 0 0 0 0 0 0 0 0 0 0 0 0 0 0 0 0 0 127 0" result="hardAlpha"/>
<feOffset/>
<feGaussianBlur stdDeviation="11.451"/>
<feComposite in2="hardAlpha" operator="out"/>
<feColorMatrix type="matrix" values="0 0 0 0 0.592157 0 0 0 0 0.392157 0 0 0 0 1 0 0 0 1 0"/>
<feBlend mode="normal" in2="BackgroundImageFix" result="effect1_dropShadow_10011_145"/>
<feBlend mode="normal" in="SourceGraphic" in2="effect1_dropShadow_10011_145" result="shape"/>
<feGaussianBlur stdDeviation="13.2181" result="effect2_foregroundBlur_10011_145"/>
</filter>
<filter id="filter30_d_10011_145" x="277.844" y="184.242" width="17.9217" height="17.9217" filterUnits="userSpaceOnUse" color-interpolation-filters="sRGB">
<feFlood flood-opacity="0" result="BackgroundImageFix"/>
<feColorMatrix in="SourceAlpha" type="matrix" values="0 0 0 0 0 0 0 0 0 0 0 0 0 0 0 0 0 0 127 0" result="hardAlpha"/>
<feOffset/>
<feGaussianBlur stdDeviation="3.07222"/>
<feComposite in2="hardAlpha" operator="out"/>
<feColorMatrix type="matrix" values="0 0 0 0 0.592157 0 0 0 0 0.392157 0 0 0 0 1 0 0 0 1 0"/>
<feBlend mode="normal" in2="BackgroundImageFix" result="effect1_dropShadow_10011_145"/>
<feBlend mode="normal" in="SourceGraphic" in2="effect1_dropShadow_10011_145" result="shape"/>
</filter>
<filter id="filter31_d_10011_145" x="425.566" y="170.16" width="17.9217" height="17.9217" filterUnits="userSpaceOnUse" color-interpolation-filters="sRGB">
<feFlood flood-opacity="0" result="BackgroundImageFix"/>
<feColorMatrix in="SourceAlpha" type="matrix" values="0 0 0 0 0 0 0 0 0 0 0 0 0 0 0 0 0 0 127 0" result="hardAlpha"/>
<feOffset/>
<feGaussianBlur stdDeviation="3.07222"/>
<feComposite in2="hardAlpha" operator="out"/>
<feColorMatrix type="matrix" values="0 0 0 0 0.592157 0 0 0 0 0.392157 0 0 0 0 1 0 0 0 1 0"/>
<feBlend mode="normal" in2="BackgroundImageFix" result="effect1_dropShadow_10011_145"/>
<feBlend mode="normal" in="SourceGraphic" in2="effect1_dropShadow_10011_145" result="shape"/>
</filter>
<filter id="filter32_df_10011_145" x="341.565" y="74.8887" width="175.435" height="175.435" filterUnits="userSpaceOnUse" color-interpolation-filters="sRGB">
<feFlood flood-opacity="0" result="BackgroundImageFix"/>
<feColorMatrix in="SourceAlpha" type="matrix" values="0 0 0 0 0 0 0 0 0 0 0 0 0 0 0 0 0 0 127 0" result="hardAlpha"/>
<feOffset/>
<feGaussianBlur stdDeviation="27.183"/>
<feComposite in2="hardAlpha" operator="out"/>
<feColorMatrix type="matrix" values="0 0 0 0 0.592157 0 0 0 0 0.392157 0 0 0 0 1 0 0 0 1 0"/>
<feBlend mode="normal" in2="BackgroundImageFix" result="effect1_dropShadow_10011_145"/>
<feBlend mode="normal" in="SourceGraphic" in2="effect1_dropShadow_10011_145" result="shape"/>
<feGaussianBlur stdDeviation="31.3779" result="effect2_foregroundBlur_10011_145"/>
</filter>
<linearGradient id="paint0_linear_10011_145" x1="333.145" y1="401.855" x2="333.145" y2="415.168" gradientUnits="userSpaceOnUse">
<stop offset="0.41494" stop-color="#132970"/>
<stop offset="0.630208" stop-color="#051341"/>
</linearGradient>
<linearGradient id="paint1_linear_10011_145" x1="333.145" y1="387.518" x2="333.145" y2="401.818" gradientUnits="userSpaceOnUse">
<stop stop-color="#001763" stop-opacity="0"/>
<stop offset="1" stop-color="#30458A"/>
</linearGradient>
<radialGradient id="paint2_radial_10011_145" cx="0" cy="0" r="1" gradientUnits="userSpaceOnUse" gradientTransform="translate(483.55 394.515) rotate(-15.2174) scale(24.7095 15.7542)">
<stop stop-color="#2F489A"/>
<stop offset="1" stop-color="#07174B"/>
</radialGradient>
<linearGradient id="paint3_linear_10011_145" x1="333.05" y1="286.702" x2="333.05" y2="532.922" gradientUnits="userSpaceOnUse">
<stop stop-color="#06123A"/>
<stop offset="1"/>
</linearGradient>
<linearGradient id="paint4_linear_10011_145" x1="333.05" y1="286.702" x2="333.05" y2="532.922" gradientUnits="userSpaceOnUse">
<stop stop-color="#1F0741"/>
<stop offset="1"/>
</linearGradient>
<linearGradient id="paint5_linear_10011_145" x1="262.354" y1="372.54" x2="279.434" y2="378.126" gradientUnits="userSpaceOnUse">
<stop stop-color="#0B1C53"/>
<stop offset="1" stop-color="#0D1D52" stop-opacity="0"/>
</linearGradient>
<linearGradient id="paint6_linear_10011_145" x1="394.367" y1="363.82" x2="377.695" y2="370.524" gradientUnits="userSpaceOnUse">
<stop stop-color="#0E2260"/>
<stop offset="1" stop-color="#0F215A" stop-opacity="0"/>
</linearGradient>
<linearGradient id="paint7_linear_10011_145" x1="412.788" y1="421.216" x2="396.818" y2="429.456" gradientUnits="userSpaceOnUse">
<stop stop-color="#0C1C50"/>
<stop offset="1" stop-color="#0B1C55" stop-opacity="0"/>
</linearGradient>
<linearGradient id="paint8_linear_10011_145" x1="405.226" y1="345.82" x2="395.554" y2="350.048" gradientUnits="userSpaceOnUse">
<stop stop-color="#0F2467"/>
<stop offset="1" stop-color="#2F0D5E" stop-opacity="0"/>
</linearGradient>
<linearGradient id="paint9_linear_10011_145" x1="401.331" y1="296.62" x2="332.433" y2="335.027" gradientUnits="userSpaceOnUse">
<stop stop-color="#0F2261"/>
<stop offset="1" stop-color="#0B1C53" stop-opacity="0"/>
</linearGradient>
<linearGradient id="paint10_linear_10011_145" x1="221.514" y1="367.711" x2="246.003" y2="379.47" gradientUnits="userSpaceOnUse">
<stop stop-color="#0C1F5E"/>
<stop offset="1" stop-color="#0C1C50" stop-opacity="0.41"/>
</linearGradient>
<linearGradient id="paint11_linear_10011_145" x1="328.922" y1="108.038" x2="333.124" y2="285.192" gradientUnits="userSpaceOnUse">
<stop/>
<stop offset="1" stop-color="#07133C"/>
</linearGradient>
<linearGradient id="paint12_linear_10011_145" x1="328.922" y1="108.038" x2="333.124" y2="285.192" gradientUnits="userSpaceOnUse">
<stop/>
<stop offset="1" stop-color="#1F0741"/>
</linearGradient>
<linearGradient id="paint13_linear_10011_145" x1="358.818" y1="248.678" x2="369.093" y2="246.258" gradientUnits="userSpaceOnUse">
<stop stop-color="#0C205E"/>
<stop offset="1" stop-color="#0B1C55" stop-opacity="0"/>
</linearGradient>
<linearGradient id="paint14_linear_10011_145" x1="309.236" y1="284.098" x2="309.527" y2="273.94" gradientUnits="userSpaceOnUse">
<stop stop-color="#0E2263"/>
<stop offset="1" stop-color="#0F2364" stop-opacity="0"/>
</linearGradient>
<linearGradient id="paint15_linear_10011_145" x1="333.146" y1="361.367" x2="333.146" y2="519.075" gradientUnits="userSpaceOnUse">
<stop stop-color="#00071E"/>
<stop offset="1"/>
</linearGradient>
<radialGradient id="paint16_radial_10011_145" cx="0" cy="0" r="1" gradientUnits="userSpaceOnUse" gradientTransform="translate(362.792 404.802) rotate(-27.2669) scale(36.3238 37.2359)">
<stop stop-color="#BBCBFF"/>
<stop offset="1" stop-color="#547CFF"/>
</radialGradient>
<linearGradient id="paint17_linear_10011_145" x1="181.539" y1="388.825" x2="170.637" y2="392.75" gradientUnits="userSpaceOnUse">
<stop stop-color="#324DA4"/>
<stop offset="1" stop-color="#182757"/>
</linearGradient>
<linearGradient id="paint18_linear_10011_145" x1="190.67" y1="362.814" x2="169.676" y2="371.391" gradientUnits="userSpaceOnUse">
<stop stop-color="#1637A3"/>
<stop offset="1" stop-color="#182654" stop-opacity="0"/>
</linearGradient>
<linearGradient id="paint19_linear_10011_145" x1="511.944" y1="336.281" x2="499.172" y2="379.385" gradientUnits="userSpaceOnUse">
<stop stop-color="#9CB3FF"/>
<stop offset="1" stop-color="#9DB4FF" stop-opacity="0"/>
</linearGradient>
<radialGradient id="paint20_radial_10011_145" cx="0" cy="0" r="1" gradientUnits="userSpaceOnUse" gradientTransform="translate(144.534 279.139) rotate(-27.2671) scale(2.60786 2.67337)">
<stop stop-color="#C1D0FF"/>
<stop offset="1" stop-color="#5079FF"/>
</radialGradient>
<radialGradient id="paint21_radial_10011_145" cx="0" cy="0" r="1" gradientUnits="userSpaceOnUse" gradientTransform="translate(503.546 341.203) rotate(-35.4221) scale(22.7256 23.2963)">
<stop stop-color="#B1C4FF"/>
<stop offset="1" stop-color="#517AFF"/>
</radialGradient>
<radialGradient id="paint22_radial_10011_145" cx="0" cy="0" r="1" gradientUnits="userSpaceOnUse" gradientTransform="translate(494.51 295.78) rotate(-27.2669) scale(2.60786 2.67335)">
<stop stop-color="#B6C7FF"/>
<stop offset="1" stop-color="#3866FB" stop-opacity="0.56"/>
</radialGradient>
<radialGradient id="paint23_radial_10011_145" cx="0" cy="0" r="1" gradientUnits="userSpaceOnUse" gradientTransform="translate(169.348 279.307) rotate(-27.2669) scale(23.0982 23.6782)">
<stop stop-color="#B7C8FF"/>
<stop offset="1" stop-color="#5A81FF"/>
</radialGradient>
<radialGradient id="paint24_radial_10011_145" cx="0" cy="0" r="1" gradientUnits="userSpaceOnUse" gradientTransform="translate(170.389 258.401) rotate(-27.267) scale(2.60786 2.67336)">
<stop stop-color="#B6C7FF"/>
<stop offset="1" stop-color="#3866FB" stop-opacity="0.56"/>
</radialGradient>
<linearGradient id="paint25_linear_10011_145" x1="146.997" y1="346.499" x2="138.575" y2="304.711" gradientUnits="userSpaceOnUse">
<stop stop-color="#9EA5FF" stop-opacity="0.625"/>
<stop offset="1" stop-color="#9CB3FF" stop-opacity="0"/>
</linearGradient>
<linearGradient id="paint26_linear_10011_145" x1="146.997" y1="346.499" x2="138.575" y2="304.711" gradientUnits="userSpaceOnUse">
<stop stop-color="#6488FF"/>
<stop offset="1" stop-color="#9CB3FF" stop-opacity="0"/>
</linearGradient>
<radialGradient id="paint27_radial_10011_145" cx="0" cy="0" r="1" gradientUnits="userSpaceOnUse" gradientTransform="translate(445.612 198.237) rotate(-27.2668) scale(2.60788 2.67336)">
<stop stop-color="#C1D0FF"/>
<stop offset="1" stop-color="#5079FF"/>
</radialGradient>
<radialGradient id="paint28_radial_10011_145" cx="0" cy="0" r="1" gradientUnits="userSpaceOnUse" gradientTransform="translate(212.631 177.499) rotate(-27.2669) scale(2.60786 2.67335)">
<stop stop-color="#B6C7FF"/>
<stop offset="1" stop-color="#3866FB" stop-opacity="0.56"/>
</radialGradient>
<radialGradient id="paint29_radial_10011_145" cx="0" cy="0" r="1" gradientUnits="userSpaceOnUse" gradientTransform="translate(288.95 208.393) rotate(-27.2669) scale(15.2746 15.6582)">
<stop stop-color="#B4C5FF"/>
<stop offset="1" stop-color="#517AFF"/>
</radialGradient>
<radialGradient id="paint30_radial_10011_145" cx="0" cy="0" r="1" gradientUnits="userSpaceOnUse" gradientTransform="translate(284.907 195.08) rotate(-27.2668) scale(4.09808 4.20098)">
<stop stop-color="#BFCEFF"/>
<stop offset="1" stop-color="#5880FF"/>
</radialGradient>
<radialGradient id="paint31_radial_10011_145" cx="0" cy="0" r="1" gradientUnits="userSpaceOnUse" gradientTransform="translate(432.629 180.998) rotate(-27.2668) scale(4.09808 4.20098)">
<stop stop-color="#B8C9FF"/>
<stop offset="1" stop-color="#537BFF"/>
</radialGradient>
<radialGradient id="paint32_radial_10011_145" cx="0" cy="0" r="1" gradientUnits="userSpaceOnUse" gradientTransform="translate(412.46 179.248) rotate(-27.2669) scale(36.3238 37.2359)">
<stop stop-color="#B9C2FF"/>
<stop offset="1" stop-color="#577FFF"/>
</radialGradient>
<linearGradient id="paint33_linear_10011_145" x1="333" y1="138" x2="333" y2="631" gradientUnits="userSpaceOnUse">
<stop stop-opacity="0"/>
<stop offset="0.865"/>
</linearGradient>
<clipPath id="clip0_10011_145">
<rect width="666" height="631" fill="white"/>
</clipPath>
</defs>
</svg>
