<svg width="1068" height="1032" viewBox="0 0 1068 1032" fill="none" xmlns="http://www.w3.org/2000/svg">
<g filter="url(#filter0_f_6775_366)">
<circle cx="344.5" cy="439.5" r="94.5" fill="#800080"/>
<ellipse cx="557" cy="533.5" rx="95" ry="94.5" fill="#008000"/>
<circle cx="533.5" cy="344.5" r="94.5" fill="#FF0000"/>
<circle cx="419.5" cy="592.5" r="94.5" fill="white"/>
<ellipse cx="609" cy="687.5" rx="95" ry="94.5" fill="#0000FF"/>
<circle cx="723" cy="498" r="95" fill="#FFFF00"/>
<circle cx="560" cy="516" r="249" fill="white" fill-opacity="0.2"/>
</g>
<path fill-rule="evenodd" clip-rule="evenodd" d="M404.95 653.222L361.958 599.664C351.614 586.778 346 570.933 346 554.623V360.687C346 336.258 365.545 315.987 390.759 314.266L590.152 300.652C604.637 299.663 619.035 303.514 630.934 311.559L700.991 358.924C713.531 367.402 721 381.262 721 396.053V616.54C721 640.447 701.782 660.241 677.095 661.761L455.792 675.383C436.092 676.596 417.05 668.296 404.95 653.222Z" fill="white"/>
<path d="M474.759 457.735V455.196C474.759 448.759 479.914 443.422 486.558 442.978L534.949 439.747L601.871 538.295V451.803L584.646 449.506V448.3C584.646 441.789 589.918 436.415 596.647 436.071L640.678 433.815V440.152C640.678 443.126 638.466 445.671 635.434 446.183L624.839 447.975V588.047L611.54 592.62C600.431 596.441 588.063 592.351 581.703 582.754L516.734 484.716V578.288L536.731 582.115L536.453 583.97C535.58 589.78 530.564 594.174 524.496 594.444L474.759 596.658C474.102 590.41 478.785 584.82 485.244 584.142L491.787 583.454V458.691L474.759 457.735Z" fill="black"/>
<path fill-rule="evenodd" clip-rule="evenodd" d="M592.594 325.086L393.202 338.699C381.258 339.514 372 349.116 372 360.688V554.624C372 565.497 375.743 576.061 382.639 584.651L425.631 638.209C432.582 646.869 443.521 651.637 454.838 650.94L676.141 637.318C687.484 636.619 696.314 627.525 696.314 616.54V396.054C696.314 389.258 692.882 382.89 687.12 378.995L617.064 331.629C609.924 326.802 601.286 324.492 592.594 325.086ZM403.089 363.713C400.316 361.66 401.636 357.383 405.119 357.133L593.936 343.59C599.952 343.158 605.93 344.815 610.795 348.262L648.679 375.102C650.118 376.121 649.443 378.321 647.662 378.418L447.707 389.293C441.655 389.622 435.682 387.844 430.871 384.282L403.089 363.713ZM438.328 423.385C438.328 416.889 443.576 411.523 450.287 411.157L661.696 399.644C668.237 399.288 673.742 404.317 673.742 410.648V601.567C673.742 608.051 668.513 613.411 661.815 613.792L451.744 625.745C444.466 626.159 438.328 620.566 438.328 613.519V423.385Z" fill="black"/>
<defs>
<filter id="filter0_f_6775_366" x="0" y="0" width="1068" height="1032" filterUnits="userSpaceOnUse" color-interpolation-filters="sRGB">
<feFlood flood-opacity="0" result="BackgroundImageFix"/>
<feBlend mode="normal" in="SourceGraphic" in2="BackgroundImageFix" result="shape"/>
<feGaussianBlur stdDeviation="125" result="effect1_foregroundBlur_6775_366"/>
</filter>
</defs>
</svg>
