<svg width="48" height="48" viewBox="0 0 48 48" fill="none" xmlns="http://www.w3.org/2000/svg">
<path d="M24 37C20.988 33.07 18 29 18 26C18 22 20 20 24 20C28 20 30 22 30 26C30 29 27.012 33.07 24 37ZM24 37C26 39 27 40 29 41C31 42 34 43 38 40C42 37 41 33 39 28C37 23 34.334 17 29 9C27.332 7 26 6 23.994 6C21.994 6 20.748 6.9 19 9C13.666 17 11 23 9 28C7 33 6 37 10 40C14 43 17 42 19 41C21 40 22 39 24 37Z" stroke="url(#paint0_linear_663_115)" stroke-width="4" stroke-linecap="round" stroke-linejoin="round"/>
<defs>
<linearGradient id="paint0_linear_663_115" x1="7.25" y1="24" x2="40.75" y2="24" gradientUnits="userSpaceOnUse">
<stop stop-color="#4776E6"/>
<stop offset="1" stop-color="#8E54E9"/>
</linearGradient>
</defs>
</svg>
