<svg width="48" height="48" viewBox="0 0 48 48" fill="none" xmlns="http://www.w3.org/2000/svg">
<path d="M43.992 36.46C43.992 37.914 43.182 40.714 41.364 42.252C41 42.532 40.634 42.374 40.794 41.966C41.324 40.67 42.538 37.672 41.968 36.982C41.568 36.458 39.908 36.496 38.492 36.618C37.844 36.7 37.278 36.738 36.836 36.828C36.43 36.862 36.346 36.502 36.754 36.222C37.278 35.852 37.844 35.572 38.494 35.366C40.794 34.678 43.454 35.092 43.834 35.532C43.906 35.616 43.994 35.852 43.994 36.458L43.992 36.46ZM40.15 39.048C39.6219 39.4514 39.0673 39.8189 38.49 40.148C34.246 42.698 28.75 44.034 23.974 44.034C16.288 44.034 9.41398 41.2 4.19798 36.458C3.75198 36.094 4.12198 35.566 4.64398 35.852C10.264 39.132 17.22 41.116 24.422 41.116C29.2368 41.1024 34.0074 40.1964 38.492 38.444C38.816 38.322 39.18 38.156 39.498 38.04C40.232 37.71 40.878 38.526 40.15 39.048ZM27.81 16.988C27.81 14.906 27.892 13.68 27.202 12.628C26.59 11.762 25.536 11.242 24.066 11.324C22.47 11.412 20.756 12.458 20.318 14.376C20.234 14.816 19.976 15.248 19.446 15.342L14.574 14.722C14.226 14.642 13.698 14.376 13.87 13.68C14.916 8.176 19.62 6.258 24.066 6H25.112C27.552 6 30.686 6.698 32.692 8.528C35.126 10.8 34.868 13.852 34.868 17.168V25.022C34.868 27.378 35.822 28.422 36.784 29.65C37.044 30.088 37.132 30.604 36.694 30.96C35.4344 32.0839 34.1562 33.1867 32.86 34.268C32.512 34.534 31.884 34.562 31.64 34.358C30.1 33.068 29.724 32.352 28.77 31.042C27.11 32.784 25.718 33.746 24.06 34.268C22.894 34.5639 21.6949 34.7091 20.492 34.7C16.312 34.7 13 32.094 13 26.94C13 22.842 15.18 20.056 18.4 18.738C21.62 17.418 26.3 16.998 27.808 16.99L27.81 16.988ZM26.854 27.372C27.894 25.628 27.808 24.2 27.808 21.002C26.506 21.002 25.196 21.092 24.066 21.358C21.976 21.964 20.318 23.28 20.318 26.068C20.318 28.248 21.452 29.732 23.368 29.732C23.632 29.732 23.864 29.7 24.066 29.642C25.406 29.27 26.242 28.598 26.854 27.372Z" fill="url(#paint0_linear_665_121)"/>
<defs>
<linearGradient id="paint0_linear_665_121" x1="3.99866" y1="25.017" x2="43.994" y2="25.017" gradientUnits="userSpaceOnUse">
<stop stop-color="#4776E6"/>
<stop offset="1" stop-color="#8E54E9"/>
</linearGradient>
</defs>
</svg>
