<svg width="40" height="40" viewBox="0 0 40 40" fill="none" xmlns="http://www.w3.org/2000/svg">
<g clip-path="url(#clip0_636_84)">
<mask id="mask0_636_84" style="mask-type:luminance" maskUnits="userSpaceOnUse" x="0" y="0" width="40" height="40">
<path d="M40 0H0V40H40V0Z" fill="white"/>
</mask>
<g mask="url(#mask0_636_84)">
<path d="M20 1.57627e-05C8.95334 1.57627e-05 0 8.95501 0 20C0 31.0466 8.95334 40 20 40C31.045 40 40 31.0466 40 20C40.0008 18.115 39.7354 16.2392 39.2116 14.4284C39.1135 14.1899 38.927 13.9986 38.6911 13.8944C38.4552 13.7901 38.1883 13.7811 37.9459 13.869C37.7034 13.957 37.5044 14.1353 37.3903 14.3665C37.2761 14.5978 37.2557 14.8641 37.3334 15.11H37.33C37.7716 16.6816 38 18.3234 38 20C38.0065 22.3648 37.5439 24.7074 36.639 26.8922C35.7341 29.077 34.405 31.0606 32.7284 32.7284C31.0607 34.405 29.077 35.7342 26.8922 36.6392C24.7074 37.5441 22.3648 38.0066 20 38C17.6352 38.0065 15.2926 37.544 13.1079 36.639C10.923 35.7341 8.93935 34.405 7.27166 32.7284C5.5949 31.0607 4.26559 29.0771 3.3607 26.8922C2.4558 24.7075 1.99331 22.3649 2 20C1.9935 17.6352 2.45608 15.2926 3.36095 13.1079C4.26584 10.923 5.59505 8.93936 7.27166 7.27169C8.93924 5.59491 10.9229 4.2656 13.1078 3.36071C15.2925 2.45583 17.6352 1.99333 20 2.00001C24.2934 2.00001 28.355 3.49335 31.5966 6.23335C31.3917 6.75336 31.3714 7.32791 31.5389 7.86115C31.7064 8.39439 32.0516 8.85409 32.517 9.16358C32.9824 9.47306 33.5399 9.61361 34.0964 9.56181C34.6529 9.51 35.1749 9.26896 35.5751 8.87887C35.9755 8.4888 36.2299 7.97327 36.2961 7.41829C36.3622 6.86329 36.2361 6.30239 35.9387 5.82913C35.6415 5.35586 35.1909 4.99885 34.6621 4.81764C34.1334 4.63644 33.5585 4.64197 33.0334 4.83335C29.4101 1.70962 24.7839 -0.0059992 20 1.57627e-05ZM17.6 9.80001L10.6 27.97H14.9834L16.1284 24.89H22.7434L21.545 21.4866H17.19L20.0234 13.6684L25.0634 27.9684H29.4484L22.45 9.80001H17.6Z" fill="url(#paint0_linear_636_84)"/>
</g>
</g>
<defs>
<linearGradient id="paint0_linear_636_84" x1="0" y1="20" x2="40" y2="20" gradientUnits="userSpaceOnUse">
<stop stop-color="#4776E6"/>
<stop offset="1" stop-color="#8E54E9"/>
</linearGradient>
<clipPath id="clip0_636_84">
<rect width="40" height="40" fill="white"/>
</clipPath>
</defs>
</svg>
