<svg width="40" height="40" viewBox="0 0 32 26" fill="none" xmlns="http://www.w3.org/2000/svg">
<g clip-path="url(#clip0_5582_2582)">
<path d="M6.6465 0C4.82063 0 3.4695 1.59812 3.53 3.33125C3.58812 4.99625 3.51262 7.15287 2.96975 8.9115C2.42525 10.6752 1.50425 11.7925 0 11.936V13.5555C1.50425 13.699 2.42525 14.8163 2.96975 16.5801C3.51262 18.3388 3.58812 20.4951 3.53 22.1602C3.4695 23.8931 4.82062 25.4915 6.64675 25.4915H25.3559C27.1819 25.4915 28.5326 23.8934 28.4721 22.1602C28.4141 20.4952 28.4895 18.3388 29.0324 16.5801C29.5773 14.8164 30.4957 13.6989 32 13.5555V11.936C30.4957 11.7925 29.5772 10.6752 29.0325 8.9115C28.4895 7.15312 28.4141 4.99637 28.4721 3.33125C28.5326 1.59837 27.1819 0 25.3559 0H6.64625H6.6465ZM21.695 15.6916C21.695 18.0781 19.915 19.5254 16.961 19.5254H11.9323C11.7884 19.5253 11.6505 19.4682 11.5488 19.3665C11.4471 19.2648 11.39 19.1268 11.39 18.983V6.5085C11.39 6.43726 11.404 6.36672 11.4312 6.3009C11.4585 6.23509 11.4984 6.17528 11.5488 6.1249C11.5992 6.07452 11.659 6.03456 11.7248 6.0073C11.7906 5.98003 11.8611 5.966 11.9324 5.966H16.9322C19.3954 5.966 21.0119 7.30037 21.0119 9.34888C21.0119 10.7868 19.9244 12.074 18.539 12.2994V12.3745C20.4251 12.5814 21.695 13.8875 21.695 15.6916ZM16.4125 7.68538H13.5454V11.7354H15.9604C17.8271 11.7354 18.8566 10.9836 18.8566 9.63988C18.8566 8.38075 17.9713 7.68538 16.4125 7.68538ZM13.5454 13.3424V17.8055H16.5181C18.4616 17.8055 19.4914 17.0256 19.4914 15.5599C19.4914 14.0939 18.433 13.3421 16.3931 13.3421H13.5454V13.3424Z" fill="url(#paint0_linear_5582_2582)"/>
</g>
<defs>
<linearGradient id="paint0_linear_5582_2582" x1="25.8083" y1="-1.27458" x2="10.0266" y2="17.054" gradientUnits="userSpaceOnUse">
<stop stop-color="#cabaff"/>
<stop offset="1" stop-color="#cabaff"/>
</linearGradient>
<clipPath id="clip0_5582_2582">
<rect width="32" height="25.5" fill="white"/>
</clipPath>
</defs>
</svg>
