<svg width="40" height="40" viewBox="0 0 32 32" fill="none" xmlns="http://www.w3.org/2000/svg">
<path d="M14.5 20C15.8807 20 17 18.8807 17 17.5C17 16.1193 15.8807 15 14.5 15C13.1193 15 12 16.1193 12 17.5C12 18.8807 13.1193 20 14.5 20Z" stroke="url(#paint0_linear_5574_2561)" stroke-width="1.5" stroke-linecap="round" stroke-linejoin="round"/>
<path d="M4 28L12.7375 19.2625" stroke="url(#paint1_linear_5574_2561)" stroke-width="1.5" stroke-linecap="round" stroke-linejoin="round"/>
<path d="M4 28L21.4375 25.1C21.6096 25.0706 21.7709 24.9962 21.9048 24.8842C22.0387 24.7722 22.1406 24.6267 22.2 24.4625L25 17L15 7L7.5375 9.8C7.37305 9.86264 7.22777 9.96706 7.11598 10.103C7.00419 10.2389 6.92975 10.4016 6.9 10.575L4 28Z" stroke="url(#paint2_linear_5574_2561)" stroke-width="1.5" stroke-linecap="round" stroke-linejoin="round"/>
<path d="M25 17L28.2875 13.7125C28.382 13.6195 28.457 13.5086 28.5082 13.3862C28.5595 13.2639 28.5858 13.1326 28.5858 13C28.5858 12.8674 28.5595 12.7361 28.5082 12.6138C28.457 12.4915 28.382 12.3806 28.2875 12.2875L19.7125 3.71251C19.6195 3.61803 19.5085 3.54299 19.3862 3.49178C19.2639 3.44056 19.1326 3.41418 19 3.41418C18.8674 3.41418 18.7361 3.44056 18.6138 3.49178C18.4915 3.54299 18.3805 3.61803 18.2875 3.71251L15 7.00001" stroke="url(#paint3_linear_5574_2561)" stroke-width="1.5" stroke-linecap="round" stroke-linejoin="round"/>
<defs>
<linearGradient id="paint0_linear_5574_2561" x1="16.0326" y1="14.75" x2="12.9118" y2="17.6372" gradientUnits="userSpaceOnUse">
<stop stop-color="#8e54e9"/>
<stop offset="1" stop-color="#4776e6"/>
</linearGradient>
<linearGradient id="paint1_linear_5574_2561" x1="11.0469" y1="18.8256" x2="5.59337" y2="23.871" gradientUnits="userSpaceOnUse">
<stop stop-color="#8e54e9"/>
<stop offset="1" stop-color="#4776e6"/>
</linearGradient>
<linearGradient id="paint2_linear_5574_2561" x1="20.9367" y1="5.95" x2="7.82957" y2="18.0763" gradientUnits="userSpaceOnUse">
<stop stop-color="#8e54e9"/>
<stop offset="1" stop-color="#4776e6"/>
</linearGradient>
<linearGradient id="paint3_linear_5574_2561" x1="25.9571" y1="2.73489" x2="17.4775" y2="10.5799" gradientUnits="userSpaceOnUse">
<stop stop-color="#8e54e9"/>
<stop offset="1" stop-color="#4776e6"/>
</linearGradient>
</defs>
</svg>
