<svg width="40" height="40" viewBox="0 0 40 40" fill="none" xmlns="http://www.w3.org/2000/svg">
<path d="M20 8.95004L19.2666 8.85004L9.99999 24.8334C10.4 25.1834 10.6667 25.6334 10.7833 26.1334H29.2166C29.3334 25.6334 29.6 25.1834 30 24.8334L20.7334 8.85004L20 8.95004ZM11 27.55L18.1334 31.7668C18.6166 31.3168 19.2834 31.05 20 31.05C20.7166 31.05 21.3834 31.3168 21.8666 31.7668L29 27.55H11ZM20 36.6668C19.2574 36.6668 18.5451 36.3718 18.0201 35.8466C17.495 35.3215 17.2 34.6093 17.2 33.8668L17.35 32.9334L10.1833 28.6834C9.66666 29.2834 8.91666 29.65 8.06666 29.65C7.32404 29.65 6.61186 29.355 6.08676 28.8299C5.56166 28.3049 5.26666 27.5926 5.26666 26.85C5.26666 25.5334 6.14999 24.4334 7.36666 24.1168V15.6C5.98332 15.4168 4.91666 14.2334 4.91666 12.8C4.91666 12.0574 5.21166 11.3452 5.73676 10.8201C6.26186 10.295 6.97404 10 7.71666 10C8.63332 10 9.43332 10.4334 9.94999 11.1L17.3 6.88337L17.2 6.13337C17.2 4.58337 18.45 3.33337 20 3.33337C21.55 3.33337 22.8 4.58337 22.8 6.13337L22.7 6.88337L30.05 11.1C30.5666 10.4334 31.3666 10 32.2834 10C33.0259 10 33.7381 10.295 34.2633 10.8201C34.7884 11.3452 35.0834 12.0574 35.0834 12.8C35.0834 14.2334 34.0166 15.4168 32.6334 15.6V24.1168C33.85 24.4334 34.7334 25.5334 34.7334 26.85C34.7334 27.5926 34.4384 28.3049 33.9133 28.8299C33.3881 29.355 32.6759 29.65 31.9334 29.65C31.0834 29.65 30.3334 29.2834 29.8166 28.6834L22.65 32.9334L22.8 33.8668C22.8 34.6093 22.505 35.3215 21.9799 35.8466C21.4548 36.3718 20.7426 36.6668 20 36.6668ZM18 8.10004L10.5 12.4L10.5333 12.8C10.5333 13.9834 9.79999 15 8.76666 15.4168L8.81666 24.1668L18 8.10004ZM22 8.10004L31.1834 24.1668L31.2334 15.4168C30.2 15 29.4666 13.9834 29.4666 12.8L29.5 12.4L22 8.10004Z" fill="url(#paint0_linear_636_82)"/>
<defs>
<linearGradient id="paint0_linear_636_82" x1="4.91666" y1="20" x2="35.0834" y2="20" gradientUnits="userSpaceOnUse">
<stop stop-color="#4776E6"/>
<stop offset="1" stop-color="#8E54E9"/>
</linearGradient>
</defs>
</svg>
