<svg width="48" height="48" viewBox="0 0 48 48" fill="none" xmlns="http://www.w3.org/2000/svg">
<path d="M16.856 3.33997C7.556 3.33997 2.488 11.638 2.488 17.336C2.488 21.924 6.888 23.934 10.988 23.934L10.976 23.922C19.464 23.922 25.344 16.214 25.344 9.92597C25.344 5.34597 20.994 3.33997 16.856 3.33997ZM39.512 3.33997C30.212 3.33997 25.144 11.638 25.144 17.336C25.144 21.924 29.544 23.934 33.644 23.934L33.632 23.922C42.122 23.92 48 16.214 48 9.92597C48 5.34597 43.64 3.33997 39.512 3.33997ZM28.344 29.04L33.214 32.708C28.874 36.848 20.966 39.758 14.508 39.048C11.5152 38.7089 8.65704 37.617 6.20045 35.8742C3.74387 34.1315 1.76892 31.7947 0.46 29.082H0C0.807422 33.2592 2.97969 37.0498 6.17553 39.8583C9.37137 42.6668 13.4097 44.334 17.656 44.598C25.284 45.078 32.302 42.788 37.55 38.338L37.542 38.352L39.702 44.328L42.812 29.082L28.344 29.04Z" fill="url(#paint0_linear_663_113)"/>
<defs>
<linearGradient id="paint0_linear_663_113" x1="0" y1="24.0004" x2="48" y2="24.0004" gradientUnits="userSpaceOnUse">
<stop stop-color="#4776E6"/>
<stop offset="1" stop-color="#8E54E9"/>
</linearGradient>
</defs>
</svg>
