<svg width="220" height="57" viewBox="0 0 220 57" fill="none" xmlns="http://www.w3.org/2000/svg">
<path d="M13.9082 22.0343C13.774 22.0616 13.5657 22.1103 13.5657 22.1103L13.4134 22.1484L12.8425 22.3004L12.6141 22.3765L12.4238 22.4525L12.0813 22.6046L11.8148 22.7567L11.3961 23.0228L10.9774 23.403L10.5968 23.8593L10.2923 24.3535L10.0639 24.8098L9.83557 25.3801L9.64526 25.9884C9.64526 25.9884 9.53843 26.3561 9.49301 26.5968C9.45133 26.8176 9.44688 26.9444 9.41688 27.1671C9.37287 27.4938 9.33758 27.6757 9.3027 28.0035C9.25389 28.4622 9.25006 28.7215 9.22657 29.1822C9.20766 29.5532 9.20337 29.7615 9.18851 30.1327C9.17365 30.5039 9.16055 30.7118 9.15045 31.0832C9.12905 31.8698 9.15045 32.3113 9.15045 33.0983V34.7712V36.292V38.2889V39.1816L9.22657 40.7024L9.26463 41.3868C9.26463 41.3868 9.33262 42.5518 9.45495 43.2878C9.51701 43.6612 9.54107 43.8743 9.64526 44.2383C9.7591 44.636 9.84401 44.8553 10.0259 45.2268C10.1457 45.4717 10.215 45.6098 10.3684 45.8352C10.452 45.9579 10.5032 46.024 10.5968 46.1393C10.7095 46.2782 10.7718 46.3581 10.9013 46.4815C11.039 46.6128 11.1253 46.6776 11.2819 46.7857C11.4519 46.9029 11.7387 47.0518 11.7387 47.0518L12.2716 47.318L12.9567 47.5841L13.756 47.8122L14.5172 47.9643L15.1643 48.0404L16.3823 48.1544L18.1332 48.2685C18.1332 48.2685 19.7106 48.2999 20.7214 48.3065C21.5241 48.3117 21.9743 48.3229 22.7768 48.3065C23.7586 48.2865 24.3081 48.243 25.2889 48.1924C26.3149 48.1396 26.8906 48.116 27.9152 48.0404C29.315 47.937 30.0965 47.8385 31.4931 47.6982C32.0729 47.6399 32.9775 47.5461 32.9775 47.5461V53.8195V53.8575C32.9775 53.8575 32.6992 53.9042 32.5208 53.9335C32.1494 53.9946 31.9416 54.0313 31.5692 54.0856C31.1143 54.152 30.8562 54.1825 30.4038 54.236L30.3893 54.2377C29.8252 54.3044 29.5073 54.3268 28.9429 54.3898C28.4372 54.4463 28.1546 54.4863 27.6488 54.5419C27.218 54.5892 26.9764 54.6152 26.545 54.6559C26.0104 54.7064 25.7103 54.7308 25.1747 54.77C24.7142 54.8037 24.4557 54.819 23.9948 54.846C23.4153 54.88 23.0903 54.8968 22.5103 54.9221C22.124 54.9389 21.9075 54.9563 21.5207 54.9601C21.387 54.9614 21.1782 54.9601 21.1782 54.9601C21.1782 54.9601 20.3432 54.992 19.8079 54.9981C19.4363 55.0023 19.228 54.9981 18.8564 54.9981C18.6631 54.9981 18.5548 54.9992 18.3615 54.9981C17.7222 54.9947 17.3642 54.9611 16.7249 54.9601C16.6803 54.96 16.6553 54.9603 16.6107 54.9601C16.2685 54.9584 16.2258 54.9518 15.7352 54.9221L14.4792 54.846C13.9887 54.8163 13.9687 54.8012 13.6418 54.77C13.3444 54.7416 13.1774 54.7278 12.8806 54.694C12.538 54.6549 12.3463 54.6295 12.0051 54.5799C11.7222 54.5388 11.5641 54.5119 11.2819 54.4658C11.1035 54.4367 11.0029 54.4232 10.8252 54.3898C10.616 54.3504 10.4995 54.3243 10.2923 54.2757C10.008 54.2091 9.85024 54.1647 9.56913 54.0856C9.22515 53.9889 9.03286 53.9319 8.6937 53.8195C8.43937 53.7352 8.29664 53.6877 8.04664 53.5914C7.54395 53.3976 7.26582 53.2747 6.79058 53.0211C6.57918 52.9082 6.25771 52.7169 6.25771 52.7169C6.25771 52.7169 5.83049 52.4525 5.57258 52.2606C5.27645 52.0404 5.1209 51.9023 4.8494 51.6523C4.60208 51.4246 4.46424 51.2947 4.2404 51.044C3.96919 50.7402 3.83521 50.5503 3.60324 50.2216L3.59334 50.2075C3.38905 49.918 3.27756 49.7528 3.09853 49.4471C2.9206 49.1433 2.82826 48.9679 2.67984 48.6487C2.51164 48.2869 2.43526 48.0752 2.30011 47.7007L2.29922 47.6982C2.13024 47.2299 2.04604 46.9628 1.91859 46.4815C1.79407 46.0113 1.74246 45.7428 1.65216 45.2649C1.58508 44.9099 1.55418 44.7095 1.49991 44.3524C1.4324 43.9081 1.39482 43.6587 1.34766 43.2117C1.31013 42.8561 1.30126 42.6556 1.27153 42.2993C1.22694 41.7647 1.19397 41.4656 1.15735 40.9305C1.11877 40.3668 1.10302 40.0503 1.08122 39.4857C1.05372 38.7734 1.05612 38.3735 1.04316 37.6607C1.02425 36.6215 1.01024 36.0388 1.0051 34.9993C1.00238 34.4499 0.995132 34.1418 1.0051 33.5925C1.01803 32.8793 1.05117 32.4802 1.08122 31.7676C1.11064 31.0697 1.11543 30.6778 1.15735 29.9806C1.19309 29.3861 1.22039 29.0532 1.27153 28.4598C1.33559 27.7164 1.3671 27.2988 1.46184 26.5587C1.52664 26.0526 1.56178 25.7683 1.65216 25.266C1.75171 24.7128 1.81015 24.402 1.95666 23.8593C2.0497 23.5146 2.11179 23.324 2.22309 22.9848C2.36073 22.5653 2.4364 22.3288 2.60372 21.9202C2.71456 21.6495 2.78008 21.4988 2.90822 21.2359C3.03334 20.9791 3.13186 20.7974 3.25078 20.5895L3.55528 20.0572C3.67419 19.8494 3.80526 19.7057 3.97396 19.4869C4.16094 19.2444 4.2633 19.1057 4.46877 18.8786C4.6661 18.6605 5.00165 18.3463 5.00165 18.3463L5.19196 18.1562C5.19196 18.1562 5.44218 17.9413 5.61065 17.814C5.79806 17.6724 5.91002 17.6022 6.10546 17.4718C6.31118 17.3346 6.42501 17.2548 6.63833 17.1296C6.85622 17.0018 6.98317 16.9382 7.20927 16.8255C7.42942 16.7157 7.55418 16.6565 7.7802 16.5593C8.04391 16.446 8.19527 16.3905 8.46532 16.2932C8.73063 16.1976 8.86803 16.1393 9.15045 16.0651L9.87363 15.875C10.1561 15.8007 10.3359 15.752 10.6349 15.6849C10.9307 15.6185 11.0977 15.5864 11.3961 15.5328C11.781 15.4637 11.9989 15.4378 12.3858 15.3807C12.6977 15.3347 12.8721 15.3049 13.1851 15.2666C13.674 15.2068 13.9501 15.1909 14.4411 15.1526C14.8867 15.1178 15.1367 15.1008 15.583 15.0765C15.9099 15.0588 16.0933 15.0514 16.4204 15.0385C16.9107 15.0192 17.6764 15.0005 17.6764 15.0005H18.7802C18.9289 15.0005 19.0122 14.9994 19.1609 15.0005C19.6367 15.004 19.9033 15.0203 20.3789 15.0385C20.7208 15.0516 20.9127 15.0557 21.2543 15.0765C21.6264 15.0992 21.8346 15.1192 22.2058 15.1526C22.7715 15.2034 23.0893 15.2293 23.6522 15.3047C24.0398 15.3565 24.2572 15.3866 24.6418 15.4567C25.0606 15.5331 25.2925 15.5905 25.7076 15.6849C26.14 15.7831 26.385 15.8293 26.8114 15.951C27.0962 16.0323 27.255 16.0816 27.5346 16.1791C27.8812 16.3 28.0735 16.3748 28.41 16.5213C28.666 16.6328 28.81 16.6955 29.0571 16.8255C29.3638 16.9868 29.5306 17.0885 29.8183 17.2817C30.0478 17.4358 30.1762 17.5239 30.3893 17.7C30.5595 17.8406 30.6444 17.9317 30.8079 18.0802C30.9715 18.2286 31.0735 18.3012 31.2266 18.4604C31.3875 18.6276 31.462 18.7356 31.6073 18.9166C31.7597 19.1066 31.8463 19.2126 31.9879 19.4109C32.1124 19.5852 32.1821 19.6835 32.2924 19.8671C32.3882 20.0266 32.4347 20.1204 32.5208 20.2853C32.5976 20.4326 32.6404 20.5153 32.7111 20.6656C32.7734 20.7979 32.8633 21.0077 32.8633 21.0077L32.9014 21.0838C32.9014 21.0838 32.9738 21.2448 33.0156 21.3499C33.1023 21.5681 33.2059 21.9202 33.2059 21.9202L33.4343 22.6046C33.4343 22.6046 33.5327 22.9275 33.5865 23.1369C33.6358 23.3288 33.7007 23.6312 33.7007 23.6312C33.7007 23.6312 33.7693 23.9558 33.8149 24.1634C33.8442 24.2972 33.8634 24.3715 33.891 24.5056C33.9667 24.8739 34.0433 25.4561 34.0433 25.4561L34.2336 27.1291L34.3858 29.4863C34.3858 29.4863 34.4566 30.7603 34.4619 31.5775C34.4631 31.7556 34.4619 32.0337 34.4619 32.0337L34.5 33.4024V34.6951V35.7217V37.6607H28.7526H27.0398H26.7353V37.2425V36.6722V35.6837V34.6951V33.9728V33.0222V32.1858C26.7353 32.1858 26.7415 31.6064 26.7353 31.2353C26.7283 30.8193 26.6972 30.1707 26.6972 30.1707L26.6591 29.2202L26.583 28.4217C26.583 28.4217 26.5272 27.8405 26.4688 27.4712C26.4193 27.1577 26.3792 26.984 26.3166 26.6728C26.2597 26.3902 26.2321 26.2306 26.1643 25.9504C26.1102 25.7264 26.084 25.5991 26.0121 25.3801C25.9476 25.1836 25.8975 25.0783 25.8218 24.8858C25.7632 24.737 25.6695 24.5056 25.6695 24.5056C25.6695 24.5056 25.5174 24.2212 25.4031 24.0494C25.2681 23.8466 25.0225 23.5551 25.0225 23.5551L24.5277 23.0609C24.5277 23.0609 24.3919 22.9406 24.2993 22.8707C24.1446 22.7541 24.0496 22.6993 23.8806 22.6046C23.7357 22.5234 23.6523 22.481 23.5 22.4145C23.2975 22.3261 23.1784 22.2889 22.9671 22.2244C22.7326 22.1528 22.3581 22.0723 22.3581 22.0723L21.5588 21.9202L20.7214 21.8062L19.8079 21.7301C19.8079 21.7301 19.1818 21.6995 18.7802 21.6921C18.379 21.6847 18.1538 21.6861 17.7525 21.6921C17.2916 21.699 17.033 21.7061 16.5726 21.7301L16.5671 21.7304C16.3314 21.7427 16.1259 21.7534 15.9636 21.7682C15.9636 21.7682 15.7084 21.7906 15.5449 21.8062C15.3962 21.8204 15.3127 21.8273 15.1643 21.8442C15.1643 21.8442 14.9786 21.8663 14.8598 21.8822C14.7556 21.8962 14.6974 21.9054 14.5934 21.9202C14.4893 21.9351 14.4308 21.9419 14.3269 21.9583C14.1628 21.9841 14.0711 22.0011 13.9082 22.0343Z" fill="white"/>
<g opacity="0.9" filter="url(#filter0_b_8851_356)">
<path d="M5.58991 38.1215L5.26497 38.1974L4.68729 38.3493C4.68729 38.3493 4.35405 38.4629 4.29014 38.653C4.25256 38.7648 4.29014 38.9567 4.29014 38.9567L4.36235 39.2604L4.47067 39.7919L4.57898 40.2855L4.65119 40.5892L4.7595 41.0827L4.86782 41.5762L4.97613 42.0698L5.08444 42.5633L5.15665 42.905L5.26497 43.3985L5.40939 44.0439L5.4816 44.3476C5.4816 44.3476 5.52612 44.5019 5.58991 44.5754C5.68356 44.6832 5.77787 44.7512 5.91485 44.7272C6.13149 44.6893 6.42032 44.6133 6.42032 44.6133L7.0702 44.4615L7.57566 44.3476L8.40607 44.1578L9.05595 44.0059L9.70584 43.8541L10.5362 43.6642L11.3305 43.4744L11.836 43.3605L12.3415 43.2466L12.8469 43.1327L13.6412 42.9429L14.4716 42.7531L15.1215 42.6012L15.8075 42.4494L16.4213 42.2975L17.2517 42.1077L17.9016 41.9559L18.9125 41.7281L19.7068 41.5383L20.5733 41.3484L21.2232 41.1966L21.8731 41.0447L22.3425 40.9308L22.8479 40.8169L23.3534 40.7031L23.8227 40.5892L24.3282 40.4753L24.7976 40.3614L25.303 40.2475L25.8085 40.1336L26.314 40.0197L26.9638 39.8679L27.4693 39.754L28.1192 39.6021L28.5886 39.4882L29.2384 39.3364L29.7439 39.2225L30.2494 39.1086L30.8993 38.9567L31.5491 38.8049L32.3795 38.615L33.0294 38.4632C33.0294 38.4632 33.1739 38.4252 33.2822 38.3873C33.4159 38.3404 33.4692 38.2285 33.4988 38.0836C33.5136 38.0111 33.4988 37.8937 33.4988 37.8937L33.3544 37.1345L33.21 36.3752L33.0294 35.3881L32.885 34.6288L32.7406 33.8316L32.5962 33.0723L32.4518 32.313L32.3796 32.0094C32.3457 31.867 32.2592 31.79 32.1268 31.7436C32.0332 31.7108 31.8741 31.7436 31.8741 31.7436L31.6936 31.7816L31.1159 31.9334L30.1772 32.1612L29.1662 32.389L28.1192 32.6547L27.6498 32.7686L27.3249 32.8445L26.8555 32.9584L26.3862 33.0723L25.9168 33.1862L25.5919 33.2621L25.1225 33.376L24.6532 33.4899L24.1838 33.6038L23.7144 33.7177L23.2451 33.8316L22.7757 33.9455L22.3064 34.0594L21.6926 34.2112L21.0788 34.3631L20.4289 34.515L19.9595 34.6288L19.3458 34.7807L18.732 34.9326L18.0821 35.0844L17.3239 35.2742L16.999 35.3502L16.5296 35.464L16.0602 35.5779L15.5909 35.6918L15.1215 35.8057L14.6522 35.9196L14.1828 36.0335L13.7135 36.1474L13.0997 36.2993L12.6303 36.4131L12.161 36.527L11.836 36.603L11.3666 36.7169L10.6085 36.9067L9.95857 37.0585L9.01985 37.2863L8.40607 37.4382L7.61177 37.628L6.99799 37.7798L6.52863 37.8937L6.05927 38.0076L5.58991 38.1215Z" fill="white" fill-opacity="0.8"/>
</g>
<path d="M46.2807 55V1.36H80.2647V7.84H53.3367V25.192H77.7447V31.672H53.3367V55H46.2807ZM85.2856 55V16.192H91.8376V23.32L91.1176 22.312C92.0296 20.104 93.4216 18.472 95.2936 17.416C97.1656 16.312 99.4456 15.76 102.134 15.76H104.51V22.096H101.126C98.3896 22.096 96.1816 22.96 94.5016 24.688C92.8216 26.368 91.9816 28.768 91.9816 31.888V55H85.2856ZM128.889 55.864C125.145 55.864 121.761 55 118.737 53.272C115.713 51.496 113.313 49.072 111.537 46C109.761 42.928 108.873 39.448 108.873 35.56C108.873 31.672 109.737 28.216 111.465 25.192C113.241 22.168 115.641 19.768 118.665 17.992C121.689 16.216 125.097 15.328 128.889 15.328C132.633 15.328 136.017 16.216 139.041 17.992C142.065 19.72 144.441 22.096 146.169 25.12C147.945 28.144 148.833 31.624 148.833 35.56C148.833 39.496 147.921 43 146.097 46.072C144.273 49.096 141.849 51.496 138.825 53.272C135.849 55 132.537 55.864 128.889 55.864ZM128.889 49.384C131.289 49.384 133.449 48.784 135.369 47.584C137.337 46.384 138.873 44.728 139.977 42.616C141.129 40.504 141.705 38.152 141.705 35.56C141.705 32.92 141.129 30.592 139.977 28.576C138.873 26.512 137.337 24.88 135.369 23.68C133.449 22.432 131.289 21.808 128.889 21.808C126.441 21.808 124.233 22.432 122.265 23.68C120.345 24.88 118.809 26.512 117.657 28.576C116.505 30.592 115.929 32.92 115.929 35.56C115.929 38.152 116.505 40.504 117.657 42.616C118.809 44.728 120.345 46.384 122.265 47.584C124.233 48.784 126.441 49.384 128.889 49.384ZM157.567 55V16.192H164.119V23.752L163.039 23.104C163.999 20.656 165.535 18.76 167.647 17.416C169.807 16.024 172.327 15.328 175.207 15.328C177.991 15.328 180.463 15.952 182.623 17.2C184.831 18.448 186.559 20.176 187.807 22.384C189.103 24.592 189.751 27.088 189.751 29.872V55H182.983V32.032C182.983 29.872 182.599 28.048 181.831 26.56C181.063 25.072 179.959 23.92 178.519 23.104C177.127 22.24 175.519 21.808 173.695 21.808C171.871 21.808 170.239 22.24 168.799 23.104C167.407 23.92 166.303 25.096 165.487 26.632C164.671 28.12 164.263 29.92 164.263 32.032V55H157.567ZM215.1 55.432C211.308 55.432 208.38 54.352 206.316 52.192C204.3 50.032 203.292 46.984 203.292 43.048V22.6H196.236V16.192H197.676C199.404 16.192 200.772 15.664 201.78 14.608C202.788 13.552 203.292 12.16 203.292 10.432V7.264H209.988V16.192H218.7V22.6H209.988V42.832C209.988 44.128 210.18 45.256 210.564 46.216C210.996 47.176 211.692 47.944 212.652 48.52C213.612 49.048 214.884 49.312 216.468 49.312C216.804 49.312 217.212 49.288 217.692 49.24C218.22 49.192 218.7 49.144 219.132 49.096V55C218.508 55.144 217.812 55.24 217.044 55.288C216.276 55.384 215.628 55.432 215.1 55.432Z" fill="white"/>
<defs>
<filter id="filter0_b_8851_356" x="-3.72656" y="23.729" width="45.2314" height="29.0031" filterUnits="userSpaceOnUse" color-interpolation-filters="sRGB">
<feFlood flood-opacity="0" result="BackgroundImageFix"/>
<feGaussianBlur in="BackgroundImageFix" stdDeviation="4"/>
<feComposite in2="SourceAlpha" operator="in" result="effect1_backgroundBlur_8851_356"/>
<feBlend mode="normal" in="SourceGraphic" in2="effect1_backgroundBlur_8851_356" result="shape"/>
</filter>
</defs>
</svg>
