<svg width="1080" height="1080" viewBox="0 0 1080 1080" fill="none" xmlns="http://www.w3.org/2000/svg">
<rect width="1080" height="1080" rx="40" fill="url(#paint0_linear_5649_2572)"/>
<path d="M489.567 369.506C487.803 369.866 485.067 370.506 485.067 370.506L483.067 371.006L475.567 373.006L472.567 374.006L470.067 375.006L465.567 377.006L462.067 379.006L456.567 382.506L451.067 387.506L446.067 393.506L442.067 400.006L439.067 406.006L436.067 413.506L433.567 421.506C433.567 421.506 432.164 426.342 431.567 429.506C431.02 432.41 430.961 434.078 430.567 437.006C429.989 441.303 429.525 443.695 429.067 448.006C428.426 454.038 428.375 457.449 428.067 463.506C427.818 468.386 427.762 471.125 427.567 476.006C427.372 480.888 427.2 483.623 427.067 488.506C426.786 498.852 427.067 504.658 427.067 515.006V537.006V557.006V583.267V595.006L428.067 615.006L428.567 624.006C428.567 624.006 429.46 639.327 431.067 649.006C431.882 653.917 432.198 656.72 433.567 661.506C435.062 666.736 436.178 669.62 438.567 674.506C440.141 677.727 441.051 679.543 443.067 682.506C444.165 684.121 444.837 684.99 446.067 686.506C447.548 688.333 448.366 689.383 450.067 691.006C451.876 692.733 453.009 693.585 455.067 695.006C457.299 696.548 461.067 698.506 461.067 698.506L468.067 702.006L477.067 705.506L487.567 708.506L497.567 710.506L506.067 711.506L522.067 713.006L545.067 714.506C545.067 714.506 565.788 714.92 579.067 715.006C589.611 715.075 595.525 715.222 606.067 715.006C618.965 714.743 626.183 714.171 639.067 713.506C652.545 712.811 660.108 712.501 673.567 711.506C691.955 710.147 702.221 708.851 720.567 707.006C728.184 706.24 740.067 705.006 740.067 705.006V787.506V788.006C740.067 788.006 736.411 788.621 734.067 789.006C729.189 789.809 726.459 790.292 721.567 791.006C715.592 791.879 712.201 792.281 706.26 792.984L706.067 793.006C698.658 793.883 694.482 794.178 687.067 795.006C680.424 795.749 676.712 796.276 670.067 797.006C664.408 797.629 661.235 797.971 655.567 798.506C648.544 799.17 644.602 799.491 637.567 800.006C631.517 800.449 628.122 800.651 622.067 801.006C614.455 801.453 610.185 801.674 602.567 802.006C597.491 802.228 594.647 802.456 589.567 802.506C587.81 802.524 585.067 802.506 585.067 802.506C585.067 802.506 574.099 802.926 567.067 803.006C562.186 803.062 559.448 803.006 554.567 803.006C552.029 803.006 550.605 803.02 548.067 803.006C539.669 802.961 534.965 802.519 526.567 802.506C525.981 802.506 525.653 802.509 525.067 802.506C520.572 802.484 520.011 802.397 513.567 802.006L497.067 801.006C490.623 800.616 490.361 800.417 486.067 800.006C482.16 799.633 479.966 799.451 476.067 799.006C471.567 798.493 469.049 798.158 464.567 797.506C460.85 796.966 458.774 796.612 455.067 796.006C452.723 795.624 451.401 795.446 449.067 795.006C446.32 794.489 444.789 794.145 442.067 793.506C438.332 792.63 436.26 792.046 432.567 791.006C428.048 789.734 425.522 788.985 421.067 787.506C417.726 786.397 415.851 785.774 412.567 784.506C405.963 781.958 402.31 780.342 396.067 777.006C393.29 775.523 389.067 773.006 389.067 773.006C389.067 773.006 383.455 769.529 380.067 767.006C376.177 764.11 374.133 762.293 370.567 759.006C367.318 756.012 365.507 754.304 362.567 751.006C359.004 747.011 357.244 744.514 354.197 740.191L354.067 740.006C351.383 736.199 349.919 734.027 347.567 730.006C345.23 726.011 344.017 723.705 342.067 719.506C339.857 714.748 338.854 711.965 337.079 707.039L337.067 707.006C334.847 700.848 333.741 697.335 332.067 691.006C330.431 684.823 329.753 681.292 328.567 675.006C327.686 670.338 327.28 667.704 326.567 663.006C325.68 657.164 325.187 653.884 324.567 648.006C324.074 643.33 323.957 640.693 323.567 636.006C322.981 628.977 322.548 625.044 322.067 618.006C321.56 610.594 321.353 606.431 321.067 599.006C320.706 589.639 320.737 584.38 320.567 575.006C320.319 561.339 320.134 553.676 320.067 540.006C320.031 532.782 319.936 528.73 320.067 521.506C320.237 512.127 320.672 506.879 321.067 497.506C321.453 488.329 321.516 483.176 322.067 474.006C322.536 466.188 322.895 461.81 323.567 454.006C324.408 444.231 324.822 438.739 326.067 429.006C326.918 422.35 327.38 418.611 328.567 412.006C329.875 404.731 330.642 400.643 332.567 393.506C333.789 388.974 334.605 386.467 336.067 382.006C337.875 376.49 338.869 373.38 341.067 368.006C342.523 364.447 343.384 362.465 345.067 359.006C346.711 355.629 348.005 353.24 349.567 350.506L353.567 343.506C355.129 340.773 356.851 338.884 359.067 336.006C361.523 332.817 362.868 330.993 365.567 328.006C368.159 325.138 372.567 321.006 372.567 321.006L375.067 318.506C375.067 318.506 378.354 315.681 380.567 314.006C383.029 312.143 384.5 311.221 387.067 309.506C389.769 307.701 391.265 306.652 394.067 305.006C396.929 303.325 398.597 302.489 401.567 301.006C404.459 299.563 406.098 298.784 409.067 297.506C412.531 296.016 414.519 295.286 418.067 294.006C421.552 292.75 423.357 291.983 427.067 291.006L436.567 288.506C440.277 287.53 442.639 286.889 446.567 286.006C450.453 285.133 452.647 284.711 456.567 284.006C461.622 283.098 464.486 282.757 469.567 282.006C473.665 281.401 475.956 281.01 480.067 280.506C486.489 279.72 490.116 279.511 496.567 279.006C502.42 278.549 505.705 278.325 511.567 278.006C515.861 277.773 518.27 277.676 522.567 277.506C529.009 277.253 539.067 277.006 539.067 277.006H553.567C555.52 277.006 556.614 276.992 558.567 277.006C564.818 277.053 568.32 277.267 574.567 277.506C579.059 277.679 581.58 277.733 586.067 278.006C590.955 278.304 593.69 278.567 598.567 279.006C605.998 279.675 610.172 280.016 617.567 281.006C622.658 281.688 625.514 282.084 630.567 283.006C636.067 284.011 639.115 284.766 644.567 286.006C650.247 287.299 653.466 287.906 659.067 289.506C662.808 290.575 664.894 291.224 668.567 292.506C673.12 294.096 675.646 295.08 680.067 297.006C683.43 298.472 685.321 299.297 688.567 301.006C692.597 303.129 694.787 304.466 698.567 307.006C701.581 309.033 703.268 310.191 706.067 312.506C708.304 314.357 709.419 315.554 711.567 317.506C713.715 319.459 715.055 320.414 717.067 322.506C719.181 324.706 720.159 326.127 722.067 328.506C724.07 331.005 725.207 332.399 727.067 335.006C728.702 337.299 729.618 338.592 731.067 341.006C732.326 343.104 732.936 344.337 734.067 346.506C735.076 348.442 735.638 349.531 736.567 351.506C737.385 353.247 738.567 356.006 738.567 356.006L739.067 357.006C739.067 357.006 740.018 359.124 740.567 360.506C741.706 363.376 743.067 368.006 743.067 368.006L746.067 377.006C746.067 377.006 747.36 381.253 748.067 384.006C748.715 386.53 749.567 390.506 749.567 390.506C749.567 390.506 750.469 394.776 751.067 397.506C751.452 399.265 751.705 400.243 752.067 402.006C753.062 406.849 754.067 414.506 754.067 414.506L756.567 436.506L758.567 467.506C758.567 467.506 759.497 484.26 759.567 495.006C759.582 497.35 759.567 501.006 759.567 501.006L760.067 519.006V536.006V549.506V575.006H684.567H662.067H658.067V569.506V562.006V549.006V536.006V526.506V514.006V503.006C658.067 503.006 658.149 495.387 658.067 490.506C657.975 485.036 657.567 476.506 657.567 476.506L657.067 464.006L656.067 453.506C656.067 453.506 655.334 445.863 654.567 441.006C653.916 436.883 653.389 434.599 652.567 430.506C651.82 426.789 651.457 424.692 650.567 421.006C649.855 418.06 649.511 416.387 648.567 413.506C647.72 410.922 647.062 409.537 646.067 407.006C645.297 405.049 644.067 402.006 644.067 402.006C644.067 402.006 642.068 398.266 640.567 396.006C638.794 393.339 635.567 389.506 635.567 389.506L629.067 383.006C629.067 383.006 627.284 381.426 626.067 380.506C624.035 378.972 622.787 378.252 620.567 377.006C618.663 375.938 617.567 375.38 615.567 374.506C612.907 373.344 611.343 372.855 608.567 372.006C605.487 371.065 600.567 370.006 600.567 370.006L590.067 368.006L579.067 366.506L567.067 365.506C567.067 365.506 558.842 365.104 553.567 365.006C548.296 364.909 545.338 364.927 540.067 365.006C534.011 365.097 530.615 365.191 524.567 365.506L524.495 365.51C521.399 365.672 518.698 365.813 516.567 366.006C516.567 366.006 513.214 366.301 511.067 366.506C509.113 366.693 508.017 366.784 506.067 367.006C506.067 367.006 503.627 367.297 502.067 367.506C500.699 367.691 499.934 367.811 498.567 368.006C497.2 368.202 496.431 368.291 495.067 368.506C492.911 368.847 491.706 369.07 489.567 369.506Z" fill="white"/>
<g opacity="0.9" filter="url(#filter0_b_5649_2572)">
<path d="M380.294 581.066L376.025 582.065L368.437 584.062C368.437 584.062 364.059 585.556 363.219 588.056C362.726 589.527 363.219 592.05 363.219 592.05L364.168 596.044L365.591 603.034L367.014 609.524L367.962 613.518L369.385 620.008L370.808 626.499L372.231 632.989L373.654 639.479L374.602 643.973L376.025 650.463L377.922 658.95L378.871 662.944C378.871 662.944 379.456 664.974 380.294 665.94C381.524 667.358 382.763 668.252 384.562 667.937C387.408 667.438 391.202 666.439 391.202 666.439L399.739 664.442L406.379 662.944L417.288 660.448L425.825 658.451L434.362 656.454L445.27 653.958L455.704 651.461L462.344 649.964L468.984 648.466L475.624 646.968L486.059 644.472L496.967 641.975L505.504 639.978L514.515 637.981L522.578 635.984L533.487 633.488L542.024 631.491L555.304 628.496L565.738 625.999L577.121 623.503L585.658 621.506L594.195 619.509L600.361 618.011L607.001 616.514L613.64 615.016L619.806 613.518L626.446 612.02L632.612 610.522L639.252 609.025L645.892 607.527L652.532 606.029L661.069 604.032L667.709 602.534L676.246 600.537L682.411 599.04L690.948 597.043L697.588 595.545L704.228 594.047L712.765 592.05L721.303 590.053L732.211 587.557L740.748 585.56C740.748 585.56 742.645 585.061 744.068 584.561C745.825 583.944 746.526 582.474 746.914 580.567C747.108 579.614 746.914 578.071 746.914 578.071L745.017 568.086L743.12 558.101L740.748 545.12L738.851 535.135L736.954 524.651L735.057 514.666L733.16 504.681L732.211 500.687C731.766 498.814 730.63 497.802 728.891 497.192C727.661 496.76 725.571 497.192 725.571 497.192L723.2 497.691L715.611 499.688L703.28 502.684L690 505.679L676.246 509.174L670.08 510.672L665.811 511.67L659.646 513.168L653.48 514.666L647.314 516.163L643.046 517.162L636.88 518.66L630.715 520.158L624.549 521.655L618.383 523.153L612.218 524.651L606.052 526.149L599.886 527.646L591.823 529.643L583.761 531.64L575.224 533.637L569.058 535.135L560.995 537.132L552.932 539.129L544.395 541.126L534.435 543.622L530.167 544.621L524.001 546.119L517.835 547.616L511.67 549.114L505.504 550.612L499.338 552.11L493.173 553.608L487.007 555.105L478.944 557.102L472.779 558.6L466.613 560.098L462.344 561.096L456.179 562.594L446.219 565.09L437.682 567.087L425.35 570.083L417.288 572.08L406.853 574.576L398.791 576.573L392.625 578.071L386.459 579.569L380.294 581.066Z" fill="white" fill-opacity="0.8"/>
</g>
<defs>
<filter id="filter0_b_5649_2572" x="355" y="489" width="400" height="187" filterUnits="userSpaceOnUse" color-interpolation-filters="sRGB">
<feFlood flood-opacity="0" result="BackgroundImageFix"/>
<feGaussianBlur in="BackgroundImageFix" stdDeviation="4"/>
<feComposite in2="SourceAlpha" operator="in" result="effect1_backgroundBlur_5649_2572"/>
<feBlend mode="normal" in="SourceGraphic" in2="effect1_backgroundBlur_5649_2572" result="shape"/>
</filter>
<linearGradient id="paint0_linear_5649_2572" x1="871.031" y1="-54" x2="196.949" y2="569.636" gradientUnits="userSpaceOnUse">
<stop stop-color="#8e54e9"/>
<stop offset="1" stop-color="#4776e6"/>
</linearGradient>
</defs>
</svg>
