<svg width="100" height="24" viewBox="0 0 100 24" fill="none" xmlns="http://www.w3.org/2000/svg">
<g clip-path="url(#clip0_1982_86)">
<path d="M20.336 23V0.599998H34.16V3.736H23.792V10.2H33.328V13.336H23.792V23H20.336ZM37.6195 23V7.224H40.8515V9.08H41.3635C41.6195 8.41867 42.0248 7.93867 42.5795 7.64C43.1555 7.32 43.8595 7.16 44.6915 7.16H46.5795V10.136H44.5635C43.4968 10.136 42.6222 10.4347 41.9395 11.032C41.2568 11.608 40.9155 12.504 40.9155 13.72V23H37.6195ZM56.824 23.448C55.2453 23.448 53.8373 23.128 52.6 22.488C51.384 21.8267 50.424 20.888 49.72 19.672C49.016 18.456 48.664 17.016 48.664 15.352V14.872C48.664 13.208 49.016 11.7787 49.72 10.584C50.424 9.368 51.384 8.42933 52.6 7.768C53.8373 7.10667 55.2453 6.776 56.824 6.776C58.4027 6.776 59.8107 7.10667 61.048 7.768C62.2853 8.42933 63.256 9.368 63.96 10.584C64.664 11.7787 65.016 13.208 65.016 14.872V15.352C65.016 17.016 64.664 18.456 63.96 19.672C63.256 20.888 62.2853 21.8267 61.048 22.488C59.8107 23.128 58.4027 23.448 56.824 23.448ZM56.824 20.504C58.2747 20.504 59.448 20.0453 60.344 19.128C61.2613 18.1893 61.72 16.8987 61.72 15.256V14.968C61.72 13.3253 61.272 12.0453 60.376 11.128C59.48 10.1893 58.296 9.72 56.824 9.72C55.3947 9.72 54.2213 10.1893 53.304 11.128C52.408 12.0453 51.96 13.3253 51.96 14.968V15.256C51.96 16.8987 52.408 18.1893 53.304 19.128C54.2213 20.0453 55.3947 20.504 56.824 20.504ZM69.1195 23V7.224H72.3515V9.592H72.8635C73.1622 8.952 73.6955 8.35467 74.4635 7.8C75.2315 7.24533 76.3728 6.968 77.8875 6.968C79.0822 6.968 80.1382 7.23467 81.0555 7.768C81.9942 8.30133 82.7302 9.05867 83.2635 10.04C83.7968 11 84.0635 12.1627 84.0635 13.528V23H80.7675V13.784C80.7675 12.4187 80.4262 11.416 79.7435 10.776C79.0608 10.1147 78.1222 9.784 76.9275 9.784C75.5622 9.784 74.4635 10.232 73.6315 11.128C72.8208 12.024 72.4155 13.3253 72.4155 15.032V23H69.1195ZM94.2895 23C93.3295 23 92.5615 22.712 91.9855 22.136C91.4308 21.56 91.1535 20.792 91.1535 19.832V10.008H86.8015V7.224H91.1535V2.008H94.4495V7.224H99.1535V10.008H94.4495V19.256C94.4495 19.896 94.7482 20.216 95.3455 20.216H98.6415V23H94.2895Z" fill="white"/>
<path d="M5.76513 8.14514C5.70516 8.15737 5.61213 8.17913 5.61213 8.17913L5.54414 8.19614L5.28914 8.26414L5.18714 8.29814L5.10215 8.33213L4.94915 8.40014L4.83016 8.46813L4.64316 8.58713L4.45617 8.75713L4.28616 8.96113L4.15017 9.18212L4.04818 9.38612L3.94618 9.6411L3.86117 9.91309C3.86117 9.91309 3.81346 10.0775 3.79318 10.1851C3.77456 10.2838 3.77259 10.3405 3.75919 10.4401C3.73953 10.5862 3.72376 10.6675 3.70819 10.8141C3.68638 11.0192 3.68468 11.1351 3.67418 11.3411C3.66574 11.5069 3.66382 11.6001 3.65719 11.7661C3.65055 11.932 3.6447 12.025 3.64018 12.191C3.63063 12.5428 3.64018 12.7402 3.64018 13.092V13.84V14.52V15.4128V15.812L3.67418 16.4919L3.69118 16.7979C3.69118 16.7979 3.72154 17.3188 3.77618 17.6479C3.8039 17.8149 3.81464 17.9102 3.86117 18.0729C3.91203 18.2507 3.94995 18.3487 4.03118 18.5149C4.0847 18.6244 4.11562 18.6861 4.18418 18.7869C4.2215 18.8418 4.24437 18.8713 4.28616 18.9229C4.33651 18.985 4.36434 19.0207 4.42217 19.0759C4.48367 19.1346 4.52221 19.1635 4.59216 19.2119C4.66806 19.2643 4.79616 19.3309 4.79616 19.3309L5.03414 19.4499L5.34014 19.5689L5.69713 19.6709L6.03712 19.7388L6.32612 19.7728L6.8701 19.8239L7.65209 19.8748C7.65209 19.8748 8.35659 19.8889 8.80806 19.8918C9.16654 19.8941 9.36762 19.8992 9.72603 19.8918C10.1645 19.8829 10.41 19.8634 10.848 19.8409C11.3062 19.8173 11.5634 19.8067 12.021 19.7728C12.6462 19.7267 12.9952 19.6825 13.6189 19.6198C13.8779 19.5938 14.2819 19.5519 14.2819 19.5519V22.3567V22.3737C14.2819 22.3737 14.1576 22.3947 14.0779 22.4078C13.9121 22.435 13.8193 22.4515 13.6529 22.4757C13.4497 22.5054 13.3344 22.5191 13.1324 22.5431L13.126 22.5438C12.874 22.5737 12.7321 22.5836 12.48 22.6117C12.2541 22.637 12.1279 22.655 11.902 22.6798C11.7096 22.701 11.6017 22.7125 11.409 22.7307C11.1702 22.7534 11.0362 22.7643 10.797 22.7818C10.5913 22.7968 10.4759 22.8037 10.27 22.8158C10.0112 22.831 9.86605 22.8385 9.60704 22.8497C9.43447 22.8574 9.33777 22.865 9.16504 22.8667C9.1053 22.8673 9.01206 22.8667 9.01206 22.8667C9.01206 22.8667 8.63913 22.881 8.40007 22.8838C8.23411 22.8856 8.14105 22.8838 7.97508 22.8838C7.88877 22.8838 7.84038 22.8842 7.75408 22.8838C7.46854 22.8822 7.30865 22.8672 7.0231 22.8667C7.00318 22.8667 6.99202 22.8669 6.9721 22.8667C6.81927 22.866 6.80019 22.8631 6.58111 22.8497L6.02012 22.8158C5.80105 22.8025 5.79212 22.7958 5.64613 22.7818C5.51331 22.7691 5.43873 22.7629 5.30615 22.7477C5.15315 22.7303 5.06753 22.7189 4.91515 22.6968C4.78878 22.6784 4.71819 22.6664 4.59216 22.6458C4.51245 22.6328 4.46753 22.6267 4.38816 22.6117C4.29476 22.5941 4.24271 22.5825 4.15017 22.5608C4.02319 22.531 3.95273 22.5112 3.82718 22.4757C3.67354 22.4326 3.58767 22.4071 3.4362 22.3567C3.3226 22.3191 3.25885 22.2979 3.1472 22.2548C2.92269 22.1682 2.79847 22.1131 2.58622 21.9998C2.49179 21.9494 2.34822 21.8637 2.34822 21.8637C2.34822 21.8637 2.15742 21.7456 2.04222 21.6598C1.90996 21.5613 1.84049 21.4996 1.71923 21.3878C1.60878 21.286 1.54721 21.228 1.44724 21.1158C1.32611 20.9799 1.26627 20.8951 1.16266 20.7481L1.15825 20.7418C1.06701 20.6124 1.01721 20.5386 0.937253 20.4018C0.857787 20.266 0.816545 20.1876 0.750257 20.0449C0.675136 19.883 0.641025 19.7884 0.580666 19.621L0.580262 19.6198C0.504793 19.4105 0.467187 19.291 0.410266 19.0759C0.354652 18.8656 0.331601 18.7456 0.291268 18.5319C0.26131 18.3732 0.247509 18.2836 0.223271 18.1239C0.193121 17.9252 0.176338 17.8137 0.155272 17.6139C0.13851 17.4549 0.13455 17.3653 0.121273 17.2059C0.101357 16.9669 0.0866318 16.8332 0.0702743 16.5939C0.0530439 16.3419 0.0460098 16.2004 0.036275 15.948C0.0239931 15.6295 0.0250657 15.4506 0.0192756 15.132C0.0108325 14.6673 0.00457149 14.4067 0.00227595 13.942C0.00106271 13.6964 -0.00217408 13.5586 0.00227595 13.313C0.00805396 12.9941 0.0228551 12.8157 0.036275 12.497C0.0494161 12.185 0.0515537 12.0098 0.0702743 11.698C0.0862369 11.4322 0.0984336 11.2834 0.121273 11.0181C0.149885 10.6857 0.163956 10.499 0.20627 10.1681C0.23521 9.94179 0.250905 9.81465 0.291268 9.5901C0.33573 9.34276 0.361833 9.20376 0.427265 8.96113C0.468821 8.80701 0.496553 8.7218 0.546263 8.57013C0.607737 8.38256 0.641533 8.27684 0.716259 8.09414C0.765764 7.9731 0.795026 7.90573 0.852255 7.78815C0.90814 7.67333 0.952141 7.5921 1.00525 7.49916L1.14125 7.26116C1.19436 7.16822 1.2529 7.10401 1.32824 7.00616C1.41175 6.89773 1.45747 6.83571 1.54924 6.73417C1.63737 6.63666 1.78724 6.49618 1.78724 6.49618L1.87223 6.41118C1.87223 6.41118 1.98398 6.31512 2.05923 6.25819C2.14292 6.19485 2.19293 6.16349 2.28022 6.10519C2.37211 6.04382 2.42295 6.00816 2.51821 5.9522C2.61552 5.89504 2.67222 5.8666 2.77321 5.8162C2.87153 5.76712 2.92725 5.74063 3.0282 5.6972C3.14598 5.64653 3.21358 5.6217 3.3342 5.57821C3.45268 5.53547 3.51405 5.5094 3.64018 5.47621L3.96317 5.39121C4.08932 5.35802 4.16964 5.33622 4.30317 5.30621C4.43528 5.27652 4.50989 5.26217 4.64316 5.23821C4.81504 5.20732 4.91238 5.19574 5.08514 5.17022C5.22447 5.14963 5.30236 5.13634 5.44214 5.11922C5.6605 5.09247 5.78381 5.08537 6.00313 5.06822C6.20212 5.05266 6.3138 5.04506 6.51312 5.03422C6.65911 5.02627 6.74101 5.02297 6.88711 5.01722C7.10612 5.00859 7.44809 5.00022 7.44809 5.00022H7.94107C8.00746 5.00022 8.04469 4.99973 8.11108 5.00022C8.32362 5.0018 8.44268 5.00907 8.65506 5.01722C8.80778 5.02308 8.8935 5.02492 9.04605 5.03422C9.21225 5.04435 9.30521 5.05329 9.47104 5.06822C9.72369 5.09095 9.8656 5.10253 10.117 5.13622C10.2901 5.1594 10.3872 5.17284 10.559 5.20421C10.746 5.23837 10.8496 5.26404 11.035 5.30621C11.2281 5.35015 11.3375 5.37081 11.528 5.42521C11.6552 5.46154 11.7261 5.48361 11.851 5.52721C12.0058 5.58124 12.0917 5.6147 12.242 5.6802C12.3563 5.73003 12.4206 5.75808 12.531 5.8162C12.668 5.88835 12.7424 5.93382 12.871 6.02019C12.9734 6.08908 13.0308 6.12848 13.126 6.20719C13.202 6.2701 13.2399 6.3108 13.3129 6.37718C13.386 6.44358 13.4315 6.47603 13.4999 6.54718C13.5718 6.62195 13.6051 6.67026 13.6699 6.75118C13.738 6.83613 13.7767 6.88354 13.8399 6.97217C13.8955 7.05011 13.9267 7.09407 13.9759 7.17617C14.0187 7.24749 14.0395 7.28939 14.0779 7.36316C14.1122 7.42898 14.1313 7.46599 14.1629 7.53315C14.1907 7.59233 14.2309 7.68615 14.2309 7.68615L14.2479 7.72015C14.2479 7.72015 14.2803 7.79216 14.2989 7.83915C14.3376 7.93671 14.3839 8.09414 14.3839 8.09414L14.486 8.40014C14.486 8.40014 14.5298 8.5445 14.5539 8.63813C14.576 8.72392 14.605 8.85912 14.605 8.85912C14.605 8.85912 14.6355 9.00426 14.6559 9.09712C14.669 9.1569 14.6776 9.19016 14.6899 9.25012C14.7238 9.41476 14.758 9.67511 14.758 9.67511L14.8429 10.4231L14.9109 11.4771C14.9109 11.4771 14.9426 12.0467 14.9449 12.412C14.9455 12.4917 14.9449 12.616 14.9449 12.616L14.9619 13.228V13.806V14.265V15.132H12.395H11.63H11.494V14.945V14.69V14.248V13.806V13.483V13.058V12.684C11.494 12.684 11.4968 12.425 11.494 12.259C11.4909 12.0731 11.477 11.7831 11.477 11.7831L11.46 11.3581L11.426 11.0011C11.426 11.0011 11.4011 10.7412 11.375 10.5761C11.3529 10.4359 11.335 10.3582 11.307 10.2191C11.2816 10.0927 11.2693 10.0214 11.239 9.8961C11.2148 9.79592 11.2031 9.73903 11.171 9.6411C11.1422 9.55324 11.1198 9.50616 11.086 9.42011C11.0598 9.35356 11.018 9.25012 11.018 9.25012C11.018 9.25012 10.9501 9.12292 10.899 9.04612C10.8387 8.95544 10.729 8.82513 10.729 8.82513L10.508 8.60412C10.508 8.60412 10.4474 8.55038 10.406 8.51913C10.3369 8.46696 10.2945 8.44249 10.219 8.40014C10.1543 8.36382 10.117 8.34486 10.049 8.31514C9.95859 8.27563 9.90542 8.25898 9.81104 8.23013C9.70633 8.19814 9.53903 8.16214 9.53903 8.16214L9.18205 8.09414L8.80806 8.04314L8.40007 8.00914C8.40007 8.00914 8.12042 7.99547 7.94107 7.99214C7.76187 7.98882 7.66132 7.98946 7.48209 7.99214C7.27621 7.99524 7.16073 7.99841 6.9551 8.00914L6.95262 8.00927C6.84737 8.01477 6.75557 8.01956 6.68311 8.02615C6.68311 8.02615 6.56911 8.03616 6.49611 8.04314C6.42971 8.0495 6.39241 8.0526 6.32612 8.06014C6.32612 8.06014 6.24317 8.07001 6.19013 8.07715C6.1436 8.08339 6.11759 8.0875 6.07112 8.09414C6.02465 8.10079 5.9985 8.10382 5.95213 8.11114C5.87882 8.12271 5.83786 8.13031 5.76513 8.14514Z" fill="#AFFE93"/>
<g opacity="0.9">
<path d="M2.04988 15.3379L1.90476 15.3719L1.64676 15.4398C1.64676 15.4398 1.49791 15.4906 1.46937 15.5756C1.4526 15.6256 1.46937 15.7114 1.46937 15.7114L1.50162 15.8472L1.55001 16.0848L1.59838 16.3055L1.63063 16.4413L1.67901 16.6619L1.72738 16.8826L1.77576 17.1032L1.82413 17.3239L1.85638 17.4767L1.90476 17.6973L1.96926 17.9859L2.00151 18.1217C2.00151 18.1217 2.0214 18.1907 2.04988 18.2235C2.09171 18.2717 2.13383 18.3022 2.19501 18.2914C2.29176 18.2745 2.42076 18.2405 2.42076 18.2405L2.71102 18.1726L2.93677 18.1217L3.30765 18.0368L3.5979 17.9689L3.88816 17.901L4.25904 17.8162L4.61379 17.7313L4.83954 17.6804L5.06529 17.6294L5.29105 17.5785L5.6458 17.4936L6.01668 17.4088L6.30694 17.3409L6.61332 17.273L6.88744 17.2051L7.25832 17.1202L7.54858 17.0523L8.00008 16.9505L8.35483 16.8656L8.74185 16.7807L9.03209 16.7128L9.32234 16.6449L9.53197 16.594L9.75772 16.5431L9.98348 16.4922L10.1931 16.4413L10.4189 16.3903L10.6285 16.3394L10.8542 16.2885L11.08 16.2376L11.3057 16.1866L11.596 16.1187L11.8217 16.0678L12.112 15.9999L12.3216 15.949L12.6119 15.8811L12.8376 15.8302L13.0634 15.7792L13.3536 15.7114L13.6439 15.6435L14.0148 15.5586L14.305 15.4907C14.305 15.4907 14.3695 15.4737 14.4179 15.4567C14.4776 15.4358 14.5014 15.3858 14.5147 15.321C14.5212 15.2885 14.5147 15.2361 14.5147 15.2361L14.4502 14.8966L14.3857 14.5571L14.305 14.1158L14.2405 13.7763L14.176 13.4198L14.1115 13.0804L14.047 12.7409L14.0148 12.6051C13.9997 12.5414 13.961 12.507 13.9019 12.4863C13.8601 12.4716 13.789 12.4863 13.789 12.4863L13.7084 12.5032L13.4504 12.5711L13.0311 12.673L12.5796 12.7748L12.112 12.8936L11.9024 12.9446L11.7572 12.9785L11.5476 13.0294L11.338 13.0804L11.1284 13.1313L10.9832 13.1652L10.7736 13.2161L10.564 13.2671L10.3544 13.318L10.1447 13.3689L9.93511 13.4198L9.72547 13.4708L9.51585 13.5217L9.24172 13.5896L8.9676 13.6575L8.67733 13.7254L8.46771 13.7763L8.19358 13.8442L7.91946 13.9121L7.62921 13.98L7.29057 14.0649L7.14544 14.0988L6.93582 14.1497L6.72619 14.2007L6.51657 14.2516L6.30694 14.3025L6.0973 14.3534L5.88768 14.4043L5.67805 14.4553L5.40393 14.5232L5.1943 14.5741L4.98466 14.625L4.83954 14.6589L4.62991 14.7099L4.29129 14.7947L4.00104 14.8626L3.58177 14.9645L3.30765 15.0324L2.9529 15.1173L2.67876 15.1852L2.46913 15.2361L2.25951 15.287L2.04988 15.3379Z" fill="white" fill-opacity="0.8"/>
</g>
</g>
<defs>
<clipPath id="clip0_1982_86">
<rect width="100" height="24" fill="white"/>
</clipPath>
</defs>
</svg>
