<svg width="48" height="48" viewBox="0 0 48 48" fill="none" xmlns="http://www.w3.org/2000/svg">
<g clip-path="url(#clip0_662_109)">
<path fill-rule="evenodd" clip-rule="evenodd" d="M24.651 15.729C27.435 11.964 30.513 9 34.449 9C41.88 9 48 18.459 48.003 29.721C48.003 36.591 45.045 40.896 39.732 40.896C35.103 40.896 32.547 38.298 27.96 30.624L25.959 27.255L25.605 26.664C25.0832 25.7821 24.5532 24.905 24.015 24.033L20.481 30.273C15.462 39.048 12.636 40.896 8.712 40.896C3.258 40.896 0 36.651 0 29.919C0 19.164 5.985 9 13.794 9C14.751 9 15.669 9.117 16.566 9.366C17.496 9.624 18.399 10.026 19.305 10.587C21.036 11.664 22.767 13.332 24.651 15.729ZM29.199 22.401C28.443 21.171 27.717 20.04 27.018 19.002L27 18.978C29.535 15.063 31.629 13.116 34.116 13.116C39.285 13.116 43.422 20.727 43.422 30.075C43.422 33.639 42.252 35.706 39.837 35.706C37.518 35.706 36.411 34.176 32.007 27.096L29.199 22.401ZM14.538 14.268C16.713 14.568 18.693 16.17 21.558 20.271C19.9049 22.8023 18.2699 25.3454 16.653 27.9C12.582 34.278 11.175 35.709 8.91 35.709C6.579 35.709 5.19 33.663 5.19 30.009C5.19 22.203 9.084 14.217 13.728 14.217C14.001 14.217 14.271 14.232 14.538 14.268Z" fill="url(#paint0_linear_662_109)"/>
</g>
<defs>
<linearGradient id="paint0_linear_662_109" x1="0" y1="24.948" x2="48.003" y2="24.948" gradientUnits="userSpaceOnUse">
<stop stop-color="#4776E6"/>
<stop offset="1" stop-color="#8E54E9"/>
</linearGradient>
<clipPath id="clip0_662_109">
<rect width="48" height="48" fill="white"/>
</clipPath>
</defs>
</svg>
