<svg width="57" height="40" viewBox="0 0 32 18" fill="none" xmlns="http://www.w3.org/2000/svg">
<g clip-path="url(#clip0_5639_2560)">
<path d="M9.75825 11.5735C11.3605 11.5735 12.6594 10.2746 12.6594 8.67224C12.6594 7.07012 11.3605 5.77124 9.75813 5.77124C8.156 5.77124 6.85712 7.06999 6.85712 8.67237C6.85712 10.2746 8.156 11.5735 9.75825 11.5735ZM2.90112 17.3756C4.50337 17.3756 5.80225 16.0769 5.80225 14.4745C5.80225 12.8724 4.50338 11.5735 2.901 11.5735C1.299 11.5735 0 12.8722 0 14.4745C0 16.0767 1.29875 17.3756 2.90112 17.3756ZM29.0989 17.3756C30.7011 17.3756 32 16.0769 32 14.4745C32 12.8724 30.7013 11.5735 29.0989 11.5735C27.4966 11.5735 26.1978 12.8722 26.1978 14.4745C26.1978 16.0767 27.4966 17.3757 29.099 17.3757L29.0989 17.3756Z" fill="url(#paint0_linear_5639_2560)"/>
<path d="M19.5706 8.79463C19.4779 7.82538 19.4306 7.01862 18.6881 6.45162C17.7479 5.73362 16.6826 6.1995 15.3706 5.72587C14.0812 5.414 13.125 4.26937 13.125 2.905C13.125 1.30062 14.4473 0 16.0783 0C17.2864 0 18.325 0.713375 18.7825 1.73538C19.4826 3.06538 19.0275 4.41875 19.9072 5.1005C20.9489 5.90775 22.3532 5.31663 23.9202 6.0815C24.4204 6.31102 24.8464 6.67579 25.1502 7.13462C25.4604 7.60319 25.6256 8.15282 25.625 8.71475C25.625 10.0791 24.6687 11.2239 23.3795 11.5358C22.0674 12.0094 21.0021 11.5435 20.0619 12.2615C19.0044 13.069 19.5705 14.4199 18.7086 15.8468C18.2195 16.7865 17.2253 17.4296 16.0783 17.4296C14.4473 17.4296 13.125 16.129 13.125 14.5246C13.125 13.3592 13.8228 12.3541 14.8298 11.8914C16.3968 11.1264 17.801 11.7176 18.8428 10.9104C19.4436 10.4446 19.5706 9.72625 19.5706 8.79463Z" fill="url(#paint1_linear_5639_2560)"/>
</g>
<defs>
<linearGradient id="paint0_linear_5639_2560" x1="25.8083" y1="5.19101" x2="20.8715" y2="17.7857" gradientUnits="userSpaceOnUse">
<stop stop-color="#8e54e9"/>
<stop offset="1" stop-color="#4776e6"/>
</linearGradient>
<linearGradient id="paint1_linear_5639_2560" x1="23.2064" y1="-0.871482" x2="13.1526" y2="5.79917" gradientUnits="userSpaceOnUse">
<stop stop-color="#8e54e9"/>
<stop offset="1" stop-color="#4776e6"/>
</linearGradient>
<clipPath id="clip0_5639_2560">
<rect width="32" height="17.5" fill="white"/>
</clipPath>
</defs>
</svg>
