<svg width="50" height="40" viewBox="0 0 40 30" fill="none" xmlns="http://www.w3.org/2000/svg">
<g clip-path="url(#clip0_601_211)">
<path d="M34.4162 17.2449L34.5812 17.2424C35.6237 17.2424 36.61 17.4849 37.485 17.9174L37.4462 17.8999C38.2247 18.2759 38.8894 18.8517 39.3725 19.5686L39.3837 19.5861C39.8042 20.2031 40.0122 20.9403 39.9762 21.6861V21.6786C39.9586 22.0232 39.8723 22.3608 39.7225 22.6716C39.5727 22.9824 39.3623 23.2602 39.1037 23.4886L39.1012 23.4911C38.8222 23.7652 38.4876 23.9762 38.12 24.1099L38.1012 24.1161C37.8929 24.1578 37.7783 24.1265 37.7575 24.0224C37.7367 23.9182 37.8304 23.8036 38.0387 23.6786C38.6037 23.3361 39.0125 22.7836 39.1612 22.1324L39.165 22.1161C39.1974 21.682 39.1109 21.2473 38.915 20.8586L38.9212 20.8724C38.6589 20.3197 38.2532 19.8474 37.7462 19.5049L37.7337 19.4974C36.9504 18.9975 36.0563 18.6975 35.13 18.6236L35.11 18.6224C33.7834 18.4336 32.4305 18.5908 31.1825 19.0786L31.235 19.0599C31.4162 19.4836 31.53 19.9749 31.5462 20.4899V20.4961C31.5372 20.9979 31.4011 21.4892 31.1509 21.9241C30.9006 22.3591 30.5442 22.7236 30.115 22.9836L30.1012 22.9911C29.7137 23.2661 29.2712 23.5074 28.8 23.6949L28.7562 23.7099C28.4144 23.8745 28.0363 23.9494 27.6575 23.9274H27.6637C26.8729 23.7615 26.6854 23.074 27.1012 21.8649C27.2825 21.3386 27.5362 20.8824 27.8575 20.4811L27.85 20.4899C28.2612 19.9524 28.7125 19.4811 29.2112 19.0636L29.225 19.0524L29.1025 18.8699C28.8597 18.4504 28.6564 18.0094 28.495 17.5524L28.4775 17.4949C28.3525 17.0782 28.2483 16.6828 28.165 16.3086L28.1025 15.8711L27.4775 17.0574C26.9358 18.0574 26.415 18.932 25.915 19.6811L25.7275 19.9936C25.9375 20.5036 26.0925 21.0949 26.1625 21.7124L26.165 21.7436C26.1996 22.2256 26.1094 22.7084 25.9032 23.1454C25.6969 23.5824 25.3816 23.9589 24.9875 24.2386L24.9787 24.2449C24.5998 24.4762 24.2074 24.6849 23.8037 24.8699L23.7287 24.9011C23.2568 25.103 22.7527 25.2194 22.24 25.2449H22.2287C21.8803 25.2691 21.5315 25.2027 21.2162 25.0524L21.2287 25.0574C21.1049 24.9521 21.0195 24.8088 20.9858 24.6498C20.9521 24.4908 20.972 24.3251 21.0425 24.1786L21.04 24.1836C21.54 23.4824 22.0325 22.8724 22.5562 22.2899L22.54 22.3086L23.915 20.5599L23.6662 19.9974C23.4503 19.5961 23.268 19.1776 23.1212 18.7461L23.1037 18.6861C22.9787 18.2695 22.8746 17.874 22.7912 17.4999L22.7287 17.0624L22.1037 18.5624C21.6046 19.7282 21.1462 20.7278 20.7287 21.5611C20.1062 22.8111 19.5854 23.7695 19.1662 24.4361L19.0412 24.6236C18.5421 25.4145 18.0629 25.8099 17.6037 25.8099C17.1446 25.8099 16.8333 25.5182 16.67 24.9349C16.5427 24.4676 16.4788 23.9854 16.48 23.5011L16.4812 23.3661V23.3724L16.6062 22.4974V22.5599C16.2729 23.3507 15.9396 24.0795 15.6062 24.7461C15.4033 25.1475 15.1679 25.5317 14.9025 25.8949L14.9187 25.8711C14.6612 26.1411 14.2987 26.3086 13.8975 26.3086H13.8875C13.8612 26.3111 13.8312 26.3111 13.8012 26.3111C13.4977 26.3114 13.2049 26.1987 12.98 25.9949L12.9812 25.9961C12.5378 25.5411 12.2184 24.9798 12.0537 24.3661L12.0475 24.3399C11.8019 23.6427 11.6945 22.9044 11.7312 22.1661V22.1786C11.83 21.1836 12.0287 20.2724 12.32 19.4036L12.2937 19.4924L10.045 20.8049V20.8674C10.4552 21.7293 10.6273 22.6852 10.5437 23.6361L10.545 23.6161C10.4845 24.8522 10.0901 26.0488 9.40374 27.0786L9.41999 27.0536C8.73373 28.1515 7.72282 29.0086 6.52749 29.5061L6.48624 29.5211C5.76768 29.8384 4.99047 30.0011 4.20499 29.9986C3.68249 29.9986 3.17499 29.9286 2.69499 29.7961L2.73499 29.8049C2.34712 29.6761 2.01785 29.4133 1.80624 29.0636L1.80249 29.0561C1.49965 28.6139 1.32528 28.0964 1.29874 27.5611V27.5536C1.21968 26.795 1.35342 26.0293 1.68499 25.3424L1.67374 25.3674C2.3737 24.1649 3.37048 23.1621 4.56874 22.4549L4.60624 22.4349C5.50037 21.8202 6.43924 21.2732 7.41499 20.7986L7.54749 20.7399L7.85999 20.5524C7.48499 20.2607 6.79749 19.7607 5.79749 19.0524C4.53638 18.2123 3.33591 17.2846 2.20499 16.2761L2.23624 16.3036C1.16449 15.3855 0.404107 14.1573 0.0599905 12.7886L0.0499905 12.7411C-0.0938308 11.8545 0.0637299 10.9452 0.497491 10.1586L0.487491 10.1799C1.15687 8.72431 2.13239 7.43029 3.34749 6.38613L3.36249 6.37363C4.66296 5.14612 6.11768 4.0931 7.68999 3.24113L7.79874 3.18738C9.32518 2.3169 10.9271 1.58602 12.585 1.00363L12.7975 0.938629C14.5205 0.320991 16.3371 0.00511221 18.1675 0.00487872H18.17C19.7674 -0.04552 21.353 0.295195 22.7887 0.997379L22.7312 0.971129C23.8562 1.48363 24.6987 2.44863 25.0362 3.62863L25.0437 3.65863C25.3369 4.84775 25.2333 6.10009 24.7487 7.22488L24.7625 7.18863C24.2542 8.43693 23.4888 9.56428 22.5162 10.4974L22.5125 10.5011C21.5414 11.464 20.3858 12.2208 19.115 12.7261L19.0462 12.7499C17.6075 13.3572 16.0696 13.6957 14.5087 13.7486L14.485 13.7499C13.5014 13.8557 12.5066 13.7665 11.5575 13.4874L11.6112 13.5011C11.0335 13.32 10.4997 13.0208 10.0437 12.6224L10.0487 12.6261C9.73993 12.3755 9.48701 12.0629 9.30624 11.7086L9.29874 11.6924C9.17374 11.359 9.16332 11.1611 9.26749 11.0986C9.37166 11.0361 9.44457 11.0257 9.48624 11.0674L9.79874 11.3799C10.1475 11.7036 10.5637 11.9586 11.0237 12.1211L11.0487 12.1286C11.6812 12.3486 12.4112 12.4761 13.17 12.4761C13.4137 12.4761 13.6537 12.4636 13.89 12.4374L13.8612 12.4399C15.7971 12.2185 17.6537 11.545 19.2812 10.4736L19.235 10.5024C20.5423 9.73018 21.6312 8.63743 22.3987 7.32738L22.4212 7.28488C22.7975 6.73238 23.0225 6.04988 23.0225 5.31488C23.0225 4.86363 22.9375 4.43113 22.7825 4.03363L22.7912 4.05738C22.5596 3.68772 22.252 3.37152 21.8889 3.12973C21.5257 2.88794 21.1154 2.72608 20.685 2.65488L20.6675 2.65238C19.2938 2.32827 17.8668 2.29972 16.4812 2.56863L16.5437 2.55863C14.5471 2.9097 12.6147 3.55904 10.8112 4.48488L10.925 4.43113C5.80166 7.01446 3.15624 9.65988 2.98874 12.3674V12.4286C2.98874 13.5199 3.41749 14.5111 4.11624 15.2436L4.11499 15.2424C4.90284 16.12 5.78766 16.9054 6.75249 17.5836L6.80124 17.6161C7.64286 18.2425 8.43595 18.9315 9.17374 19.6774L9.17499 19.6799L9.29999 19.8049L13.3 17.6186C13.7441 16.9721 14.2973 16.4078 14.935 15.9511L14.955 15.9374C15.455 15.5174 16.09 15.2436 16.7862 15.1886L16.7975 15.1874C16.8225 15.1849 16.8512 15.1849 16.8812 15.1849C17.3475 15.1849 17.7475 15.4661 17.92 15.8686L17.9225 15.8761C18.1057 16.2921 18.1701 16.7507 18.1087 17.2011L18.11 17.1886L17.9887 17.8049L18.1762 17.6799C18.2871 17.5957 18.4186 17.5428 18.5569 17.5267C18.6952 17.5107 18.8353 17.532 18.9625 17.5886L18.9575 17.5861C19.0972 17.6219 19.2173 17.7111 19.2919 17.8345C19.3665 17.958 19.3896 18.1058 19.3562 18.2461L19.3575 18.2424L19.17 18.9299C18.795 20.429 18.5454 21.512 18.4212 22.1786C18.3409 22.4651 18.3096 22.763 18.3287 23.0599V23.0524C18.3496 23.3024 18.3808 23.4274 18.4225 23.4274C18.4642 23.4274 18.5471 23.3024 18.6712 23.0524L18.8587 22.6149C18.9004 22.6149 18.9004 22.6357 18.8587 22.6774L19.5462 21.2399C21.1712 17.6582 22.0458 15.6582 22.17 15.2399L22.545 14.0536C22.5867 13.9703 22.7533 13.8874 23.045 13.8049C23.394 13.713 23.7542 13.6709 24.115 13.6799H24.1112C24.6946 13.6799 24.9862 13.8257 24.9862 14.1174L24.9237 14.4299C24.7659 14.874 24.6369 15.3279 24.5375 15.7886L24.5237 15.8674C24.4608 16.2907 24.4723 16.7217 24.5575 17.1411L24.5537 17.1174L24.6162 17.3661C24.7437 17.8874 24.9375 18.3449 25.1912 18.7624L25.1787 18.7411C25.6779 17.9086 26.1571 17.0549 26.6162 16.1799C26.9787 15.5761 27.3162 14.8761 27.5875 14.1436L27.6162 14.0561C27.71 13.5849 27.8175 13.1874 27.9487 12.7999L27.9287 12.8699C27.9704 12.7449 28.1483 12.6511 28.4625 12.5886C28.76 12.5286 29.1012 12.4949 29.45 12.4949H29.495H29.4925C30.0758 12.4949 30.3871 12.6407 30.4262 12.9324L30.3012 13.1811C30.1525 13.6011 30.0225 14.1061 29.935 14.6249L29.9275 14.6811C29.8883 15.108 29.9111 15.5383 29.995 15.9586L29.99 15.9299V16.1786C30.1337 16.7236 30.3475 17.2024 30.6275 17.6361L30.615 17.6161L30.8025 18.0536C31.9148 17.515 33.1354 17.2371 34.3712 17.2411H34.42H34.4175L34.4162 17.2449ZM7.61749 26.3111C8.52002 25.3807 9.02407 24.1349 9.02249 22.8386C9.02282 22.3312 8.94612 21.8267 8.79499 21.3424L8.80499 21.3774L7.80499 22.0024C6.78499 22.5836 5.90249 23.2324 5.10374 23.9699L5.11374 23.9611C4.49985 24.5242 4.05819 25.2497 3.83999 26.0536L3.83249 26.0849C3.64499 26.8557 3.73874 27.3557 4.11374 27.5849C4.34249 27.6899 4.61124 27.7511 4.89249 27.7511C5.19999 27.7511 5.49124 27.6786 5.74749 27.5486L5.73624 27.5536C6.45232 27.2965 7.09471 26.8682 7.60749 26.3061L7.61124 26.3024L7.61749 26.3111ZM15.9887 20.5561C16.1971 20.0145 16.4262 19.3686 16.6762 18.6186C17.0096 17.6186 17.1242 17.0357 17.02 16.8699C16.9158 16.704 16.7179 16.6832 16.4262 16.8074C16.0895 16.9691 15.7921 17.2024 15.555 17.4911L15.5512 17.4961C15.282 17.8382 15.0388 18.2001 14.8237 18.5786L14.8012 18.6211C14.5368 19.0576 14.3301 19.5265 14.1862 20.0161L14.175 20.0586C13.8838 20.8632 13.7567 21.7179 13.8012 22.5724V22.5574C13.8429 23.3899 13.9762 23.8378 14.2012 23.9011C14.4262 23.9645 14.6867 23.6624 14.9825 22.9949C15.2687 22.4786 15.5237 21.8786 15.7137 21.2499L15.7312 21.1824C15.8554 20.8874 15.9404 20.6786 15.9862 20.5561H15.9887ZM22.9212 23.8686C23.3519 23.6781 23.7238 23.3759 23.9983 22.9932C24.2729 22.6105 24.44 22.1614 24.4825 21.6924L24.4837 21.6824V21.6199L23.7962 22.4949L22.5475 23.8699C22.5379 23.8773 22.5301 23.8867 22.5247 23.8975C22.5193 23.9084 22.5164 23.9203 22.5162 23.9324C22.5162 23.9574 22.5287 23.9799 22.5462 23.9949C22.5862 24.0357 22.7112 23.994 22.9212 23.8699V23.8686ZM28.295 22.6811C28.7619 22.55 29.1732 22.27 29.4665 21.8837C29.7598 21.4975 29.919 21.0261 29.92 20.5411V20.4924V20.4949C29.9075 20.2449 29.8625 20.0099 29.7887 19.7874L29.7937 19.8061C29.3075 20.2386 28.9087 20.7561 28.62 21.3399L28.6062 21.3686C28.2304 22.1178 28.1254 22.5545 28.2912 22.6786L28.295 22.6811Z" fill="url(#paint0_linear_601_211)"/>
</g>
<defs>
<linearGradient id="paint0_linear_601_211" x1="32.2441" y1="-1.49993" x2="13.8685" y2="21.1582" gradientUnits="userSpaceOnUse">
<stop stop-color="#00ff74"/>
<stop offset="1" stop-color="#00ff74"/>
</linearGradient>
<clipPath id="clip0_601_211">
<rect width="40" height="30" fill="white"/>
</clipPath>
</defs>
</svg>
