<svg width="33" height="33" viewBox="0 0 33 33" fill="none" xmlns="http://www.w3.org/2000/svg">
<path d="M16.7717 24.5817L23.0717 28.5817C23.8842 29.0942 24.8842 28.3317 24.6467 27.3942L22.8217 20.2192C22.7723 20.0203 22.7802 19.8115 22.8443 19.6169C22.9084 19.4223 23.0263 19.2497 23.1842 19.1192L28.8342 14.4067C29.5717 13.7942 29.1967 12.5567 28.2342 12.4942L20.8592 12.0192C20.6579 12.0075 20.4645 11.9374 20.3024 11.8175C20.1404 11.6976 20.0168 11.5332 19.9467 11.3442L17.1967 4.41917C17.1239 4.21905 16.9913 4.04618 16.8168 3.92402C16.6424 3.80186 16.4346 3.73633 16.2217 3.73633C16.0087 3.73633 15.8009 3.80186 15.6265 3.92402C15.4521 4.04618 15.3195 4.21905 15.2467 4.41917L12.4967 11.3442C12.4266 11.5332 12.303 11.6976 12.1409 11.8175C11.9789 11.9374 11.7854 12.0075 11.5842 12.0192L4.20917 12.4942C3.24667 12.5567 2.87167 13.7942 3.60917 14.4067L9.25917 19.1192C9.41709 19.2497 9.53491 19.4223 9.59904 19.6169C9.66318 19.8115 9.67102 20.0203 9.62167 20.2192L7.93417 26.8692C7.64667 27.9942 8.84667 28.9067 9.80917 28.2942L15.6717 24.5817C15.8361 24.4771 16.0269 24.4216 16.2217 24.4216C16.4165 24.4216 16.6073 24.4771 16.7717 24.5817Z" stroke="url(#paint0_linear_1109_80)" stroke-width="1.5" stroke-linecap="round" stroke-linejoin="round"/>
<defs>
<linearGradient id="paint0_linear_1109_80" x1="3.2207" y1="16.2414" x2="29.2226" y2="16.2414" gradientUnits="userSpaceOnUse">
<stop stop-color="#4776E6"/>
<stop offset="1" stop-color="#8E54E9"/>
</linearGradient>
</defs>
</svg>
