<svg width="34" height="40" viewBox="0 0 26 32" fill="none" xmlns="http://www.w3.org/2000/svg">
<g clip-path="url(#clip0_5583_2545)">
<path d="M0.990311 29.4244L0.00122007 3.06699C-0.0315824 2.19637 0.635803 1.45857 1.50522 1.4044L23.9242 0.00321841C24.8091 -0.0521546 25.5713 0.620447 25.6267 1.50541C25.6287 1.53872 25.6298 1.57212 25.6298 1.60553V30.3267C25.6298 31.2134 24.9111 31.9321 24.0244 31.9321C24.0003 31.9321 23.9762 31.9316 23.9524 31.9305L2.5227 30.968C1.68809 30.9306 1.02171 30.2593 0.990311 29.4244V29.4244Z" fill="url(#paint0_linear_5583_2545)"/>
<mask id="mask0_5583_2545" style="mask-type:luminance" maskUnits="userSpaceOnUse" x="0" y="0" width="26" height="32">
<path d="M0.990311 29.4244L0.00122007 3.06699C-0.0315824 2.19637 0.635803 1.45857 1.50522 1.4044L23.9242 0.00321841C24.8091 -0.0521546 25.5713 0.620447 25.6267 1.50541C25.6287 1.53872 25.6298 1.57212 25.6298 1.60553V30.3267C25.6298 31.2134 24.9111 31.9321 24.0244 31.9321C24.0003 31.9321 23.9762 31.9316 23.9524 31.9305L2.5227 30.968C1.68809 30.9306 1.02171 30.2593 0.990311 29.4244V29.4244Z" fill="white"/>
</mask>
<g mask="url(#mask0_5583_2545)">
<path d="M18.9257 3.92497L19.0789 0.241856L22.1577 0L22.2903 3.79817C22.2919 3.84384 22.2805 3.88903 22.2573 3.9284C22.2341 3.96777 22.2001 3.99967 22.1593 4.02035C22.1186 4.04102 22.0727 4.0496 22.0273 4.04507C21.9818 4.04054 21.9386 4.02309 21.9027 3.99478L20.7155 3.05936L19.3098 4.12569C19.2736 4.15319 19.2303 4.16982 19.185 4.17364C19.1397 4.17746 19.0943 4.1683 19.054 4.14725C19.0137 4.1262 18.9803 4.09412 18.9576 4.05476C18.9348 4.01539 18.9238 3.97038 18.9257 3.92497ZM14.9883 12.0356C14.9883 12.6603 19.1956 12.3609 19.7604 11.9222C19.7604 7.66866 17.4781 5.43348 13.2987 5.43348C9.11944 5.43348 6.77783 7.70337 6.77783 11.1082C6.77783 17.0384 14.7808 17.152 14.7808 20.3866C14.7808 21.2946 14.3361 21.8337 13.358 21.8337C12.0835 21.8337 11.5795 21.1827 11.6388 18.9696C11.6388 18.4895 6.77783 18.3398 6.62956 18.9696C6.25218 24.3329 9.59363 25.8799 13.4173 25.8799C17.1224 25.8799 20.0271 23.905 20.0271 20.3299C20.0271 13.9741 11.9056 14.1443 11.9056 10.9948C11.9056 9.71797 12.8541 9.54774 13.4174 9.54774C14.0101 9.54774 15.0772 9.65226 14.9883 12.0356Z" fill="#08040D"/>
</g>
</g>
<defs>
<linearGradient id="paint0_linear_5583_2545" x1="20.6707" y1="-1.59657" x2="1.53394" y2="12.6138" gradientUnits="userSpaceOnUse">
<stop stop-color="#8e54e9"/>
<stop offset="1" stop-color="#4776e6"/>
</linearGradient>
<clipPath id="clip0_5583_2545">
<rect width="25.6803" height="32" fill="white"/>
</clipPath>
</defs>
</svg>
