<svg width="48" height="48" viewBox="0 0 48 48" fill="none" xmlns="http://www.w3.org/2000/svg">
<path d="M0 15.9399V25.8559C0 29.5899 2.604 32.0579 6 32.0579C7.652 32.0579 9.124 31.4259 10.188 30.3179V31.7899H12.54V15.9399H10.164V25.7159C10.164 28.2299 8.464 29.9279 6.27 29.9279C4.05 29.9279 2.378 28.2739 2.378 25.7159V15.9419H0V15.9399ZM14.88 15.9399V31.7899H17.14V30.3399C18.182 31.4039 19.654 32.0599 21.26 32.0599C22.0549 32.0673 22.8433 31.917 23.5797 31.6177C24.3162 31.3184 24.9859 30.876 25.5502 30.3162C26.1145 29.7563 26.5622 29.0901 26.8674 28.3561C27.1725 27.6221 27.3291 26.8349 27.328 26.0399C27.3317 25.2431 27.1772 24.4535 26.8735 23.7169C26.5697 22.9803 26.1228 22.3113 25.5585 21.7487C24.9943 21.1861 24.3239 20.7411 23.5864 20.4395C22.8488 20.138 22.0588 19.9858 21.262 19.9919C20.4986 19.991 19.7427 20.1428 19.0389 20.4386C18.3351 20.7343 17.6976 21.168 17.164 21.7139V15.9419H14.878L14.88 15.9399ZM34.618 20.0159C31.244 20.0159 28.688 22.7559 28.688 26.0159C28.688 29.4559 31.356 32.0359 34.82 32.0359C36.926 32.0359 38.646 31.1099 39.8 29.5699L38.148 28.3479C37.288 29.5019 36.156 30.0419 34.82 30.0419C32.874 30.0419 31.314 28.6419 30.996 26.7619H40.39V26.0159C40.39 22.5759 37.946 20.0159 34.618 20.0159ZM47.208 20.1519C45.94 20.1519 45.012 20.7399 44.446 21.6679V20.2419H42.184V31.7899H44.468V25.2199C44.468 23.4319 45.556 22.2799 47.05 22.2799H48V20.1499H47.208V20.1519ZM34.57 22.0079C36.27 22.0079 37.698 23.1839 38.082 24.9479H31.04C31.446 23.1839 32.872 22.0079 34.57 22.0079ZM21.106 22.0319C23.278 22.0319 25.066 23.7979 25.066 26.0399C25.0703 27.0954 24.6558 28.1094 23.9134 28.8596C23.171 29.6099 22.1614 30.0351 21.106 30.0419C20.5809 30.043 20.0608 29.9401 19.5757 29.7392C19.0905 29.5382 18.65 29.2432 18.2794 28.8712C17.9089 28.4991 17.6156 28.0574 17.4166 27.5715C17.2177 27.0855 17.1168 26.565 17.12 26.0399C17.1163 25.5146 17.2167 24.9937 17.4153 24.5073C17.6139 24.021 17.9068 23.5787 18.2772 23.2061C18.6475 22.8335 19.088 22.5379 19.5732 22.3364C20.0584 22.1349 20.5786 22.0314 21.104 22.0319H21.106Z" fill="url(#paint0_linear_663_117)"/>
<defs>
<linearGradient id="paint0_linear_663_117" x1="0" y1="24.0001" x2="48" y2="24.0001" gradientUnits="userSpaceOnUse">
<stop stop-color="#986dff"/>
<stop offset="1" stop-color="#986dff"/>
</linearGradient>
</defs>
</svg>
