<svg width="40" height="40" viewBox="0 0 40 40" fill="none" xmlns="http://www.w3.org/2000/svg">
<path d="M5 20C5 21.9698 5.38799 23.9204 6.14181 25.7403C6.89563 27.5601 8.00052 29.2137 9.3934 30.6066C10.7863 31.9995 12.4399 33.1044 14.2597 33.8582C16.0796 34.612 18.0302 35 20 35C21.9698 35 23.9204 34.612 25.7403 33.8582C27.5601 33.1044 29.2137 31.9995 30.6066 30.6066C31.9995 29.2137 33.1044 27.5601 33.8582 25.7403C34.612 23.9204 35 21.9698 35 20C35 18.0302 34.612 16.0796 33.8582 14.2597C33.1044 12.4399 31.9995 10.7863 30.6066 9.3934C29.2137 8.00052 27.5601 6.89563 25.7403 6.14181C23.9204 5.38799 21.9698 5 20 5C18.0302 5 16.0796 5.38799 14.2597 6.14181C12.4399 6.89563 10.7863 8.00052 9.3934 9.3934C8.00052 10.7863 6.89563 12.4399 6.14181 14.2597C5.38799 16.0796 5 18.0302 5 20Z" stroke="url(#paint0_linear_631_102)" stroke-width="1.5" stroke-linecap="round" stroke-linejoin="round"/>
<path d="M11.6667 16.6667V20C11.6667 20.8841 12.0178 21.7319 12.643 22.357C13.2681 22.9822 14.1159 23.3334 15 23.3334C15.884 23.3334 16.7319 22.9822 17.357 22.357C17.9821 21.7319 18.3333 20.8841 18.3333 20V16.6667M23.3333 16.6667L28.3333 23.3334M23.3333 23.3334L28.3333 16.6667" stroke="url(#paint1_linear_631_102)" stroke-width="1.5" stroke-linecap="round" stroke-linejoin="round"/>
<defs>
<linearGradient id="paint0_linear_631_102" x1="5" y1="20" x2="35" y2="20" gradientUnits="userSpaceOnUse">
<stop stop-color="#cabaff"/>
<stop offset="1" stop-color="#cabaff"/>
</linearGradient>
<linearGradient id="paint1_linear_631_102" x1="11.6667" y1="20" x2="28.3333" y2="20" gradientUnits="userSpaceOnUse">
<stop stop-color="#cabaff"/>
<stop offset="1" stop-color="#cabaff"/>
</linearGradient>
</defs>
</svg>
